{"glyphs":{"0":{"ha":881,"x_min":72,"x_max":807,"o":"m 72 672 q 169 917 72 826 q 440 1007 267 1007 q 710 917 614 1007 q 807 672 807 826 l 807 315 q 710 69 807 160 q 440 -21 614 -21 q 169 69 267 -21 q 72 315 72 160 l 72 672 m 633 672 q 583 799 633 754 q 440 844 532 844 q 298 799 349 844 q 247 672 247 754 l 247 315 q 298 188 247 233 q 440 142 349 142 q 583 188 532 142 q 633 315 633 233 l 633 672 z "},"1":{"ha":611,"x_min":24,"x_max":504,"o":"m 457 986 q 494 976 483 986 q 504 939 504 965 l 504 47 q 494 10 504 21 q 457 0 483 0 l 378 0 q 341 10 351 0 q 331 47 331 21 l 331 775 l 136 667 q 93 656 108 651 q 65 685 78 661 l 31 747 q 24 784 19 771 q 53 811 29 797 l 324 967 q 390 986 356 986 l 457 986 z "},"2":{"ha":831,"x_min":63,"x_max":772,"o":"m 69 778 q 435 1007 164 1007 q 680 916 588 1007 q 772 697 772 825 q 689 467 772 547 q 385 299 606 386 q 365 291 382 297 q 343 283 347 285 q 323 274 339 281 q 301 264 307 268 q 284 253 296 260 q 267 240 272 246 q 256 225 263 233 q 247 207 249 217 q 244 188 244 197 l 244 163 l 708 163 q 745 152 735 163 q 756 115 756 142 l 756 47 q 745 10 756 21 q 708 0 735 0 l 110 0 q 73 10 83 0 q 63 47 63 21 l 63 151 q 84 270 63 219 q 150 356 106 321 q 233 413 194 392 q 336 458 272 433 q 515 544 472 511 q 589 689 589 600 q 544 799 589 754 q 428 844 499 844 q 236 721 290 844 q 213 688 225 694 q 175 690 200 682 l 100 718 q 69 778 53 736 z "},"3":{"ha":851,"x_min":58,"x_max":792,"o":"m 760 725 q 651 515 760 578 q 792 281 792 451 q 701 60 792 142 q 435 -21 611 -21 q 58 213 140 -21 q 89 274 43 257 l 164 300 q 201 302 189 308 q 225 271 214 296 q 294 172 250 203 q 435 142 339 142 q 610 283 610 142 q 465 422 610 422 l 321 422 q 284 432 294 422 q 274 469 274 442 l 274 532 q 284 569 274 558 q 321 579 294 579 l 440 579 q 547 615 507 579 q 586 710 586 650 q 431 844 586 844 q 299 815 340 844 q 233 717 258 786 q 211 685 224 692 q 172 688 199 679 l 97 714 q 67 775 51 731 q 194 949 107 892 q 433 1007 282 1007 q 674 932 589 1007 q 760 725 760 857 z "},"4":{"ha":876,"x_min":31,"x_max":842,"o":"m 794 383 q 831 373 821 383 q 842 336 842 363 l 842 276 q 832 240 842 250 q 794 229 822 229 l 699 229 l 699 47 q 688 10 699 21 q 651 0 678 0 l 583 0 q 547 10 557 0 q 536 47 536 21 l 536 229 l 78 229 q 41 240 51 229 q 31 276 31 250 l 31 326 q 47 383 31 361 l 508 956 q 575 989 536 989 l 651 989 q 688 979 678 989 q 699 942 699 969 l 699 383 l 794 383 m 536 756 l 235 383 l 536 383 l 536 756 z "},"5":{"ha":828,"x_min":51,"x_max":776,"o":"m 689 986 q 726 976 715 986 q 736 939 736 965 l 736 871 q 726 834 736 844 q 689 824 715 824 l 292 824 l 271 619 l 439 619 q 690 531 603 619 q 776 307 776 443 q 683 74 776 168 q 428 -21 589 -21 q 51 206 133 -21 q 81 267 35 250 l 157 293 q 194 297 182 303 q 217 264 207 290 q 426 142 263 142 q 547 185 501 142 q 593 307 593 229 q 548 417 593 376 q 429 458 503 458 l 136 458 q 94 472 106 458 q 86 514 83 485 l 128 918 q 149 972 132 957 q 204 986 165 986 l 689 986 z "},"6":{"ha":881,"x_min":71,"x_max":819,"o":"m 246 588 q 460 614 344 614 q 819 297 819 614 q 720 65 819 150 q 446 -21 621 -21 q 167 75 264 -21 q 71 342 71 171 l 71 644 q 167 912 71 817 q 446 1007 264 1007 q 804 788 722 1007 q 808 750 814 763 q 775 726 801 738 l 701 700 q 665 697 676 690 q 642 729 653 703 q 446 844 593 844 q 246 646 246 844 l 246 588 m 246 340 q 446 142 246 142 q 594 181 543 142 q 646 297 646 221 q 599 413 646 375 q 447 451 553 451 q 246 419 310 451 l 246 340 z "},"7":{"ha":749,"x_min":32,"x_max":726,"o":"m 679 986 q 716 976 706 986 q 726 939 726 965 l 726 890 q 713 824 726 858 l 361 42 q 334 8 350 15 q 274 0 318 0 l 197 0 q 174 47 151 0 l 526 824 l 79 824 q 42 834 53 824 q 32 871 32 844 l 32 939 q 42 976 32 965 q 79 986 53 986 l 679 986 z "},"8":{"ha":871,"x_min":58,"x_max":813,"o":"m 90 729 q 182 934 90 861 q 435 1007 274 1007 q 693 939 604 1007 q 782 743 782 871 q 640 517 782 597 q 767 423 721 481 q 813 269 813 365 q 721 57 813 135 q 435 -21 629 -21 q 58 247 58 -21 q 228 492 58 406 q 90 729 90 571 m 613 726 q 566 823 613 790 q 436 856 519 856 q 265 726 265 856 q 306 634 265 664 q 432 582 347 604 l 488 568 q 613 726 613 621 m 631 267 q 627 303 631 286 q 613 333 624 319 q 595 356 603 346 q 569 374 588 365 q 538 389 550 383 q 501 401 526 394 q 463 412 475 408 q 419 422 450 415 q 375 432 388 429 q 235 265 235 383 q 436 131 235 131 q 586 165 542 131 q 631 267 631 200 z "},"9":{"ha":881,"x_min":61,"x_max":808,"o":"m 635 399 q 421 372 536 372 q 61 689 61 372 q 160 922 61 836 q 435 1007 260 1007 q 712 911 615 1007 q 808 644 808 815 l 808 342 q 712 74 808 169 q 435 -21 615 -21 q 75 199 160 -21 q 73 236 67 224 q 106 260 79 249 l 179 286 q 216 290 204 296 q 239 257 228 283 q 435 142 288 142 q 635 340 635 142 l 635 399 m 635 646 q 583 794 635 743 q 435 844 532 844 q 286 805 338 844 q 235 689 235 765 q 281 573 235 611 q 433 535 328 535 q 635 567 571 535 l 635 646 z "}," ":{"ha":304,"x_min":0,"x_max":0,"o":""},"!":{"ha":335,"x_min":72,"x_max":261,"o":"m 208 1028 q 242 1018 232 1028 q 251 985 253 1008 l 232 325 q 222 292 231 301 q 189 283 213 283 l 146 283 q 113 292 122 283 q 103 325 104 301 l 85 985 q 94 1018 83 1008 q 128 1028 104 1028 l 208 1028 m 172 181 q 242 161 222 181 q 261 92 261 142 l 261 79 q 242 9 261 28 q 172 -10 222 -10 l 161 -10 q 92 9 111 -10 q 72 79 72 28 l 72 92 q 92 161 72 142 q 161 181 111 181 l 172 181 z "},"\"":{"ha":483,"x_min":79,"x_max":415,"o":"m 204 667 q 195 637 203 643 q 163 631 188 631 l 118 631 q 86 637 93 631 q 79 667 79 643 l 79 949 q 87 979 79 972 q 118 986 94 986 l 183 986 q 216 979 208 986 q 222 949 224 972 l 204 667 m 397 667 q 388 637 396 643 q 356 631 381 631 l 311 631 q 278 637 286 631 q 271 667 271 643 l 271 949 q 278 979 271 972 q 311 986 286 986 l 375 986 q 408 979 400 986 q 415 949 417 972 l 397 667 z "},"#":{"ha":988,"x_min":43,"x_max":944,"o":"m 913 697 q 944 688 938 697 q 944 656 951 679 l 925 589 q 868 550 913 550 l 757 550 l 707 382 l 819 382 q 851 340 865 382 l 832 274 q 775 235 819 235 l 663 235 l 606 43 q 586 10 599 19 q 550 0 574 0 l 482 0 q 450 43 436 0 l 508 235 l 340 235 l 282 43 q 228 0 271 0 l 158 0 q 128 43 114 0 l 185 235 l 75 235 q 44 244 51 235 q 43 276 36 253 l 63 343 q 82 374 69 365 q 119 382 94 382 l 229 382 l 279 550 l 168 550 q 136 592 122 550 l 156 658 q 174 689 161 681 q 213 697 188 697 l 322 697 l 379 885 q 433 926 390 926 l 503 926 q 533 917 526 926 q 533 885 540 908 l 476 697 l 644 697 l 701 885 q 720 917 708 908 q 756 926 732 926 l 825 926 q 856 917 849 926 q 856 885 863 908 l 800 697 l 913 697 m 435 550 l 383 382 l 551 382 l 603 550 l 435 550 z "},"$":{"ha":822,"x_min":53,"x_max":772,"o":"m 450 1075 q 483 1065 474 1075 q 492 1032 492 1056 l 492 964 q 647 902 588 950 q 747 771 707 854 q 753 731 760 746 q 719 703 747 715 l 651 672 q 614 667 628 661 q 586 697 600 672 q 519 778 558 751 q 408 804 479 804 q 278 777 319 804 q 236 690 236 750 q 266 628 236 651 q 332 597 296 604 q 432 582 368 589 q 528 570 490 576 q 617 546 565 564 q 698 501 668 528 q 750 424 728 474 q 772 307 772 374 q 699 119 772 193 q 492 26 626 46 l 492 -46 q 483 -79 492 -69 q 450 -89 474 -89 l 374 -89 q 340 -79 350 -89 q 331 -46 331 -69 l 331 25 q 53 239 122 51 q 85 303 36 285 l 153 328 q 193 331 179 338 q 218 297 207 324 q 406 181 264 181 q 597 303 597 181 q 583 356 597 335 q 538 388 568 376 q 477 406 507 400 q 400 415 447 411 q 303 428 343 421 q 214 455 264 436 q 133 501 164 474 q 80 578 101 529 q 58 690 58 626 q 128 874 58 803 q 331 964 197 946 l 331 1032 q 340 1065 331 1056 q 374 1075 350 1075 l 450 1075 z "},"%":{"ha":1139,"x_min":44,"x_max":1093,"o":"m 44 801 q 104 953 44 899 q 275 1008 164 1008 q 446 953 386 1008 q 506 801 506 899 l 506 703 q 446 553 506 607 q 275 499 386 499 q 104 553 164 499 q 44 703 44 607 l 44 801 m 964 986 q 993 972 988 986 q 986 940 999 958 l 325 42 q 290 7 304 14 q 232 0 275 0 l 178 0 q 147 14 153 0 q 154 47 140 28 l 815 947 q 849 980 833 974 q 903 986 864 986 l 964 986 m 371 794 q 275 879 371 879 q 179 794 179 879 l 179 711 q 275 626 179 626 q 371 711 371 626 l 371 794 m 632 281 q 692 433 632 378 q 863 488 751 488 q 1033 433 974 488 q 1093 281 1093 378 l 1093 182 q 1033 32 1093 86 q 863 -22 974 -22 q 692 32 751 -22 q 632 182 632 86 l 632 281 m 958 274 q 863 358 958 358 q 767 274 767 358 l 767 192 q 863 106 767 106 q 958 192 958 106 l 958 274 z "},"&":{"ha":940,"x_min":53,"x_max":917,"o":"m 144 753 q 216 933 144 858 q 414 1007 288 1007 q 597 937 522 1007 q 672 765 672 867 q 627 617 672 678 q 488 511 582 557 l 474 504 l 644 329 l 731 413 q 788 413 758 442 l 843 357 q 839 306 865 332 l 749 218 l 917 42 q 896 0 954 0 l 797 0 q 733 25 758 0 l 644 115 q 496 8 560 36 q 351 -21 432 -21 q 136 62 219 -21 q 53 275 53 144 q 236 547 53 449 q 144 753 144 646 m 521 764 q 490 836 521 806 q 414 867 460 867 q 327 833 358 867 q 296 751 296 800 q 313 686 296 715 q 371 614 329 657 l 421 640 q 497 692 474 665 q 521 764 521 719 m 339 436 q 217 272 217 378 q 258 172 217 211 q 360 132 299 132 q 448 155 410 132 q 540 229 486 178 l 339 436 z "},"'":{"ha":292,"x_min":79,"x_max":222,"o":"m 204 667 q 195 637 203 643 q 163 631 188 631 l 118 631 q 86 637 93 631 q 79 667 79 643 l 79 949 q 87 979 79 972 q 118 986 94 986 l 183 986 q 216 979 208 986 q 222 949 224 972 l 204 667 z "},"(":{"ha":399,"x_min":75,"x_max":367,"o":"m 75 847 q 124 1061 75 981 q 272 1188 174 1142 q 307 1191 296 1197 q 331 1161 318 1185 l 361 1101 q 365 1067 369 1078 q 338 1043 360 1056 q 259 975 285 1017 q 233 860 233 933 l 233 126 q 259 11 233 53 q 338 -57 285 -31 q 366 -82 361 -71 q 361 -115 371 -93 l 331 -175 q 307 -205 318 -199 q 272 -201 296 -211 q 124 -75 174 -156 q 75 139 75 6 l 75 847 z "},")":{"ha":399,"x_min":33,"x_max":322,"o":"m 67 1161 q 125 1188 89 1206 q 273 1061 224 1142 q 322 847 322 981 l 322 139 q 273 -75 322 6 q 125 -201 224 -156 q 67 -175 89 -219 l 38 -115 q 34 -81 29 -92 q 61 -57 39 -69 q 140 11 114 -31 q 165 126 165 53 l 165 860 q 140 975 165 933 q 61 1043 114 1017 q 34 1067 39 1056 q 38 1101 29 1078 l 67 1161 z "},"*":{"ha":504,"x_min":65,"x_max":442,"o":"m 276 935 q 299 908 307 935 l 283 788 l 393 840 q 428 826 418 853 l 442 782 q 422 751 450 753 l 303 729 l 386 642 q 383 606 407 621 l 346 578 q 310 586 321 561 l 253 690 l 196 586 q 160 576 185 561 l 122 606 q 119 642 97 622 l 204 729 l 85 751 q 65 782 57 756 l 79 826 q 114 840 90 853 l 222 788 l 207 908 q 229 935 201 935 l 276 935 z "},"+":{"ha":754,"x_min":50,"x_max":706,"o":"m 658 531 q 695 520 685 531 q 706 483 706 510 l 706 426 q 695 390 706 400 q 658 379 685 379 l 453 379 l 453 174 q 442 137 453 147 q 404 126 431 126 l 349 126 q 312 137 322 126 q 301 174 301 147 l 301 379 l 97 379 q 60 390 71 379 q 50 426 50 400 l 50 483 q 60 520 50 510 q 97 531 71 531 l 301 531 l 301 735 q 312 772 301 761 q 349 782 322 782 l 404 782 q 442 772 431 782 q 453 735 453 761 l 453 531 l 658 531 z "},",":{"ha":306,"x_min":40,"x_max":238,"o":"m 153 -126 q 133 -160 144 -151 q 100 -169 122 -169 l 69 -169 q 44 -163 50 -169 q 40 -137 38 -157 l 75 121 q 92 160 79 150 q 132 171 104 171 l 194 171 q 238 121 256 171 l 153 -126 z "},"-":{"ha":572,"x_min":79,"x_max":493,"o":"m 446 446 q 483 435 472 446 q 493 399 493 425 l 493 338 q 483 301 493 311 q 446 290 472 290 l 126 290 q 90 301 100 290 q 79 338 79 311 l 79 399 q 90 435 79 425 q 126 446 100 446 l 446 446 z "},".":{"ha":315,"x_min":64,"x_max":251,"o":"m 163 181 q 233 161 214 181 q 251 92 251 142 l 251 79 q 233 9 251 28 q 163 -10 214 -10 l 153 -10 q 83 9 101 -10 q 64 79 64 28 l 64 92 q 83 161 64 142 q 153 181 101 181 l 163 181 z "},"/":{"ha":611,"x_min":38,"x_max":575,"o":"m 203 -44 q 181 -75 193 -67 q 146 -83 169 -83 l 68 -83 q 38 -74 44 -83 q 39 -44 31 -64 l 408 949 q 430 979 418 971 q 465 988 442 988 l 544 988 q 574 978 568 988 q 572 949 581 968 l 203 -44 z "},":":{"ha":346,"x_min":79,"x_max":267,"o":"m 178 689 q 248 670 229 689 q 267 600 267 651 l 267 588 q 248 518 267 538 q 178 499 229 499 l 168 499 q 99 517 118 499 q 79 588 79 536 l 79 600 q 99 670 79 651 q 168 689 118 689 l 178 689 m 178 181 q 248 161 229 181 q 267 92 267 142 l 267 79 q 248 9 267 28 q 178 -10 229 -10 l 168 -10 q 99 9 118 -10 q 79 79 79 28 l 79 92 q 99 161 79 142 q 168 181 118 181 l 178 181 z "},";":{"ha":363,"x_min":63,"x_max":286,"o":"m 197 689 q 267 670 249 689 q 286 600 286 651 l 286 588 q 267 518 286 538 q 197 499 249 499 l 188 499 q 118 517 138 499 q 99 588 99 536 l 99 600 q 118 670 99 651 q 188 689 138 689 l 197 689 m 176 -126 q 157 -160 168 -150 q 122 -169 146 -169 l 93 -169 q 66 -163 72 -169 q 63 -137 60 -157 l 99 121 q 114 160 101 150 q 154 171 126 171 l 217 171 q 261 121 278 171 l 176 -126 z "},"<":{"ha":671,"x_min":40,"x_max":596,"o":"m 546 789 q 596 753 596 815 l 596 693 q 588 643 596 657 q 553 615 579 629 l 242 458 l 242 451 l 551 297 q 588 270 579 283 q 596 219 596 257 l 596 153 q 546 117 596 90 l 78 372 q 48 396 56 385 q 40 431 40 407 l 40 475 q 49 511 40 499 q 78 535 57 524 l 546 789 z "},"=":{"ha":817,"x_min":81,"x_max":736,"o":"m 689 669 q 726 658 715 669 q 736 621 736 647 l 736 560 q 726 523 736 533 q 689 513 715 513 l 128 513 q 90 523 100 513 q 81 560 81 533 l 81 621 q 91 659 81 649 q 128 669 101 669 l 689 669 m 689 394 q 726 384 715 394 q 736 347 736 374 l 736 286 q 726 249 736 260 q 689 239 715 239 l 128 239 q 90 249 100 239 q 81 286 81 258 l 81 347 q 90 385 81 375 q 128 394 100 394 l 689 394 z "},">":{"ha":671,"x_min":75,"x_max":631,"o":"m 75 754 q 86 794 75 786 q 125 789 97 803 l 592 535 q 622 511 614 522 q 631 476 631 500 l 631 432 q 622 397 631 408 q 592 372 614 385 l 125 118 q 86 113 97 104 q 75 154 75 122 l 75 214 q 83 263 75 250 q 118 290 92 276 l 429 447 l 429 456 l 119 610 q 83 637 92 624 q 75 688 75 650 l 75 754 z "},"?":{"ha":790,"x_min":43,"x_max":747,"o":"m 43 797 q 406 1026 132 1026 q 655 944 563 1026 q 747 739 747 863 q 740 660 747 696 q 717 594 733 624 q 687 545 700 565 q 647 504 674 525 q 606 474 619 483 q 560 446 592 464 q 519 422 528 428 q 454 369 476 396 q 432 301 432 342 q 422 266 432 275 q 388 257 413 257 l 332 257 q 297 266 307 257 q 288 301 288 275 q 322 440 288 390 q 421 533 357 490 q 448 550 424 535 q 477 569 472 565 q 501 587 482 572 q 526 608 521 601 q 545 631 532 615 q 563 660 558 647 q 571 692 567 674 q 575 732 575 711 q 530 835 575 796 q 401 874 485 874 q 274 841 321 874 q 199 743 228 808 q 176 711 188 717 q 139 714 164 706 l 72 738 q 43 797 25 753 m 367 181 q 436 161 417 181 q 456 92 456 142 l 456 79 q 436 9 456 28 q 367 -10 417 -10 l 356 -10 q 286 9 306 -10 q 267 79 267 28 l 267 92 q 286 161 267 142 q 356 181 306 181 l 367 181 z "},"@":{"ha":1253,"x_min":61,"x_max":1188,"o":"m 61 458 q 207 860 61 713 q 624 1007 353 1007 q 1041 859 894 1007 q 1188 458 1188 711 l 1188 354 q 1120 136 1188 215 q 950 57 1053 57 q 894 65 917 57 q 861 81 872 72 q 831 110 850 89 q 585 72 718 72 q 340 306 340 72 l 340 506 q 401 678 340 618 q 585 739 461 739 q 842 697 740 739 q 878 674 868 688 q 888 632 888 660 l 888 231 q 953 175 888 175 q 1030 217 999 175 q 1061 351 1061 258 l 1061 461 q 949 780 1061 665 q 624 894 838 894 q 299 780 413 894 q 186 461 186 665 l 186 351 q 299 38 186 147 q 624 -71 411 -71 q 925 -36 746 -71 q 949 -51 949 -32 l 949 -112 q 924 -149 949 -140 q 624 -183 768 -183 q 206 -42 351 -183 q 61 354 61 100 l 61 458 m 740 600 q 604 615 682 615 q 506 588 536 615 q 475 501 475 560 l 475 308 q 506 223 475 250 q 604 196 536 196 q 753 217 683 196 l 753 582 q 740 600 753 594 z "},"A":{"ha":914,"x_min":14,"x_max":899,"o":"m 899 46 q 867 0 915 0 l 794 0 q 734 8 751 0 q 708 42 717 17 l 644 221 l 261 221 l 196 42 q 170 8 188 17 q 110 0 153 0 l 46 0 q 14 46 -3 0 l 361 949 q 383 980 371 972 q 419 988 394 988 l 493 988 q 531 980 518 988 q 551 950 543 972 l 899 46 m 490 657 q 469 737 478 694 q 458 803 461 779 l 457 826 l 447 826 q 417 658 447 747 l 310 364 l 596 364 l 490 657 z "},"B":{"ha":903,"x_min":96,"x_max":850,"o":"m 529 986 q 739 919 664 986 q 814 726 814 851 q 708 517 814 579 l 708 511 q 850 271 850 461 q 764 72 850 143 q 538 0 678 0 l 144 0 q 107 10 118 0 q 96 47 96 21 l 96 939 q 107 976 96 965 q 144 986 118 986 l 529 986 m 508 579 q 636 701 636 579 q 508 824 636 824 l 271 824 l 271 579 l 508 579 m 665 290 q 533 421 665 421 l 271 421 l 271 163 l 533 163 q 665 290 665 163 z "},"C":{"ha":889,"x_min":68,"x_max":844,"o":"m 68 646 q 172 910 68 814 q 465 1007 275 1007 q 843 775 761 1007 q 814 714 860 731 l 738 688 q 700 685 713 679 q 678 717 688 692 q 465 844 632 844 q 301 794 358 844 q 243 647 243 743 l 243 340 q 301 193 243 244 q 465 142 358 142 q 678 271 631 142 q 701 303 689 297 q 739 300 714 310 l 814 274 q 844 213 860 257 q 465 -21 763 -21 q 172 76 275 -21 q 68 342 68 172 l 68 646 z "},"D":{"ha":925,"x_min":96,"x_max":858,"o":"m 456 986 q 753 888 647 986 q 858 619 858 790 l 858 367 q 753 98 858 196 q 456 0 647 0 l 144 0 q 107 10 118 0 q 96 47 96 21 l 96 939 q 107 976 96 965 q 144 986 118 986 l 456 986 m 685 621 q 626 772 685 719 q 457 824 567 824 l 271 824 l 271 163 l 457 163 q 626 215 567 163 q 685 365 685 267 l 685 621 z "},"E":{"ha":804,"x_min":96,"x_max":758,"o":"m 696 986 q 733 976 722 986 q 744 939 744 965 l 744 871 q 733 834 744 844 q 696 824 722 824 l 271 824 l 271 581 l 631 581 q 667 570 657 581 q 678 533 678 560 l 678 465 q 667 428 678 439 q 631 418 657 418 l 271 418 l 271 163 l 711 163 q 748 152 738 163 q 758 115 758 142 l 758 47 q 748 10 758 21 q 711 0 738 0 l 144 0 q 107 10 118 0 q 96 47 96 21 l 96 939 q 107 976 96 965 q 144 986 118 986 l 696 986 z "},"F":{"ha":783,"x_min":96,"x_max":744,"o":"m 696 986 q 733 976 722 986 q 744 939 744 965 l 744 871 q 733 834 744 844 q 696 824 722 824 l 271 824 l 271 568 l 628 568 q 665 558 654 568 q 676 521 676 547 l 676 453 q 666 416 676 426 q 628 406 656 406 l 271 406 l 271 47 q 260 10 271 21 q 224 0 250 0 l 144 0 q 107 10 118 0 q 96 47 96 21 l 96 939 q 107 976 96 965 q 144 986 118 986 l 696 986 z "},"G":{"ha":919,"x_min":68,"x_max":861,"o":"m 814 540 q 851 530 842 540 q 861 493 861 519 l 861 307 q 756 70 861 161 q 465 -21 651 -21 q 172 76 275 -21 q 68 342 68 172 l 68 646 q 172 910 68 814 q 465 1007 275 1007 q 843 775 761 1007 q 814 714 860 731 l 738 688 q 700 684 713 678 q 678 717 688 690 q 465 844 632 844 q 300 794 357 844 q 243 647 243 743 l 243 340 q 301 192 243 243 q 465 142 358 142 q 630 188 569 142 q 690 306 690 233 l 690 378 l 481 378 q 444 389 454 378 q 433 426 433 400 l 433 493 q 444 530 433 519 q 481 540 454 540 l 814 540 z "},"H":{"ha":953,"x_min":96,"x_max":857,"o":"m 808 986 q 846 976 835 986 q 857 939 857 965 l 857 47 q 846 10 857 21 q 808 0 835 0 l 729 0 q 692 10 703 0 q 682 47 682 21 l 682 418 l 271 418 l 271 47 q 260 10 271 21 q 224 0 250 0 l 144 0 q 107 10 118 0 q 96 47 96 21 l 96 939 q 107 976 96 965 q 144 986 118 986 l 224 986 q 260 976 250 986 q 271 939 271 965 l 271 581 l 682 581 l 682 939 q 692 976 682 965 q 729 986 703 986 l 808 986 z "},"I":{"ha":367,"x_min":96,"x_max":271,"o":"m 96 939 q 107 976 96 965 q 144 986 118 986 l 224 986 q 260 976 250 986 q 271 939 271 965 l 271 47 q 260 10 271 21 q 224 0 250 0 l 144 0 q 107 10 118 0 q 96 47 96 21 l 96 939 z "},"J":{"ha":801,"x_min":22,"x_max":713,"o":"m 667 986 q 702 976 692 986 q 713 940 713 965 l 713 325 q 622 71 713 163 q 358 -21 531 -21 q 22 211 97 -21 q 51 272 6 256 l 128 299 q 164 302 151 308 q 188 269 176 296 q 249 173 210 204 q 358 142 289 142 q 538 324 538 142 l 538 940 q 548 976 538 965 q 585 986 558 986 l 667 986 z "},"K":{"ha":871,"x_min":96,"x_max":846,"o":"m 846 47 q 822 0 871 0 l 742 0 q 678 8 696 0 q 647 42 660 15 l 507 324 q 445 401 478 381 q 342 421 413 421 l 271 421 l 271 47 q 260 10 271 21 q 224 0 250 0 l 144 0 q 107 10 118 0 q 96 47 96 21 l 96 939 q 107 976 96 965 q 144 986 118 986 l 224 986 q 260 976 250 986 q 271 939 271 965 l 271 579 l 326 579 l 344 579 l 624 947 q 659 979 642 972 q 718 986 676 986 l 807 986 q 837 972 831 986 q 829 940 843 958 l 519 544 q 669 386 608 506 l 846 47 z "},"L":{"ha":733,"x_min":96,"x_max":717,"o":"m 224 986 q 260 976 250 986 q 271 939 271 965 l 271 163 l 669 163 q 706 152 696 163 q 717 115 717 142 l 717 47 q 706 10 717 21 q 669 0 696 0 l 144 0 q 107 10 118 0 q 96 47 96 21 l 96 939 q 107 976 96 965 q 144 986 118 986 l 224 986 z "},"M":{"ha":1126,"x_min":96,"x_max":1029,"o":"m 982 986 q 1019 976 1008 986 q 1029 939 1029 965 l 1029 47 q 1019 10 1029 21 q 982 0 1008 0 l 911 0 q 874 10 885 0 q 864 47 864 21 l 864 471 q 897 747 864 596 l 888 747 q 774 493 847 626 l 638 253 q 583 219 617 219 l 539 219 q 506 226 517 219 q 485 253 496 232 l 346 494 q 239 747 282 603 l 229 747 q 258 469 258 606 l 258 47 q 248 10 258 21 q 211 0 238 0 l 144 0 q 107 10 118 0 q 96 47 96 21 l 96 939 q 107 976 96 965 q 144 986 118 986 l 206 986 q 248 979 235 986 q 272 950 261 972 l 561 433 l 850 949 q 874 979 863 972 q 914 986 886 986 l 982 986 z "},"N":{"ha":967,"x_min":96,"x_max":869,"o":"m 822 986 q 859 976 849 986 q 869 939 869 965 l 869 47 q 859 10 869 21 q 822 0 849 0 l 743 0 q 697 24 711 0 l 357 526 q 301 626 328 569 q 258 720 274 682 q 243 760 243 758 l 235 760 q 242 716 235 758 q 258 608 250 674 q 265 483 265 542 l 265 47 q 255 10 265 21 q 218 0 244 0 l 144 0 q 107 10 118 0 q 96 47 96 21 l 96 939 q 107 976 96 965 q 144 986 118 986 l 224 986 q 269 964 254 986 l 607 464 q 666 361 639 417 q 708 267 693 306 q 724 228 722 229 l 732 228 q 724 272 732 231 q 709 380 717 314 q 701 508 701 446 l 701 939 q 712 976 701 965 q 749 986 722 986 l 822 986 z "},"O":{"ha":929,"x_min":68,"x_max":861,"o":"m 68 644 q 172 910 68 814 q 465 1007 275 1007 q 758 910 654 1007 q 861 644 861 814 l 861 342 q 758 76 861 172 q 465 -21 654 -21 q 172 76 275 -21 q 68 342 68 172 l 68 644 m 688 646 q 630 793 688 742 q 465 844 572 844 q 301 794 358 844 q 243 646 243 743 l 243 340 q 301 192 243 243 q 465 142 358 142 q 630 193 572 142 q 688 340 688 244 l 688 646 z "},"P":{"ha":878,"x_min":96,"x_max":840,"o":"m 513 986 q 752 900 664 986 q 840 664 840 814 q 752 428 840 514 q 513 343 664 343 l 271 343 l 271 47 q 260 10 271 21 q 224 0 250 0 l 144 0 q 107 10 118 0 q 96 47 96 21 l 96 939 q 107 976 96 965 q 144 986 118 986 l 513 986 m 496 506 q 615 547 572 506 q 657 664 657 589 q 615 781 657 739 q 496 824 572 824 l 271 824 l 271 506 l 496 506 z "},"Q":{"ha":949,"x_min":68,"x_max":890,"o":"m 875 15 q 890 -20 892 -6 q 869 -53 889 -35 l 817 -96 q 750 -90 781 -126 l 660 17 q 465 -21 581 -21 q 172 76 275 -21 q 68 342 68 172 l 68 644 q 172 910 68 814 q 465 1007 275 1007 q 758 910 654 1007 q 861 644 861 814 l 861 342 q 792 113 861 203 l 875 15 m 243 340 q 301 192 243 243 q 465 142 358 142 q 630 193 572 142 q 688 340 688 244 l 688 646 q 630 793 688 742 q 465 844 572 844 q 301 794 358 844 q 243 646 243 743 l 243 340 z "},"R":{"ha":904,"x_min":96,"x_max":854,"o":"m 528 986 q 757 905 674 986 q 840 681 840 824 q 792 501 840 574 q 657 400 744 429 q 701 340 682 379 l 854 47 q 831 0 879 0 l 750 0 q 686 8 704 0 q 656 42 668 15 l 539 278 q 478 356 511 336 q 374 375 444 375 l 271 375 l 271 47 q 260 10 271 21 q 224 0 250 0 l 144 0 q 107 10 118 0 q 96 47 96 21 l 96 939 q 107 976 96 965 q 144 986 118 986 l 528 986 m 619 574 q 638 593 619 574 q 657 681 657 611 q 619 787 657 750 q 511 824 582 824 l 271 824 l 271 538 l 511 538 q 619 574 581 538 z "},"S":{"ha":879,"x_min":51,"x_max":832,"o":"m 60 703 q 159 923 60 839 q 440 1007 258 1007 q 669 956 585 1007 q 806 797 754 904 q 779 733 826 754 l 703 700 q 667 695 679 690 q 643 724 656 700 q 567 811 614 782 q 440 840 519 840 q 239 713 239 840 q 257 652 239 676 q 313 614 275 628 q 386 594 351 600 q 479 581 421 588 q 580 565 538 574 q 673 537 622 557 q 756 488 724 517 q 810 408 788 458 q 832 290 832 357 q 728 64 832 149 q 436 -21 624 -21 q 189 37 279 -21 q 54 211 99 94 q 51 251 44 238 q 83 272 58 264 l 160 300 q 196 302 183 308 q 219 271 208 296 q 436 142 274 142 q 657 286 657 142 q 624 360 657 332 q 549 398 590 388 q 438 415 507 408 q 362 424 390 421 q 289 438 333 428 q 217 460 244 447 q 156 494 189 472 q 104 543 122 515 q 73 612 86 571 q 60 703 60 653 z "},"T":{"ha":786,"x_min":19,"x_max":767,"o":"m 719 986 q 756 976 746 986 q 767 939 767 965 l 767 871 q 756 834 767 844 q 719 824 746 824 l 481 824 l 481 47 q 470 10 481 21 q 433 0 460 0 l 353 0 q 316 10 326 0 q 306 47 306 21 l 306 824 l 67 824 q 30 834 40 824 q 19 871 19 844 l 19 939 q 30 976 19 965 q 67 986 40 986 l 719 986 z "},"U":{"ha":956,"x_min":89,"x_max":865,"o":"m 264 338 q 318 192 264 243 q 478 142 372 142 q 638 192 583 142 q 692 338 692 243 l 692 939 q 702 976 692 965 q 739 986 713 986 l 818 986 q 855 976 844 986 q 865 939 865 965 l 865 339 q 765 76 865 172 q 478 -21 665 -21 q 190 76 290 -21 q 89 339 89 172 l 89 939 q 99 976 89 965 q 136 986 110 986 l 217 986 q 253 976 243 986 q 264 939 264 965 l 264 338 z "},"V":{"ha":889,"x_min":17,"x_max":872,"o":"m 842 986 q 872 940 892 986 l 540 39 q 519 8 531 15 q 482 0 507 0 l 408 0 q 370 8 383 0 q 350 38 357 15 l 17 940 q 47 986 0 986 l 118 986 q 178 978 161 986 q 204 944 196 969 l 407 353 q 419 313 413 335 q 429 274 425 292 q 436 240 433 256 q 441 216 439 225 q 443 206 443 207 l 451 206 q 457 229 453 207 q 469 288 461 251 q 488 351 478 324 l 689 944 q 715 978 697 969 q 775 986 732 986 l 842 986 z "},"W":{"ha":1251,"x_min":29,"x_max":1222,"o":"m 1192 986 q 1222 975 1215 986 q 1222 940 1229 964 l 993 39 q 974 8 988 15 q 935 0 961 0 l 858 0 q 800 38 808 0 l 654 589 q 632 746 633 669 l 622 746 q 599 590 621 672 l 451 39 q 433 8 446 15 q 393 0 419 0 l 318 0 q 278 8 292 0 q 258 38 264 15 l 31 940 q 30 975 24 964 q 61 986 36 986 l 158 986 q 202 978 189 986 q 221 944 215 969 l 335 426 q 357 240 339 408 l 365 240 q 393 426 369 336 l 533 940 q 554 974 540 965 q 596 982 568 982 l 671 982 q 714 974 700 982 q 733 940 728 965 l 871 426 q 900 240 896 331 l 908 240 q 933 425 914 331 l 1044 944 q 1063 978 1050 969 q 1107 986 1076 986 l 1192 986 z "},"X":{"ha":886,"x_min":18,"x_max":871,"o":"m 861 49 q 870 15 876 31 q 839 0 864 0 l 742 0 q 682 7 699 0 q 649 42 665 14 l 436 368 l 232 42 q 197 7 213 14 q 140 0 182 0 l 50 0 q 18 15 24 0 q 26 49 13 29 l 332 503 l 38 942 q 30 972 24 958 q 61 986 36 986 l 154 986 q 211 979 196 986 q 246 947 226 972 l 444 640 l 643 947 q 677 979 663 972 q 731 986 692 986 l 826 986 q 856 972 850 986 q 849 942 863 958 l 551 504 l 861 49 z "},"Y":{"ha":893,"x_min":13,"x_max":879,"o":"m 849 986 q 879 972 874 986 q 872 939 885 958 l 533 389 l 533 47 q 523 10 533 21 q 486 0 513 0 l 407 0 q 370 10 381 0 q 360 47 360 21 l 360 392 l 19 939 q 13 972 7 958 q 44 986 19 986 l 142 986 q 202 980 186 986 q 233 944 218 974 l 449 569 l 665 944 q 697 980 681 974 q 758 986 714 986 l 849 986 z "},"Z":{"ha":817,"x_min":47,"x_max":769,"o":"m 714 986 q 751 976 740 986 q 761 939 761 965 l 761 872 q 746 822 761 842 l 265 163 l 722 163 q 760 152 750 163 q 769 115 769 142 l 769 47 q 759 10 769 21 q 722 0 749 0 l 94 0 q 58 10 68 0 q 47 47 47 21 l 47 115 q 64 164 47 142 l 543 824 l 101 824 q 65 834 75 824 q 54 871 54 844 l 54 939 q 65 976 54 965 q 101 986 75 986 l 714 986 z "},"[":{"ha":421,"x_min":86,"x_max":390,"o":"m 349 1189 q 383 1182 375 1189 q 390 1147 390 1175 l 390 1086 q 383 1053 390 1060 q 349 1046 375 1046 l 239 1046 l 239 -58 l 349 -58 q 383 -65 375 -58 q 390 -100 390 -72 l 390 -161 q 383 -196 390 -189 q 349 -203 375 -203 l 129 -203 q 94 -194 103 -203 q 86 -160 86 -186 l 86 1146 q 94 1181 86 1172 q 129 1189 103 1189 l 349 1189 z "},"\\":{"ha":611,"x_min":36,"x_max":575,"o":"m 39 947 q 37 976 31 967 q 67 986 43 986 l 146 986 q 181 978 169 986 q 203 947 193 969 l 572 -44 q 574 -74 581 -64 q 544 -83 568 -83 l 465 -83 q 429 -75 442 -83 q 408 -44 417 -67 l 39 947 z "},"]":{"ha":421,"x_min":31,"x_max":333,"o":"m 292 1189 q 326 1181 318 1189 q 333 1146 333 1172 l 333 -160 q 326 -194 333 -186 q 292 -203 318 -203 l 72 -203 q 38 -196 44 -203 q 31 -161 31 -189 l 31 -100 q 38 -65 31 -72 q 72 -58 44 -58 l 181 -58 l 181 1046 l 72 1046 q 38 1053 46 1046 q 31 1086 31 1060 l 31 1147 q 38 1182 31 1175 q 72 1189 44 1189 l 292 1189 z "},"^":{"ha":817,"x_min":68,"x_max":749,"o":"m 431 1125 q 442 1124 438 1125 q 452 1122 447 1124 q 460 1118 457 1119 q 467 1113 463 1117 q 474 1106 472 1108 q 481 1097 475 1104 q 489 1088 486 1090 l 749 772 q 724 722 788 722 l 654 722 q 603 728 617 722 q 569 760 590 735 l 408 964 l 401 964 l 242 760 q 207 728 221 735 q 156 722 193 722 l 92 722 q 68 772 26 722 l 325 1088 q 385 1125 356 1125 l 431 1125 z "},"_":{"ha":689,"x_min":31,"x_max":658,"o":"m 611 0 q 648 -10 638 0 q 658 -47 658 -21 l 658 -108 q 648 -145 658 -135 q 611 -156 638 -156 l 78 -156 q 41 -145 51 -156 q 31 -108 31 -135 l 31 -47 q 41 -10 31 -21 q 78 0 51 0 l 611 0 z "},"`":{"ha":357,"x_min":14,"x_max":363,"o":"m 64 1011 q 142 1014 89 1043 l 346 892 q 363 873 363 882 q 349 846 363 864 l 329 821 q 275 818 315 803 l 33 919 q 15 932 19 925 q 14 947 11 939 q 28 968 17 956 l 64 1011 z "},"a":{"ha":721,"x_min":43,"x_max":653,"o":"m 68 596 q 356 740 143 740 q 653 454 653 740 l 653 94 q 642 43 653 58 q 603 15 632 28 q 353 -21 519 -21 q 110 34 176 -21 q 43 204 43 89 q 116 378 43 328 q 358 428 189 428 q 492 421 374 428 l 492 460 q 460 563 492 528 q 353 597 428 597 q 207 531 250 597 q 181 505 192 508 q 147 510 171 501 l 92 533 q 68 596 46 554 m 492 289 q 340 296 346 296 q 236 274 265 296 q 207 206 207 251 q 234 135 207 158 q 338 113 261 113 q 476 124 426 113 q 492 143 492 129 l 492 289 z "},"b":{"ha":753,"x_min":78,"x_max":694,"o":"m 197 1028 q 230 1018 221 1028 q 239 985 239 1008 l 239 717 q 406 740 340 740 q 694 461 694 740 l 694 274 q 381 -21 694 -21 q 129 24 233 -21 q 87 53 96 39 q 78 100 78 67 l 78 985 q 88 1018 78 1008 q 121 1028 97 1028 l 197 1028 m 533 457 q 494 558 533 522 q 382 593 456 593 q 239 568 314 593 l 239 158 q 250 143 239 147 q 369 126 299 126 q 533 278 533 126 l 533 457 z "},"c":{"ha":718,"x_min":57,"x_max":675,"o":"m 57 456 q 137 666 57 592 q 376 740 217 740 q 570 690 494 740 q 674 558 646 640 q 675 519 682 532 q 643 496 668 506 l 582 476 q 544 474 557 467 q 521 506 531 481 q 369 599 485 599 q 218 463 218 599 l 218 257 q 257 156 218 192 q 369 121 296 121 q 521 217 485 121 q 544 247 531 242 q 582 244 557 253 l 644 226 q 674 164 692 208 q 364 -21 601 -21 q 133 53 210 -21 q 57 264 57 128 l 57 456 z "},"d":{"ha":753,"x_min":58,"x_max":675,"o":"m 58 450 q 131 666 58 592 q 349 740 204 740 q 514 722 413 740 l 514 985 q 523 1018 514 1008 q 556 1028 532 1028 l 632 1028 q 665 1018 656 1028 q 675 985 675 1008 l 675 100 q 664 52 675 67 q 619 24 653 38 q 360 -21 501 -21 q 58 260 58 -21 l 58 450 m 514 575 q 379 593 431 593 q 219 446 219 593 l 219 265 q 375 126 219 126 q 503 142 449 126 q 514 157 514 146 l 514 575 z "},"e":{"ha":746,"x_min":56,"x_max":699,"o":"m 56 440 q 138 663 56 586 q 378 740 221 740 q 617 660 536 740 q 699 453 699 579 l 699 368 q 636 308 699 308 l 217 308 l 217 257 q 258 153 217 189 q 375 118 299 118 q 539 192 492 118 q 570 219 556 215 q 610 208 585 222 l 658 182 q 675 113 706 160 q 375 -21 593 -21 q 134 60 213 -21 q 56 276 56 140 l 56 440 m 538 463 q 497 567 538 531 q 378 604 457 604 q 258 567 300 604 q 217 463 217 531 l 217 432 l 538 432 l 538 463 z "},"f":{"ha":514,"x_min":17,"x_max":504,"o":"m 460 1028 q 494 1018 485 1028 q 504 983 504 1008 l 504 922 q 494 888 504 897 q 460 878 485 878 q 338 845 372 878 q 303 733 303 813 l 303 719 l 463 719 q 495 710 486 719 q 504 678 504 701 l 504 614 q 495 581 504 590 q 463 571 486 571 l 303 571 l 303 43 q 294 10 303 19 q 260 0 285 0 l 186 0 q 151 10 161 0 q 142 43 142 19 l 142 571 l 58 571 q 26 581 35 571 q 17 614 17 590 l 17 678 q 26 710 17 701 q 58 719 35 719 l 142 719 l 142 733 q 447 1028 142 1022 l 460 1028 z "},"g":{"ha":751,"x_min":57,"x_max":674,"o":"m 57 449 q 371 740 57 740 q 622 697 528 740 q 665 668 656 682 q 674 621 674 654 l 674 -24 q 599 -247 674 -167 q 368 -326 525 -326 q 81 -193 160 -326 q 97 -124 50 -149 l 150 -94 q 190 -85 175 -82 q 221 -111 204 -89 q 365 -182 265 -182 q 513 -32 513 -182 l 513 38 q 346 13 419 13 q 128 85 200 13 q 57 292 57 157 l 57 449 m 500 578 q 382 593 444 593 q 218 443 218 593 l 218 296 q 257 195 218 231 q 369 160 296 160 q 513 179 432 160 l 513 561 q 500 578 513 572 z "},"h":{"ha":771,"x_min":81,"x_max":697,"o":"m 200 1028 q 233 1018 224 1028 q 242 985 242 1008 l 242 721 q 303 733 253 726 q 408 740 353 740 q 697 461 697 740 l 697 43 q 688 10 697 19 q 654 0 678 0 l 579 0 q 546 10 556 0 q 536 43 536 19 l 536 457 q 385 593 536 593 q 242 572 283 593 l 242 43 q 233 10 242 19 q 200 0 224 0 l 124 0 q 90 10 100 0 q 81 43 81 19 l 81 985 q 90 1018 81 1008 q 124 1028 100 1028 l 200 1028 z "},"i":{"ha":321,"x_min":71,"x_max":250,"o":"m 165 989 q 232 971 214 989 q 250 906 250 953 l 250 893 q 232 826 250 844 q 165 808 214 808 l 156 808 q 90 826 108 808 q 71 893 71 844 l 71 906 q 89 971 71 953 q 156 989 107 989 l 165 989 m 199 719 q 232 710 222 719 q 242 678 242 701 l 242 43 q 232 10 242 19 q 199 0 222 0 l 122 0 q 90 10 99 0 q 81 43 81 19 l 81 678 q 90 710 81 701 q 122 719 99 719 l 199 719 z "},"j":{"ha":324,"x_min":-119,"x_max":251,"o":"m 167 989 q 233 971 215 989 q 251 906 251 953 l 251 893 q 233 826 251 844 q 167 808 214 808 l 157 808 q 90 826 108 808 q 72 893 72 844 l 72 906 q 90 971 72 953 q 157 989 108 989 l 167 989 m 199 719 q 233 710 224 719 q 242 678 242 701 l 242 -10 q -75 -319 242 -319 q -110 -310 -100 -319 q -119 -275 -119 -300 l -119 -214 q -110 -179 -119 -189 q -75 -169 -100 -169 q 44 -128 8 -169 q 81 -6 81 -86 l 81 678 q 90 710 81 701 q 125 719 100 719 l 199 719 z "},"k":{"ha":726,"x_min":81,"x_max":703,"o":"m 693 51 q 703 12 708 24 q 667 0 697 0 l 596 0 q 547 7 560 0 q 522 39 533 14 l 436 224 q 325 292 406 292 l 242 292 l 242 44 q 233 10 242 19 q 197 0 224 0 l 126 0 q 90 10 100 0 q 81 44 81 19 l 81 983 q 90 1018 81 1008 q 126 1028 100 1028 l 197 1028 q 233 1018 224 1028 q 242 983 242 1008 l 242 442 l 304 442 l 314 442 l 503 688 q 533 715 518 710 q 586 719 547 719 l 654 719 q 682 669 721 719 l 472 410 q 572 294 531 381 l 693 51 z "},"l":{"ha":331,"x_min":85,"x_max":246,"o":"m 246 43 q 236 10 246 19 q 203 0 226 0 l 128 0 q 94 10 103 0 q 85 43 85 19 l 85 985 q 94 1018 85 1008 q 128 1028 103 1028 l 203 1028 q 236 1018 226 1028 q 246 985 246 1008 l 246 43 z "},"m":{"ha":1149,"x_min":78,"x_max":1074,"o":"m 557 694 q 801 740 672 740 q 1074 464 1074 740 l 1074 43 q 1065 10 1074 19 q 1032 0 1056 0 l 956 0 q 922 10 932 0 q 913 43 913 19 l 913 458 q 778 593 913 593 q 643 568 715 593 q 658 464 658 528 l 658 43 q 649 10 658 19 q 615 0 639 0 l 540 0 q 507 10 517 0 q 497 43 497 19 l 497 458 q 361 593 497 593 q 250 576 303 593 q 239 560 239 572 l 239 43 q 230 10 239 19 q 197 0 221 0 l 121 0 q 88 10 97 0 q 78 43 78 19 l 78 614 q 89 663 78 647 q 132 693 100 679 q 385 740 247 740 q 557 694 494 740 z "},"n":{"ha":768,"x_min":78,"x_max":694,"o":"m 132 693 q 406 740 250 740 q 623 668 551 740 q 694 461 694 596 l 694 43 q 685 10 694 19 q 651 0 675 0 l 575 0 q 542 10 551 0 q 533 43 533 19 l 533 457 q 382 593 533 593 q 249 575 315 593 q 239 561 239 571 l 239 43 q 230 10 239 19 q 197 0 221 0 l 121 0 q 88 10 97 0 q 78 43 78 19 l 78 614 q 88 663 78 647 q 132 693 99 679 z "},"o":{"ha":754,"x_min":57,"x_max":697,"o":"m 57 463 q 140 667 57 593 q 376 740 224 740 q 614 667 531 740 q 697 463 697 593 l 697 257 q 614 53 697 126 q 376 -21 531 -21 q 140 53 224 -21 q 57 257 57 126 l 57 463 m 536 463 q 494 560 536 526 q 376 594 453 594 q 259 560 300 594 q 218 463 218 526 l 218 257 q 259 160 218 194 q 376 125 300 125 q 494 160 453 125 q 536 257 536 194 l 536 463 z "},"p":{"ha":753,"x_min":78,"x_max":694,"o":"m 132 700 q 401 740 242 740 q 622 668 549 740 q 694 460 694 596 l 694 269 q 385 -21 694 -21 q 239 4 335 -21 l 239 -262 q 230 -296 239 -286 q 197 -306 221 -306 l 121 -306 q 88 -296 97 -306 q 78 -262 78 -286 l 78 621 q 88 670 78 654 q 132 700 99 686 m 533 456 q 378 593 533 593 q 253 578 307 593 q 239 560 239 572 l 239 147 q 374 126 319 126 q 533 275 533 126 l 533 456 z "},"q":{"ha":753,"x_min":58,"x_max":675,"o":"m 372 740 q 624 697 529 740 q 666 668 657 682 q 675 621 675 654 l 675 -262 q 665 -296 675 -286 q 632 -306 656 -306 l 556 -306 q 523 -296 532 -306 q 514 -262 514 -286 l 514 6 q 347 -21 415 -21 q 130 51 201 -21 q 58 258 58 124 l 58 449 q 372 740 58 740 m 219 263 q 258 162 219 197 q 371 126 297 126 q 514 147 428 126 l 514 560 q 499 578 514 572 q 383 593 446 593 q 219 443 219 593 l 219 263 z "},"r":{"ha":489,"x_min":78,"x_max":478,"o":"m 390 740 l 435 740 q 468 731 458 740 q 478 697 478 722 l 478 636 q 468 603 478 613 q 435 593 458 593 l 385 593 q 253 576 307 593 q 239 560 239 574 l 239 43 q 230 10 239 19 q 197 0 221 0 l 121 0 q 88 10 97 0 q 78 43 78 19 l 78 619 q 88 669 78 653 q 132 699 99 685 q 390 740 233 736 z "},"s":{"ha":700,"x_min":49,"x_max":658,"o":"m 53 517 q 126 680 53 619 q 339 740 199 740 q 636 592 563 740 q 614 529 658 550 l 551 504 q 517 498 528 494 q 493 524 507 501 q 343 596 453 596 q 213 521 213 596 q 249 459 213 475 q 375 435 285 443 q 588 374 517 421 q 658 211 658 328 q 581 42 658 106 q 358 -21 503 -21 q 49 147 114 -21 q 76 206 32 190 l 139 225 q 173 228 160 233 q 196 199 186 222 q 353 122 228 122 q 500 204 500 122 q 463 267 500 250 q 333 293 426 283 q 251 305 285 299 q 176 326 217 311 q 111 364 136 342 q 69 425 86 386 q 53 517 53 464 z "},"t":{"ha":540,"x_min":13,"x_max":513,"o":"m 268 886 q 301 877 292 886 q 311 844 311 868 l 311 719 l 469 719 q 503 710 493 719 q 513 678 513 701 l 513 614 q 503 581 513 590 q 469 571 493 571 l 311 571 l 311 292 q 344 163 311 193 q 468 132 376 132 q 503 123 493 132 q 513 89 513 114 l 513 25 q 503 -9 513 0 q 468 -19 493 -18 q 222 42 293 -25 q 150 286 150 108 l 150 571 l 54 571 q 22 581 31 571 q 13 614 13 590 l 13 678 q 22 710 13 701 q 54 719 31 719 l 150 719 l 150 844 q 160 877 150 868 q 193 886 169 886 l 268 886 z "},"u":{"ha":768,"x_min":74,"x_max":690,"o":"m 647 719 q 681 710 671 719 q 690 678 690 701 l 690 106 q 680 57 690 72 q 636 28 669 42 q 364 -21 514 -21 q 146 51 218 -21 q 74 258 74 124 l 74 678 q 83 710 74 701 q 117 719 93 719 l 193 719 q 226 710 217 719 q 235 678 235 701 l 235 264 q 386 126 235 126 q 514 143 458 126 q 529 167 529 149 l 529 678 q 539 710 529 701 q 572 719 549 719 l 647 719 z "},"v":{"ha":715,"x_min":17,"x_max":700,"o":"m 660 719 q 699 710 692 719 q 696 671 707 700 l 439 38 q 381 -1 424 -1 l 335 -1 q 276 38 290 -1 l 21 669 q 17 710 10 700 q 56 719 24 719 l 110 719 q 163 711 149 719 q 186 676 178 703 l 315 343 q 328 303 322 325 q 340 264 335 282 q 347 231 344 246 q 353 206 350 215 l 354 194 l 361 194 q 367 219 363 196 q 380 277 371 242 q 399 342 389 313 l 526 676 q 551 711 538 703 q 604 719 565 719 l 660 719 z "},"w":{"ha":1021,"x_min":28,"x_max":992,"o":"m 954 719 q 992 710 985 719 q 990 669 999 700 l 804 38 q 746 -1 793 -1 l 699 -1 q 639 38 651 -1 l 538 393 q 524 456 529 422 q 515 514 518 490 l 513 536 l 506 536 l 503 514 q 494 456 500 490 q 479 393 488 422 l 378 38 q 319 -1 367 -1 l 274 -1 q 215 38 226 -1 l 31 669 q 28 710 21 700 q 65 719 35 719 l 119 719 q 175 711 160 719 q 196 676 190 703 l 275 365 q 286 298 281 339 q 294 228 292 257 q 299 196 297 199 l 306 196 q 308 217 306 197 q 314 260 311 236 q 323 314 317 283 q 335 367 329 344 l 426 671 q 447 708 435 700 q 497 715 460 715 l 529 715 q 579 708 567 715 q 600 672 592 700 l 693 367 q 706 311 700 342 q 715 258 713 281 q 720 216 718 235 q 722 196 722 197 l 731 196 l 733 222 q 740 291 735 250 q 754 367 746 332 l 831 676 q 852 711 836 703 q 908 719 868 719 l 954 719 z "},"x":{"ha":706,"x_min":19,"x_max":675,"o":"m 632 719 q 661 669 694 719 l 453 371 l 675 50 q 644 0 711 0 l 578 0 q 529 6 543 0 q 500 36 515 13 l 350 254 l 207 36 q 178 6 192 13 q 129 0 164 0 l 64 0 q 19 13 26 0 q 32 50 13 25 l 254 369 l 42 669 q 75 719 6 719 l 138 719 q 188 713 174 719 q 217 683 203 706 l 354 488 l 489 683 q 517 713 504 707 q 564 719 529 719 l 632 719 z "},"y":{"ha":771,"x_min":74,"x_max":690,"o":"m 647 719 q 681 710 671 719 q 690 678 690 701 l 690 -24 q 616 -247 690 -167 q 385 -326 542 -326 q 96 -193 178 -326 q 114 -124 67 -147 l 167 -94 q 206 -85 192 -82 q 236 -111 221 -89 q 382 -182 281 -182 q 529 -32 529 -182 l 529 33 q 364 14 443 14 q 146 86 218 14 q 74 293 74 158 l 74 678 q 83 710 74 701 q 117 719 93 719 l 193 719 q 226 710 217 719 q 235 678 235 701 l 235 299 q 386 161 235 161 q 529 181 454 161 l 529 678 q 539 710 529 701 q 572 719 549 719 l 647 719 z "},"z":{"ha":654,"x_min":42,"x_max":613,"o":"m 571 146 q 603 136 594 146 q 613 103 613 126 l 613 43 q 603 10 613 19 q 571 0 594 0 l 85 0 q 51 10 61 0 q 42 43 42 19 l 42 103 q 57 146 42 129 l 397 574 l 92 574 q 58 583 68 574 q 49 617 49 593 l 49 678 q 58 710 49 701 q 92 719 68 719 l 564 719 q 597 710 588 719 q 606 678 606 701 l 606 617 q 590 571 606 589 l 247 146 l 571 146 z "},"{":{"ha":483,"x_min":14,"x_max":457,"o":"m 414 1189 q 447 1179 438 1189 q 457 1146 457 1169 l 457 1086 q 447 1053 457 1063 q 414 1043 438 1043 l 349 1043 q 303 994 303 1043 l 303 665 q 204 489 303 547 q 303 314 303 450 l 303 -10 q 349 -58 303 -58 l 414 -58 q 447 -68 438 -58 q 457 -101 457 -78 l 457 -161 q 447 -194 457 -185 q 414 -204 438 -204 l 344 -204 q 194 -161 238 -204 q 150 -19 150 -118 l 150 290 q 58 407 150 407 l 49 407 q 22 417 29 407 q 14 450 14 426 l 14 529 q 47 571 14 571 l 58 571 q 150 688 150 571 l 150 1003 q 194 1144 150 1100 q 343 1189 238 1189 l 414 1189 z "},"|":{"ha":326,"x_min":86,"x_max":240,"o":"m 197 1189 q 231 1179 221 1189 q 240 1146 240 1169 l 240 -161 q 231 -194 240 -185 q 197 -204 221 -204 l 129 -204 q 96 -194 106 -204 q 86 -161 86 -185 l 86 1146 q 96 1179 86 1169 q 129 1189 106 1189 l 197 1189 z "},"}":{"ha":483,"x_min":28,"x_max":471,"o":"m 142 1189 q 290 1144 246 1189 q 333 1003 333 1100 l 333 688 q 425 571 333 571 l 436 571 q 471 529 471 571 l 471 450 q 435 407 471 407 l 425 407 q 333 290 333 407 l 333 -19 q 290 -161 333 -118 q 139 -204 246 -204 l 69 -204 q 37 -194 46 -204 q 28 -161 28 -185 l 28 -101 q 37 -68 28 -78 q 69 -58 46 -58 l 135 -58 q 182 -10 182 -58 l 182 314 q 279 489 182 451 q 182 665 182 546 l 182 994 q 135 1043 182 1043 l 69 1043 q 37 1053 46 1043 q 28 1086 28 1063 l 28 1146 q 37 1179 28 1169 q 69 1189 46 1189 l 142 1189 z "},"~":{"ha":772,"x_min":93,"x_max":679,"o":"m 93 482 q 264 549 167 549 q 389 525 322 549 q 489 501 456 501 q 574 533 535 501 q 606 549 594 550 q 636 531 618 549 l 679 490 q 679 424 715 454 q 508 356 604 356 q 383 380 450 356 q 283 404 317 404 q 199 372 238 404 q 167 355 178 354 q 138 374 156 356 l 93 415 q 93 482 56 450 z "},"¡":{"ha":322,"x_min":67,"x_max":254,"o":"m 156 539 q 86 558 106 539 q 67 628 67 578 l 67 640 q 86 710 67 692 q 156 729 106 729 l 165 729 q 235 710 217 729 q 254 640 254 692 l 254 628 q 235 558 254 578 q 165 539 217 539 l 156 539 m 121 -308 q 88 -299 97 -308 q 79 -267 78 -290 l 97 393 q 106 426 97 417 q 139 436 115 436 l 183 436 q 216 426 207 436 q 226 393 225 417 l 244 -267 q 236 -299 246 -290 q 203 -308 226 -308 l 121 -308 z "},"¢":{"ha":744,"x_min":67,"x_max":685,"o":"m 654 226 q 685 164 703 207 q 463 -12 626 18 l 463 -74 q 453 -107 463 -97 q 421 -117 444 -117 l 344 -117 q 311 -107 321 -117 q 301 -74 301 -97 l 301 -15 q 67 264 67 18 l 67 456 q 126 643 67 571 q 301 733 185 715 l 301 804 q 311 838 301 828 q 344 847 321 847 l 421 847 q 453 838 444 847 q 463 804 463 828 l 463 733 q 683 558 635 706 q 685 519 692 532 q 654 496 678 506 l 592 476 q 553 474 567 467 q 531 506 540 481 q 381 599 494 599 q 228 463 228 599 l 228 257 q 267 156 228 192 q 381 121 306 121 q 531 217 494 121 q 553 247 540 242 q 593 244 567 253 l 654 226 z "},"£":{"ha":897,"x_min":57,"x_max":839,"o":"m 171 715 q 257 922 171 838 q 493 1007 343 1007 q 836 796 753 1007 q 839 758 846 771 q 807 735 832 744 l 731 708 q 694 706 706 700 q 671 738 683 711 q 603 819 643 794 q 500 844 564 844 q 392 806 432 844 q 353 708 353 767 l 353 544 l 657 544 q 694 534 683 544 q 704 497 704 524 l 704 442 q 694 404 704 415 q 657 393 683 393 l 353 393 l 353 297 q 283 153 353 199 l 283 144 q 499 163 388 163 l 782 163 q 819 152 808 163 q 829 115 829 142 l 829 47 q 819 10 829 21 q 782 0 808 0 l 103 0 q 67 10 76 0 q 57 47 57 21 l 57 117 q 83 156 57 156 l 93 156 q 171 296 171 178 l 171 393 l 108 393 q 72 404 82 393 q 61 442 61 415 l 61 497 q 72 534 61 524 q 108 544 82 544 l 171 544 l 171 715 z "},"¤":{"ha":851,"x_min":69,"x_max":765,"o":"m 765 243 q 765 182 796 213 l 711 129 q 681 113 694 113 q 651 129 668 113 l 583 197 q 426 153 514 153 q 268 196 342 153 l 200 128 q 140 128 169 97 l 86 182 q 86 242 56 211 l 156 311 q 111 468 111 385 q 156 624 111 553 l 86 693 q 69 723 69 710 q 86 754 69 736 l 139 807 q 170 824 157 824 q 200 807 183 824 l 268 739 q 426 783 343 783 q 582 739 514 783 l 650 807 q 681 824 668 824 q 711 807 694 824 l 764 754 q 764 693 796 725 l 697 626 q 742 468 742 557 q 699 310 742 381 l 765 243 m 426 638 q 306 589 356 638 q 256 468 257 540 q 306 347 257 397 q 426 297 356 297 q 548 347 499 297 q 597 468 597 397 q 548 589 597 540 q 426 638 499 638 z "},"¥":{"ha":911,"x_min":36,"x_max":875,"o":"m 844 986 q 874 972 868 986 q 868 939 881 958 l 604 515 l 713 515 q 745 506 736 515 q 754 474 754 497 l 754 432 q 745 399 754 408 q 713 390 736 390 l 542 390 l 542 310 l 713 310 q 745 301 736 310 q 754 268 754 292 l 754 226 q 745 194 754 203 q 713 185 736 185 l 543 185 l 543 47 q 532 10 543 21 q 494 0 521 0 l 415 0 q 378 10 389 0 q 368 47 368 21 l 368 185 l 197 185 q 165 194 174 185 q 156 226 156 203 l 156 268 q 165 301 156 292 q 197 310 175 310 l 368 310 l 368 390 l 197 390 q 165 399 175 390 q 156 432 156 408 l 156 474 q 165 506 156 497 q 197 515 175 515 l 307 515 l 43 939 q 37 972 31 958 q 67 986 43 986 l 153 986 q 213 980 197 986 q 244 944 229 974 l 460 574 l 674 944 q 705 980 689 974 q 765 986 721 986 l 844 986 z "},"¦":{"ha":338,"x_min":92,"x_max":246,"o":"m 203 1189 q 236 1179 226 1189 q 246 1146 246 1169 l 246 642 q 236 608 246 618 q 203 599 226 599 l 135 599 q 101 608 111 599 q 92 642 92 618 l 92 1146 q 101 1179 92 1169 q 135 1189 111 1189 l 203 1189 m 203 388 q 236 378 226 388 q 246 344 246 368 l 246 -160 q 236 -193 246 -183 q 203 -203 226 -203 l 135 -203 q 101 -193 111 -203 q 92 -160 92 -183 l 92 344 q 101 378 92 368 q 135 388 111 388 l 203 388 z "},"§":{"ha":843,"x_min":65,"x_max":778,"o":"m 81 728 q 169 931 81 854 q 425 1008 257 1008 q 758 807 668 1008 q 765 767 771 782 q 731 739 758 751 l 663 708 q 625 703 639 697 q 597 733 611 708 q 425 843 549 843 q 258 728 258 843 q 286 667 258 690 q 346 637 314 644 q 439 621 378 629 q 644 571 588 597 q 769 363 769 511 q 678 181 769 253 q 778 -25 778 121 q 685 -228 778 -151 q 419 -304 592 -304 q 194 -249 286 -304 q 65 -89 103 -193 q 97 -25 50 -42 l 167 0 q 207 3 193 10 q 232 -31 221 -4 q 419 -142 271 -142 q 604 -26 604 -142 q 576 33 604 11 q 517 63 549 56 q 424 76 485 69 q 204 117 265 93 q 65 329 65 172 q 181 525 65 451 q 81 728 81 588 m 401 457 q 324 469 326 468 q 243 353 243 428 q 258 297 243 319 q 306 263 272 275 q 367 247 339 251 q 446 238 394 242 q 480 235 450 238 q 525 229 510 232 q 596 346 596 274 q 581 395 596 375 q 535 427 567 415 q 477 444 504 439 q 401 457 450 450 z "},"¨":{"ha":610,"x_min":85,"x_max":518,"o":"m 167 985 q 224 969 208 985 q 240 913 240 953 l 240 900 q 224 844 240 860 q 167 828 208 828 l 157 828 q 100 844 115 828 q 85 900 85 860 l 85 913 q 100 969 85 953 q 157 985 115 985 l 167 985 m 444 985 q 502 969 486 985 q 518 913 518 953 l 518 900 q 502 844 518 860 q 444 828 486 828 l 436 828 q 378 844 394 828 q 363 900 363 860 l 363 913 q 378 969 363 953 q 436 985 394 985 l 444 985 z "},"©":{"ha":1110,"x_min":57,"x_max":1053,"o":"m 57 488 q 202 842 57 697 q 557 986 347 986 q 909 842 765 986 q 1053 488 1053 697 q 909 133 1053 278 q 557 -11 765 -11 q 202 134 347 -11 q 57 488 57 279 m 831 211 q 886 267 831 211 q 942 488 942 324 q 831 763 942 651 q 557 875 719 875 q 280 764 392 875 q 168 488 168 653 q 280 211 168 324 q 557 99 392 99 q 831 211 719 99 m 344 558 q 399 700 344 649 q 554 751 454 751 q 754 626 710 751 q 757 598 761 607 q 733 582 753 589 l 696 568 q 668 566 678 561 q 653 590 658 571 q 619 635 642 622 q 554 647 597 647 q 453 560 453 647 l 453 411 q 554 321 453 321 q 653 381 632 321 q 697 403 667 415 l 733 389 q 756 344 768 375 q 554 218 707 218 q 399 269 454 218 q 344 411 344 321 l 344 558 z "},"ª":{"ha":500,"x_min":65,"x_max":428,"o":"m 81 856 q 250 931 135 931 q 428 758 428 931 l 428 581 q 419 538 428 551 q 385 514 410 525 q 246 493 336 493 q 106 526 146 493 q 65 622 65 560 q 106 720 65 688 q 249 753 147 753 q 304 750 279 753 l 304 769 q 292 814 304 800 q 247 828 279 828 q 176 793 214 828 q 135 786 157 779 l 101 804 q 73 826 78 815 q 81 856 68 838 m 304 663 q 242 665 271 665 q 185 626 185 665 q 197 596 185 604 q 240 588 210 588 q 296 592 283 588 q 304 606 304 597 l 304 663 z "},"«":{"ha":819,"x_min":36,"x_max":760,"o":"m 414 185 q 414 131 442 158 l 364 79 q 310 79 336 54 l 51 338 q 36 365 36 353 q 51 392 36 376 l 315 657 q 369 657 344 683 l 417 608 q 432 582 432 593 q 417 556 432 571 l 231 368 l 414 185 m 743 185 q 743 131 769 158 l 692 79 q 639 79 663 54 l 381 338 q 381 392 353 364 l 644 657 q 699 657 672 683 l 746 608 q 760 582 760 593 q 746 556 760 571 l 558 368 l 743 185 z "},"¬":{"ha":817,"x_min":72,"x_max":732,"o":"m 689 571 q 723 561 714 571 q 732 528 732 551 l 732 236 q 723 203 732 213 q 689 193 714 193 l 615 193 q 582 203 592 193 q 572 236 572 213 l 572 419 l 115 419 q 81 429 90 419 q 72 463 72 439 l 72 528 q 81 561 72 551 q 115 571 90 571 l 689 571 z "},"®":{"ha":650,"x_min":56,"x_max":594,"o":"m 135 526 q 95 566 135 526 q 56 717 56 606 q 135 907 56 828 q 326 986 215 986 q 515 907 436 986 q 594 717 594 828 q 516 526 594 606 q 326 447 438 447 q 135 526 215 447 m 185 858 q 156 829 185 858 q 126 717 126 800 q 185 574 126 633 q 328 515 243 515 q 468 574 410 515 q 526 717 526 633 q 468 858 526 800 q 328 917 410 917 q 185 858 243 917 m 353 851 q 422 827 396 851 q 449 760 449 803 q 393 678 449 696 l 438 606 q 425 582 454 582 l 394 582 q 367 596 375 582 l 324 671 l 283 671 l 283 597 q 280 585 283 588 q 267 582 276 582 l 238 582 q 221 597 221 582 l 221 835 q 224 849 221 846 q 239 851 228 851 l 353 851 m 283 728 l 349 728 q 382 760 382 728 q 349 792 382 792 l 283 792 l 283 728 z "},"¯":{"ha":489,"x_min":44,"x_max":447,"o":"m 407 968 q 439 960 431 968 q 447 928 447 951 l 447 892 q 439 860 447 868 q 407 851 431 851 l 85 851 q 53 860 61 851 q 44 892 44 868 l 44 928 q 53 960 44 951 q 85 968 63 968 l 407 968 z "},"°":{"ha":551,"x_min":49,"x_max":503,"o":"m 503 771 q 435 611 503 679 q 276 543 368 543 q 115 610 182 543 q 49 771 49 676 q 115 932 49 867 q 276 997 181 997 q 437 932 371 997 q 503 771 503 867 m 176 769 q 206 700 176 729 q 276 671 235 671 q 347 700 317 671 q 376 769 376 729 q 347 841 376 811 q 276 871 318 871 q 206 841 235 871 q 176 769 176 811 z "},"±":{"ha":826,"x_min":86,"x_max":742,"o":"m 694 618 q 731 608 721 618 q 742 571 742 597 l 742 528 q 731 491 742 501 q 694 481 721 481 l 486 481 l 486 372 q 476 335 486 346 q 439 325 465 325 l 388 325 q 351 335 361 325 q 340 372 340 346 l 340 481 l 133 481 q 96 490 106 481 q 86 528 86 500 l 86 571 q 97 608 86 597 q 133 618 107 618 l 340 618 l 340 732 q 351 769 340 758 q 388 779 361 779 l 439 779 q 476 769 465 779 q 486 732 486 758 l 486 618 l 694 618 m 694 279 q 731 269 721 279 q 742 232 742 258 l 742 189 q 731 152 742 163 q 694 142 721 142 l 133 142 q 96 151 106 142 q 86 189 86 161 l 86 232 q 97 269 86 258 q 133 279 107 279 l 694 279 z "},"²":{"ha":506,"x_min":49,"x_max":457,"o":"m 53 1001 q 260 1138 107 1138 q 405 1087 353 1138 q 457 958 457 1036 q 423 841 457 882 q 304 772 389 800 l 229 750 q 179 713 179 736 l 179 701 l 408 701 q 449 660 449 701 l 449 618 q 440 587 449 596 q 408 578 431 578 l 92 578 q 58 587 68 578 q 49 618 49 596 l 49 661 q 74 777 49 736 q 165 844 99 818 l 242 874 q 285 892 272 886 q 308 914 297 899 q 318 953 318 929 q 302 993 318 978 q 257 1008 286 1008 q 182 957 208 1008 q 159 924 169 931 q 121 926 149 918 l 83 942 q 53 1001 36 958 z "},"³":{"ha":511,"x_min":44,"x_max":467,"o":"m 46 1000 q 260 1138 93 1138 q 400 1095 350 1138 q 450 979 450 1053 q 437 910 450 936 q 390 865 424 885 q 467 724 467 825 q 415 608 467 649 q 260 567 363 567 q 44 700 92 567 q 67 760 28 746 l 106 772 q 142 775 129 781 q 167 743 156 769 q 260 688 186 688 q 333 740 333 688 q 278 793 333 793 l 225 793 q 191 801 199 793 q 183 835 183 808 l 183 869 q 191 908 183 900 q 229 915 199 915 l 269 915 q 324 964 324 915 q 263 1017 324 1017 q 171 961 192 1017 q 146 925 160 932 q 100 929 132 918 l 75 939 q 44 962 51 949 q 46 1000 38 975 z "},"´":{"ha":357,"x_min":14,"x_max":363,"o":"m 235 1014 q 314 1011 288 1043 l 349 968 q 363 947 360 956 q 361 932 365 939 q 343 919 357 925 l 101 818 q 47 821 61 803 l 28 846 q 14 873 14 864 q 31 892 14 882 l 235 1014 z "},"µ":{"ha":776,"x_min":82,"x_max":697,"o":"m 656 719 q 688 710 679 719 q 697 678 697 701 l 697 106 q 687 57 697 72 q 644 28 676 42 q 408 -21 525 -21 q 243 29 297 -21 l 243 -262 q 233 -296 243 -286 q 200 -306 224 -306 l 124 -306 q 91 -296 100 -306 q 82 -262 82 -286 l 82 678 q 91 710 82 701 q 125 719 100 719 l 200 719 q 233 710 224 719 q 243 678 243 701 l 243 263 q 394 126 243 126 q 522 144 464 126 q 536 165 536 147 l 536 678 q 546 710 536 701 q 579 719 556 719 l 656 719 z "},"¶":{"ha":796,"x_min":44,"x_max":703,"o":"m 660 986 q 693 976 683 986 q 703 943 703 967 l 703 -81 q 693 -114 703 -104 q 660 -124 683 -124 l 596 -124 q 563 -114 572 -124 q 553 -81 553 -104 l 553 825 l 474 825 l 474 -81 q 464 -114 474 -104 q 431 -124 454 -124 l 367 -124 q 333 -114 343 -124 q 324 -81 324 -104 l 324 408 q 122 490 199 411 q 44 696 44 569 q 124 906 44 826 q 333 986 204 986 l 660 986 z "},"·":{"ha":350,"x_min":81,"x_max":269,"o":"m 179 490 q 250 471 231 490 q 269 401 269 451 l 269 389 q 250 319 269 338 q 179 300 231 300 l 169 300 q 100 319 119 300 q 81 389 81 338 l 81 401 q 100 471 81 451 q 169 490 119 490 l 179 490 z "},"¸":{"ha":349,"x_min":24,"x_max":336,"o":"m 201 -81 q 219 -79 208 -79 q 308 -115 275 -79 q 336 -204 342 -151 q 150 -340 324 -340 q 49 -322 83 -340 q 25 -283 25 -311 l 24 -242 q 46 -225 24 -214 q 129 -247 88 -247 q 197 -197 197 -247 q 138 -157 197 -158 q 104 -158 114 -157 q 82 -151 86 -160 q 85 -125 78 -143 l 138 0 l 232 0 l 201 -81 z "},"¹":{"ha":396,"x_min":18,"x_max":326,"o":"m 278 1126 q 315 1116 304 1126 q 326 1079 326 1106 l 326 625 q 316 588 326 599 q 278 578 306 578 l 238 578 q 201 588 211 578 q 190 625 190 597 l 190 956 l 113 913 q 44 929 69 889 l 26 961 q 19 1000 14 988 q 47 1026 24 1013 l 197 1113 q 253 1126 219 1126 l 278 1126 z "},"º":{"ha":506,"x_min":64,"x_max":442,"o":"m 64 761 q 113 885 64 840 q 253 931 161 931 q 393 885 344 931 q 442 761 442 840 l 442 663 q 393 539 442 583 q 253 494 344 494 q 113 539 161 494 q 64 663 64 583 l 64 761 m 314 767 q 253 818 314 818 q 192 767 192 818 l 192 658 q 253 607 192 607 q 314 658 314 607 l 314 767 z "},"»":{"ha":819,"x_min":58,"x_max":768,"o":"m 403 556 q 388 582 388 571 q 403 608 388 593 l 450 657 q 503 657 476 688 l 768 392 q 768 338 792 364 l 510 79 q 456 79 483 54 l 404 131 q 404 185 378 158 l 588 368 l 403 556 m 74 556 q 58 582 58 571 q 74 608 58 593 l 121 657 q 175 657 147 685 l 439 392 q 453 365 453 376 q 439 338 453 353 l 181 79 q 126 79 154 53 l 76 131 q 76 185 50 158 l 260 368 l 74 556 z "},"¼":{"ha":1115,"x_min":46,"x_max":1069,"o":"m 956 986 q 985 972 979 986 q 978 940 992 958 l 318 42 q 282 7 297 14 q 225 0 267 0 l 169 0 q 138 14 144 0 q 146 47 132 28 l 808 947 q 842 979 828 972 q 894 986 857 986 l 956 986 m 299 985 q 335 974 325 985 q 346 938 346 964 l 346 483 q 335 446 346 456 q 299 436 325 436 l 258 436 q 220 447 231 436 q 210 483 210 457 l 210 815 l 132 771 q 65 788 90 749 l 46 821 q 67 885 24 861 l 217 971 q 272 985 239 985 l 299 985 m 963 549 q 996 542 989 549 q 1003 507 1003 535 l 1003 228 l 1029 228 q 1062 221 1054 228 q 1069 192 1069 214 l 1069 153 q 1063 122 1069 129 q 1029 115 1056 115 l 1003 115 l 1003 39 q 995 8 1003 15 q 965 0 988 0 l 913 0 q 883 8 890 0 q 875 39 875 15 l 875 115 l 640 115 q 608 124 617 115 q 600 157 600 132 l 600 190 q 613 233 600 218 l 849 525 q 872 544 861 540 q 904 549 882 549 l 963 549 m 751 228 l 875 228 l 875 381 l 751 228 z "},"½":{"ha":1161,"x_min":46,"x_max":1107,"o":"m 299 994 q 335 984 325 994 q 346 947 346 974 l 346 492 q 335 455 346 465 q 299 444 325 444 l 257 444 q 220 455 231 444 q 210 492 210 465 l 210 824 l 132 781 q 65 797 90 758 l 46 829 q 67 894 24 868 l 217 981 q 272 994 239 994 l 299 994 m 943 986 q 973 972 967 986 q 967 940 979 958 l 306 42 q 269 7 285 14 q 213 0 254 0 l 158 0 q 127 14 133 0 q 135 47 121 28 l 796 947 q 830 979 815 972 q 882 986 844 986 l 943 986 m 703 425 q 910 560 757 560 q 1055 509 1003 560 q 1107 381 1107 458 q 1073 263 1107 304 q 956 196 1039 222 l 879 174 q 829 136 829 160 l 829 124 l 1058 124 q 1090 114 1081 124 q 1099 82 1099 104 l 1099 40 q 1058 0 1099 0 l 742 0 q 708 9 718 0 q 699 42 699 18 l 699 83 q 724 199 699 158 q 815 267 749 240 l 892 297 q 951 327 935 313 q 968 375 968 342 q 952 416 968 400 q 907 432 936 432 q 832 379 857 432 q 809 347 819 353 q 772 350 799 342 l 733 364 q 703 425 686 381 z "},"¾":{"ha":1158,"x_min":47,"x_max":1117,"o":"m 53 868 q 267 1006 100 1006 q 407 963 357 1006 q 457 849 457 921 q 444 779 457 806 q 397 733 431 753 q 472 593 472 696 q 421 476 472 518 q 267 435 369 435 q 51 568 99 435 q 48 608 43 596 q 74 628 53 621 l 113 642 q 149 644 136 650 q 172 613 163 638 q 203 570 183 583 q 267 557 224 557 q 339 608 339 557 q 285 663 339 663 l 232 663 q 198 670 206 663 q 190 704 190 678 l 190 739 q 197 776 190 769 q 235 783 204 783 l 276 783 q 331 833 331 783 q 269 886 331 886 q 178 831 199 886 q 153 794 167 801 q 107 799 139 788 l 81 808 q 53 868 36 825 m 1003 986 q 1032 972 1026 986 q 1025 940 1038 958 l 364 42 q 328 7 344 14 q 271 0 313 0 l 217 0 q 185 14 192 0 q 193 47 179 28 l 854 947 q 888 979 874 972 q 942 986 903 986 l 1003 986 m 1010 549 q 1043 541 1036 549 q 1050 507 1050 533 l 1050 228 l 1076 228 q 1109 221 1101 228 q 1117 192 1117 214 l 1117 153 q 1110 122 1117 129 q 1076 115 1103 115 l 1050 115 l 1050 39 q 1042 8 1050 15 q 1013 0 1035 0 l 960 0 q 930 8 938 0 q 922 39 922 15 l 922 115 l 688 115 q 656 124 664 115 q 647 157 647 132 l 647 190 q 660 233 647 218 l 896 525 q 919 544 908 540 q 951 549 929 549 l 1010 549 m 922 228 l 922 381 l 799 228 l 922 228 z "},"¿":{"ha":783,"x_min":40,"x_max":747,"o":"m 421 538 q 351 557 371 538 q 332 626 332 576 l 332 639 q 351 709 332 690 q 421 728 371 728 l 431 728 q 501 709 482 728 q 519 639 519 690 l 519 626 q 501 557 519 576 q 431 538 482 538 l 421 538 m 744 -79 q 382 -308 653 -308 q 133 -226 225 -308 q 40 -21 40 -144 q 47 51 40 17 q 62 109 53 85 q 88 157 71 133 q 119 194 106 181 q 156 226 132 208 q 194 252 181 244 q 233 275 207 260 q 268 296 258 290 q 332 350 310 324 q 354 417 354 376 q 365 451 354 442 q 400 461 375 461 l 454 461 q 490 451 479 461 q 500 417 500 442 q 465 278 500 328 q 365 185 431 228 q 341 169 361 182 q 315 153 321 157 q 293 138 310 150 q 270 119 276 126 q 252 100 264 113 q 235 77 240 88 q 224 52 231 67 q 215 21 217 38 q 213 -14 213 4 q 258 -117 213 -78 q 386 -156 303 -156 q 513 -123 467 -156 q 588 -25 560 -90 q 611 8 599 1 q 649 4 624 14 l 715 -19 q 747 -41 740 -28 q 744 -79 754 -54 z "},"À":{"ha":914,"x_min":14,"x_max":899,"o":"m 336 1250 q 414 1253 363 1283 l 619 1132 q 636 1113 636 1122 q 622 1086 636 1104 l 603 1061 q 549 1058 589 1043 l 307 1158 q 300 1207 271 1172 l 336 1250 m 899 46 q 867 0 915 0 l 794 0 q 734 8 751 0 q 708 42 717 17 l 644 221 l 261 221 l 196 42 q 170 8 188 17 q 110 0 153 0 l 46 0 q 14 46 -3 0 l 361 949 q 383 980 371 972 q 419 988 394 988 l 493 988 q 531 980 518 988 q 551 950 543 972 l 899 46 m 490 657 q 469 737 478 694 q 458 803 461 779 l 457 826 l 447 826 q 417 658 447 747 l 310 364 l 596 364 l 490 657 z "},"Á":{"ha":914,"x_min":14,"x_max":899,"o":"m 503 1256 q 582 1253 556 1285 l 618 1208 q 633 1180 633 1190 q 611 1161 632 1169 l 369 1060 q 317 1061 329 1044 l 296 1088 q 299 1132 271 1118 l 503 1256 m 899 46 q 867 0 915 0 l 794 0 q 734 8 751 0 q 708 42 717 17 l 644 221 l 261 221 l 196 42 q 170 8 188 17 q 110 0 153 0 l 46 0 q 14 46 -3 0 l 361 949 q 383 980 371 972 q 419 988 394 988 l 493 988 q 531 980 518 988 q 551 950 543 972 l 899 46 m 490 657 q 469 737 478 694 q 458 803 461 779 l 457 826 l 447 826 q 417 658 447 747 l 310 364 l 596 364 l 490 657 z "},"Â":{"ha":914,"x_min":14,"x_max":899,"o":"m 469 1263 q 508 1257 494 1263 q 546 1225 521 1251 l 688 1089 q 697 1065 701 1075 q 667 1054 692 1054 l 604 1054 q 536 1079 558 1054 l 457 1158 l 372 1079 q 346 1058 357 1063 q 307 1054 335 1054 l 249 1054 q 219 1065 224 1054 q 229 1089 215 1075 l 369 1225 q 408 1256 394 1250 q 453 1263 422 1263 l 469 1263 m 899 46 q 867 0 915 0 l 794 0 q 734 8 751 0 q 708 42 717 17 l 644 221 l 261 221 l 196 42 q 170 8 188 17 q 110 0 153 0 l 46 0 q 14 46 -3 0 l 361 949 q 383 980 371 972 q 419 988 394 988 l 493 988 q 531 980 518 988 q 551 950 543 972 l 899 46 m 490 657 q 469 737 478 694 q 458 803 461 779 l 457 826 l 447 826 q 417 658 447 747 l 310 364 l 596 364 l 490 657 z "},"Ã":{"ha":914,"x_min":14,"x_max":899,"o":"m 636 1243 q 664 1217 664 1243 q 635 1098 664 1133 q 546 1063 607 1063 q 445 1102 497 1063 q 367 1142 393 1142 q 333 1089 333 1142 q 308 1063 333 1063 l 263 1063 q 236 1089 236 1063 q 265 1208 236 1172 q 351 1243 293 1243 q 457 1203 404 1243 q 535 1164 510 1164 q 567 1217 567 1164 q 593 1243 567 1243 l 636 1243 m 899 46 q 867 0 915 0 l 794 0 q 734 8 751 0 q 708 42 717 17 l 644 221 l 261 221 l 196 42 q 170 8 188 17 q 110 0 153 0 l 46 0 q 14 46 -3 0 l 361 949 q 383 980 371 972 q 419 988 394 988 l 493 988 q 531 980 518 988 q 551 950 543 972 l 899 46 m 490 657 q 469 737 478 694 q 458 803 461 779 l 457 826 l 447 826 q 417 658 447 747 l 310 364 l 596 364 l 490 657 z "},"Ä":{"ha":914,"x_min":14,"x_max":899,"o":"m 322 1233 q 380 1217 364 1233 q 396 1161 396 1201 l 396 1147 q 380 1091 396 1107 q 322 1075 364 1075 l 313 1075 q 256 1091 271 1075 q 240 1147 240 1107 l 240 1161 q 256 1217 240 1201 q 313 1233 271 1233 l 322 1233 m 600 1233 q 657 1217 642 1233 q 672 1161 672 1201 l 672 1147 q 657 1091 672 1107 q 600 1075 642 1075 l 590 1075 q 533 1091 549 1075 q 517 1147 517 1107 l 517 1161 q 533 1217 517 1201 q 590 1233 549 1233 l 600 1233 m 899 46 q 867 0 915 0 l 794 0 q 734 8 751 0 q 708 42 717 17 l 644 221 l 261 221 l 196 42 q 170 8 188 17 q 110 0 153 0 l 46 0 q 14 46 -3 0 l 361 949 q 383 980 371 972 q 419 988 394 988 l 493 988 q 531 980 518 988 q 551 950 543 972 l 899 46 m 490 657 q 469 737 478 694 q 458 803 461 779 l 457 826 l 447 826 q 417 658 447 747 l 310 364 l 596 364 l 490 657 z "},"Å":{"ha":914,"x_min":14,"x_max":899,"o":"m 286 1063 q 335 1185 286 1138 q 460 1232 383 1232 q 581 1185 533 1232 q 628 1063 628 1138 q 560 929 628 971 l 899 46 q 867 0 915 0 l 794 0 q 734 8 751 0 q 708 42 717 17 l 644 221 l 261 221 l 196 42 q 170 8 188 17 q 110 0 153 0 l 46 0 q 14 46 -3 0 l 354 932 q 286 1063 286 975 m 532 1063 q 512 1116 532 1096 q 460 1136 492 1136 q 403 1116 425 1136 q 382 1063 382 1096 q 403 1010 382 1031 q 460 990 425 990 q 512 1010 492 990 q 532 1063 532 1031 m 490 657 q 469 737 478 694 q 458 803 461 779 l 457 826 l 447 826 q 417 658 447 747 l 310 364 l 596 364 l 490 657 z "},"Æ":{"ha":1192,"x_min":-1,"x_max":1147,"o":"m 1100 163 q 1137 152 1126 163 q 1147 115 1147 142 l 1147 47 q 1137 10 1147 21 q 1100 0 1126 0 l 631 0 q 594 10 604 0 q 583 47 583 21 l 583 207 l 292 207 l 192 42 q 162 9 178 18 q 104 0 146 0 l 31 0 q -1 46 -18 0 l 565 947 q 591 978 581 971 q 624 986 601 986 l 1085 986 q 1122 976 1111 986 q 1132 939 1132 965 l 1132 871 q 1122 834 1132 844 q 1085 824 1111 824 l 751 824 l 751 581 l 1018 581 q 1055 570 1044 581 q 1065 533 1065 560 l 1065 465 q 1055 428 1065 439 q 1018 418 1044 418 l 751 418 l 751 163 l 1100 163 m 583 693 l 376 350 l 583 350 l 583 693 z "},"Ç":{"ha":889,"x_min":68,"x_max":844,"o":"m 814 274 q 844 213 860 257 q 506 -19 767 -4 l 482 -81 q 500 -79 488 -79 q 588 -115 554 -79 q 617 -204 622 -151 q 431 -340 603 -340 q 329 -322 364 -340 q 306 -283 306 -312 l 304 -242 q 326 -225 304 -214 q 410 -247 368 -247 q 478 -197 478 -247 q 418 -157 478 -158 q 383 -158 394 -157 q 361 -151 365 -160 q 365 -125 357 -143 l 410 -18 q 157 90 246 -4 q 68 342 68 185 l 68 646 q 172 910 68 814 q 465 1007 275 1007 q 843 775 761 1007 q 814 714 860 731 l 738 688 q 700 685 713 679 q 678 717 688 692 q 465 844 632 844 q 301 794 358 844 q 243 647 243 743 l 243 340 q 301 193 243 244 q 465 142 358 142 q 678 271 631 142 q 701 303 689 297 q 739 300 714 310 l 814 274 z "},"È":{"ha":804,"x_min":96,"x_max":758,"o":"m 300 1250 q 379 1253 326 1282 l 585 1132 q 600 1113 600 1122 q 586 1086 600 1104 l 567 1061 q 514 1058 554 1043 l 271 1158 q 253 1171 257 1164 q 251 1186 249 1178 q 265 1207 254 1194 l 300 1250 m 696 986 q 733 976 722 986 q 744 939 744 965 l 744 871 q 733 834 744 844 q 696 824 722 824 l 271 824 l 271 581 l 631 581 q 667 570 657 581 q 678 533 678 560 l 678 465 q 667 428 678 439 q 631 418 657 418 l 271 418 l 271 163 l 711 163 q 748 152 738 163 q 758 115 758 142 l 758 47 q 748 10 758 21 q 711 0 738 0 l 144 0 q 107 10 118 0 q 96 47 96 21 l 96 939 q 107 976 96 965 q 144 986 118 986 l 696 986 z "},"É":{"ha":804,"x_min":96,"x_max":758,"o":"m 468 1256 q 547 1253 519 1283 l 582 1208 q 596 1188 593 1196 q 594 1173 599 1179 q 576 1161 590 1167 l 335 1060 q 281 1061 294 1044 l 261 1088 q 264 1132 236 1118 l 468 1256 m 696 986 q 733 976 722 986 q 744 939 744 965 l 744 871 q 733 834 744 844 q 696 824 722 824 l 271 824 l 271 581 l 631 581 q 667 570 657 581 q 678 533 678 560 l 678 465 q 667 428 678 439 q 631 418 657 418 l 271 418 l 271 163 l 711 163 q 748 152 738 163 q 758 115 758 142 l 758 47 q 748 10 758 21 q 711 0 738 0 l 144 0 q 107 10 118 0 q 96 47 96 21 l 96 939 q 107 976 96 965 q 144 986 118 986 l 696 986 z "},"Ê":{"ha":804,"x_min":96,"x_max":758,"o":"m 433 1263 q 472 1257 460 1263 q 511 1225 485 1251 l 651 1089 q 661 1065 665 1075 q 632 1054 657 1054 l 569 1054 q 501 1079 522 1054 l 421 1158 l 338 1079 q 310 1058 321 1063 q 271 1054 299 1054 l 214 1054 q 184 1065 189 1054 q 193 1089 179 1075 l 335 1225 q 373 1256 360 1250 q 417 1263 386 1263 l 433 1263 m 696 986 q 733 976 722 986 q 744 939 744 965 l 744 871 q 733 834 744 844 q 696 824 722 824 l 271 824 l 271 581 l 631 581 q 667 570 657 581 q 678 533 678 560 l 678 465 q 667 428 678 439 q 631 418 657 418 l 271 418 l 271 163 l 711 163 q 748 152 738 163 q 758 115 758 142 l 758 47 q 748 10 758 21 q 711 0 738 0 l 144 0 q 107 10 118 0 q 96 47 96 21 l 96 939 q 107 976 96 965 q 144 986 118 986 l 696 986 z "},"Ë":{"ha":804,"x_min":96,"x_max":758,"o":"m 286 1233 q 344 1217 328 1233 q 360 1161 360 1201 l 360 1147 q 344 1091 360 1107 q 286 1075 328 1075 l 276 1075 q 220 1091 236 1075 q 204 1147 204 1107 l 204 1161 q 220 1217 204 1201 q 276 1233 236 1233 l 286 1233 m 565 1233 q 622 1217 606 1233 q 638 1161 638 1201 l 638 1147 q 622 1091 638 1107 q 565 1075 606 1075 l 556 1075 q 498 1091 514 1075 q 482 1147 482 1107 l 482 1161 q 498 1217 482 1201 q 556 1233 514 1233 l 565 1233 m 696 986 q 733 976 722 986 q 744 939 744 965 l 744 871 q 733 834 744 844 q 696 824 722 824 l 271 824 l 271 581 l 631 581 q 667 570 657 581 q 678 533 678 560 l 678 465 q 667 428 678 439 q 631 418 657 418 l 271 418 l 271 163 l 711 163 q 748 152 738 163 q 758 115 758 142 l 758 47 q 748 10 758 21 q 711 0 738 0 l 144 0 q 107 10 118 0 q 96 47 96 21 l 96 939 q 107 976 96 965 q 144 986 118 986 l 696 986 z "},"Ì":{"ha":367,"x_min":13,"x_max":364,"o":"m 64 1250 q 143 1253 90 1282 l 347 1132 q 364 1113 364 1122 q 350 1086 364 1104 l 331 1061 q 276 1058 317 1043 l 35 1158 q 13 1178 14 1167 q 28 1207 13 1189 l 64 1250 m 97 939 q 108 976 97 965 q 144 986 118 986 l 224 986 q 260 976 250 986 q 271 939 271 965 l 271 47 q 260 10 271 21 q 224 0 250 0 l 144 0 q 108 10 118 0 q 97 47 97 21 l 97 939 z "},"Í":{"ha":367,"x_min":24,"x_max":361,"o":"m 231 1256 q 310 1253 283 1285 l 346 1208 q 360 1180 361 1190 q 339 1161 360 1169 l 97 1060 q 43 1061 57 1044 l 24 1088 q 26 1132 -1 1118 l 231 1256 m 96 939 q 107 976 96 965 q 144 986 118 986 l 224 986 q 260 976 250 986 q 271 939 271 965 l 271 47 q 260 10 271 21 q 224 0 250 0 l 144 0 q 107 10 118 0 q 96 47 96 21 l 96 939 z "},"Î":{"ha":367,"x_min":-53,"x_max":425,"o":"m 197 1263 q 235 1257 222 1263 q 274 1225 249 1251 l 415 1089 q 424 1065 429 1075 q 394 1054 419 1054 l 332 1054 q 264 1079 286 1054 l 183 1158 l 100 1079 q 74 1058 85 1063 q 35 1054 63 1054 l -24 1054 q -53 1065 -49 1054 q -43 1089 -57 1075 l 97 1225 q 136 1256 122 1250 q 181 1263 150 1263 l 197 1263 m 96 939 q 107 976 96 965 q 144 986 118 986 l 224 986 q 260 976 250 986 q 271 939 271 965 l 271 47 q 260 10 271 21 q 224 0 250 0 l 144 0 q 107 10 118 0 q 96 47 96 21 l 96 939 z "},"Ï":{"ha":367,"x_min":-32,"x_max":400,"o":"m 50 1233 q 107 1217 92 1233 q 122 1161 122 1201 l 122 1147 q 107 1091 122 1107 q 50 1075 92 1075 l 40 1075 q -17 1091 -1 1075 q -32 1147 -32 1107 l -32 1161 q -17 1217 -32 1201 q 40 1233 -1 1233 l 50 1233 m 328 1233 q 385 1217 369 1233 q 400 1161 400 1201 l 400 1147 q 385 1091 400 1107 q 328 1075 369 1075 l 318 1075 q 260 1091 276 1075 q 244 1147 244 1107 l 244 1161 q 260 1217 244 1201 q 318 1233 276 1233 l 328 1233 m 96 939 q 107 976 96 965 q 144 986 118 986 l 224 986 q 260 976 250 986 q 271 939 271 965 l 271 47 q 260 10 271 21 q 224 0 250 0 l 144 0 q 107 10 118 0 q 96 47 96 21 l 96 939 z "},"Ð":{"ha":947,"x_min":8,"x_max":881,"o":"m 478 986 q 775 888 669 986 q 881 619 881 790 l 881 367 q 775 98 881 196 q 478 0 669 0 l 165 0 q 128 10 139 0 q 118 47 118 21 l 118 453 l 36 453 q 14 459 19 453 q 8 483 8 465 l 8 535 q 36 565 8 565 l 118 565 l 118 939 q 128 976 118 965 q 165 986 139 986 l 478 986 m 706 621 q 647 772 706 719 q 478 824 589 824 l 292 824 l 292 565 l 476 565 q 499 559 493 565 q 504 535 504 553 l 504 483 q 499 459 504 465 q 476 453 493 453 l 292 453 l 292 163 l 478 163 q 647 215 588 163 q 706 365 706 267 l 706 621 z "},"Ñ":{"ha":967,"x_min":96,"x_max":869,"o":"m 665 1243 q 692 1217 692 1243 q 664 1098 692 1133 q 574 1063 636 1063 q 474 1102 526 1063 q 394 1142 421 1142 q 363 1089 363 1142 q 336 1063 363 1063 l 292 1063 q 265 1089 265 1063 q 294 1208 265 1172 q 379 1243 322 1243 q 485 1203 432 1243 q 563 1164 539 1164 q 596 1217 596 1164 q 621 1243 596 1243 l 665 1243 m 822 986 q 859 976 849 986 q 869 939 869 965 l 869 47 q 859 10 869 21 q 822 0 849 0 l 743 0 q 697 24 711 0 l 357 526 q 301 626 328 569 q 258 720 274 682 q 243 760 243 758 l 235 760 q 242 716 235 758 q 258 608 250 674 q 265 483 265 542 l 265 47 q 255 10 265 21 q 218 0 244 0 l 144 0 q 107 10 118 0 q 96 47 96 21 l 96 939 q 107 976 96 965 q 144 986 118 986 l 224 986 q 269 964 254 986 l 607 464 q 666 361 639 417 q 708 267 693 306 q 724 228 722 229 l 732 228 q 724 272 732 231 q 709 380 717 314 q 701 508 701 446 l 701 939 q 712 976 701 965 q 749 986 722 986 l 822 986 z "},"Ò":{"ha":929,"x_min":68,"x_max":861,"o":"m 344 1264 q 424 1267 371 1296 l 628 1146 q 644 1127 644 1136 q 631 1100 644 1118 l 611 1075 q 557 1072 599 1058 l 315 1172 q 294 1192 294 1181 q 308 1221 293 1203 l 344 1264 m 68 644 q 172 910 68 814 q 465 1007 275 1007 q 758 910 654 1007 q 861 644 861 814 l 861 342 q 758 76 861 172 q 465 -21 654 -21 q 172 76 275 -21 q 68 342 68 172 l 68 644 m 688 646 q 630 793 688 742 q 465 844 572 844 q 301 794 358 844 q 243 646 243 743 l 243 340 q 301 192 243 243 q 465 142 358 142 q 630 193 572 142 q 688 340 688 244 l 688 646 z "},"Ó":{"ha":929,"x_min":68,"x_max":861,"o":"m 513 1269 q 590 1267 564 1297 l 626 1222 q 640 1201 638 1210 q 639 1187 643 1193 q 621 1175 635 1181 l 379 1074 q 325 1075 339 1058 l 306 1101 q 308 1146 281 1132 l 513 1269 m 68 644 q 172 910 68 814 q 465 1007 275 1007 q 758 910 654 1007 q 861 644 861 814 l 861 342 q 758 76 861 172 q 465 -21 654 -21 q 172 76 275 -21 q 68 342 68 172 l 68 644 m 688 646 q 630 793 688 742 q 465 844 572 844 q 301 794 358 844 q 243 646 243 743 l 243 340 q 301 192 243 243 q 465 142 358 142 q 630 193 572 142 q 688 340 688 244 l 688 646 z "},"Ô":{"ha":929,"x_min":68,"x_max":861,"o":"m 478 1276 q 517 1271 504 1276 q 556 1239 529 1265 l 696 1103 q 705 1078 710 1089 q 675 1068 700 1068 l 614 1068 q 572 1072 586 1068 q 544 1093 558 1076 l 465 1172 l 382 1093 q 354 1072 365 1076 q 315 1068 343 1068 l 258 1068 q 228 1078 233 1068 q 238 1103 224 1089 l 379 1239 q 417 1270 404 1264 q 461 1276 431 1276 l 478 1276 m 68 644 q 172 910 68 814 q 465 1007 275 1007 q 758 910 654 1007 q 861 644 861 814 l 861 342 q 758 76 861 172 q 465 -21 654 -21 q 172 76 275 -21 q 68 342 68 172 l 68 644 m 688 646 q 630 793 688 742 q 465 844 572 844 q 301 794 358 844 q 243 646 243 743 l 243 340 q 301 192 243 243 q 465 142 358 142 q 630 193 572 142 q 688 340 688 244 l 688 646 z "},"Õ":{"ha":929,"x_min":68,"x_max":861,"o":"m 646 1257 q 672 1231 672 1257 q 644 1112 672 1147 q 554 1076 617 1076 q 454 1116 507 1076 q 375 1156 401 1156 q 343 1103 343 1156 q 317 1076 343 1076 l 272 1076 q 246 1103 246 1076 q 274 1222 246 1186 q 360 1257 303 1257 q 466 1217 413 1257 q 543 1178 519 1178 q 576 1231 576 1178 q 601 1257 576 1257 l 646 1257 m 68 644 q 172 910 68 814 q 465 1007 275 1007 q 758 910 654 1007 q 861 644 861 814 l 861 342 q 758 76 861 172 q 465 -21 654 -21 q 172 76 275 -21 q 68 342 68 172 l 68 644 m 688 646 q 630 793 688 742 q 465 844 572 844 q 301 794 358 844 q 243 646 243 743 l 243 340 q 301 192 243 243 q 465 142 358 142 q 630 193 572 142 q 688 340 688 244 l 688 646 z "},"Ö":{"ha":929,"x_min":68,"x_max":861,"o":"m 331 1247 q 388 1231 372 1247 q 404 1175 404 1215 l 404 1161 q 388 1105 404 1121 q 331 1089 372 1089 l 321 1089 q 264 1105 279 1089 q 249 1161 249 1121 l 249 1175 q 264 1231 249 1215 q 321 1247 279 1247 l 331 1247 m 608 1247 q 666 1231 650 1247 q 682 1175 682 1215 l 682 1161 q 666 1105 682 1121 q 608 1089 650 1089 l 600 1089 q 542 1105 558 1089 q 526 1161 526 1121 l 526 1175 q 542 1231 526 1215 q 600 1247 558 1247 l 608 1247 m 68 644 q 172 910 68 814 q 465 1007 275 1007 q 758 910 654 1007 q 861 644 861 814 l 861 342 q 758 76 861 172 q 465 -21 654 -21 q 172 76 275 -21 q 68 342 68 172 l 68 644 m 688 646 q 630 793 688 742 q 465 844 572 844 q 301 794 358 844 q 243 646 243 743 l 243 340 q 301 192 243 243 q 465 142 358 142 q 630 193 572 142 q 688 340 688 244 l 688 646 z "},"×":{"ha":713,"x_min":86,"x_max":644,"o":"m 625 283 q 644 251 644 265 q 625 219 644 238 l 588 181 q 556 163 569 163 q 524 181 542 163 l 356 349 l 189 182 q 125 182 157 150 l 86 221 q 86 285 54 251 l 253 451 l 86 618 q 86 682 54 651 l 125 721 q 189 721 157 753 l 356 553 l 524 721 q 556 739 542 739 q 588 721 569 739 l 625 683 q 644 651 644 665 q 625 619 644 638 l 457 451 l 625 283 z "},"Ø":{"ha":929,"x_min":64,"x_max":878,"o":"m 869 1046 q 878 1031 885 1046 l 783 885 q 861 644 861 792 l 861 342 q 758 78 861 174 q 465 -21 656 -18 q 238 28 332 -22 l 194 -40 q 163 -54 183 -54 l 72 -54 q 64 -39 54 -54 l 150 96 q 68 342 68 189 l 68 644 q 172 910 68 814 q 465 1007 275 1007 q 697 953 601 1007 l 747 1032 q 776 1046 758 1046 l 869 1046 m 606 810 q 465 844 549 844 q 301 794 358 844 q 243 646 243 743 l 243 340 q 260 267 243 297 l 606 810 m 329 172 q 465 142 382 142 q 630 193 572 142 q 688 340 688 244 l 688 646 q 674 711 688 681 l 329 172 z "},"Ù":{"ha":956,"x_min":89,"x_max":865,"o":"m 357 1250 q 436 1253 383 1282 l 640 1132 q 657 1113 657 1122 q 643 1086 657 1104 l 624 1061 q 569 1058 611 1044 l 328 1158 q 306 1178 307 1167 q 321 1207 306 1189 l 357 1250 m 264 338 q 318 192 264 243 q 478 142 372 142 q 638 192 583 142 q 692 338 692 243 l 692 939 q 702 976 692 965 q 739 986 713 986 l 818 986 q 855 976 844 986 q 865 939 865 965 l 865 339 q 765 76 865 172 q 478 -21 665 -21 q 190 76 290 -21 q 89 339 89 172 l 89 939 q 99 976 89 965 q 136 986 110 986 l 217 986 q 253 976 243 986 q 264 939 264 965 l 264 338 z "},"Ú":{"ha":956,"x_min":89,"x_max":865,"o":"m 525 1256 q 603 1253 576 1283 l 639 1208 q 653 1188 650 1196 q 651 1173 656 1179 q 633 1161 647 1167 l 392 1060 q 338 1061 351 1044 l 318 1088 q 321 1132 293 1118 l 525 1256 m 264 338 q 318 192 264 243 q 478 142 372 142 q 638 192 583 142 q 692 338 692 243 l 692 939 q 702 976 692 965 q 739 986 713 986 l 818 986 q 855 976 844 986 q 865 939 865 965 l 865 339 q 765 76 865 172 q 478 -21 665 -21 q 190 76 290 -21 q 89 339 89 172 l 89 939 q 99 976 89 965 q 136 986 110 986 l 217 986 q 253 976 243 986 q 264 939 264 965 l 264 338 z "},"Û":{"ha":956,"x_min":89,"x_max":865,"o":"m 490 1263 q 529 1257 517 1263 q 568 1225 542 1251 l 708 1089 q 717 1065 722 1075 q 688 1054 713 1054 l 626 1054 q 584 1058 597 1054 q 557 1079 571 1063 l 478 1158 l 394 1079 q 367 1058 378 1063 q 328 1054 356 1054 l 271 1054 q 241 1065 246 1054 q 250 1089 236 1075 l 392 1225 q 430 1256 417 1250 q 474 1263 443 1263 l 490 1263 m 264 338 q 318 192 264 243 q 478 142 372 142 q 638 192 583 142 q 692 338 692 243 l 692 939 q 702 976 692 965 q 739 986 713 986 l 818 986 q 855 976 844 986 q 865 939 865 965 l 865 339 q 765 76 865 172 q 478 -21 665 -21 q 190 76 290 -21 q 89 339 89 172 l 89 939 q 99 976 89 965 q 136 986 110 986 l 217 986 q 253 976 243 986 q 264 939 264 965 l 264 338 z "},"Ü":{"ha":956,"x_min":89,"x_max":865,"o":"m 343 1233 q 401 1217 385 1233 q 417 1161 417 1201 l 417 1147 q 401 1091 417 1107 q 343 1075 385 1075 l 333 1075 q 276 1091 292 1075 q 261 1147 261 1107 l 261 1161 q 276 1217 261 1201 q 333 1233 292 1233 l 343 1233 m 621 1233 q 678 1217 663 1233 q 694 1161 694 1201 l 694 1147 q 678 1091 694 1107 q 621 1075 663 1075 l 613 1075 q 555 1091 571 1075 q 539 1147 539 1107 l 539 1161 q 555 1217 539 1201 q 613 1233 571 1233 l 621 1233 m 264 338 q 318 192 264 243 q 478 142 372 142 q 638 192 583 142 q 692 338 692 243 l 692 939 q 702 976 692 965 q 739 986 713 986 l 818 986 q 855 976 844 986 q 865 939 865 965 l 865 339 q 765 76 865 172 q 478 -21 665 -21 q 190 76 290 -21 q 89 339 89 172 l 89 939 q 99 976 89 965 q 136 986 110 986 l 217 986 q 253 976 243 986 q 264 939 264 965 l 264 338 z "},"Ý":{"ha":893,"x_min":13,"x_max":879,"o":"m 497 1256 q 576 1253 549 1283 l 611 1208 q 625 1188 622 1196 q 624 1173 628 1179 q 606 1161 619 1167 l 364 1060 q 310 1061 324 1044 l 290 1088 q 293 1132 265 1118 l 497 1256 m 849 986 q 879 972 874 986 q 872 939 885 958 l 533 389 l 533 47 q 523 10 533 21 q 486 0 513 0 l 407 0 q 370 10 381 0 q 360 47 360 21 l 360 392 l 19 939 q 13 972 7 958 q 44 986 19 986 l 142 986 q 202 980 186 986 q 233 944 218 974 l 449 569 l 665 944 q 697 980 681 974 q 758 986 714 986 l 849 986 z "},"Þ":{"ha":875,"x_min":96,"x_max":840,"o":"m 499 835 q 747 744 654 835 q 840 499 840 654 q 747 253 840 343 q 499 164 654 164 l 271 164 l 271 47 q 260 10 271 21 q 224 0 250 0 l 144 0 q 107 10 118 0 q 96 47 96 21 l 96 939 q 107 976 96 965 q 144 986 118 986 l 224 986 q 260 976 250 986 q 271 939 271 965 l 271 835 l 499 835 m 482 326 q 610 374 563 326 q 657 499 657 422 q 610 624 657 576 q 482 672 563 672 l 271 672 l 271 326 l 482 326 z "},"ß":{"ha":768,"x_min":81,"x_max":719,"o":"m 81 733 q 159 956 81 871 q 378 1042 238 1042 q 604 966 526 1042 q 682 757 682 890 q 579 544 682 607 l 579 540 q 719 286 719 485 q 641 74 719 149 q 421 0 563 0 l 349 0 q 312 10 322 0 q 301 47 301 21 l 301 115 q 312 152 301 142 q 349 163 322 163 l 404 163 q 506 199 471 163 q 542 307 542 236 q 506 412 542 374 q 407 450 471 450 l 350 450 q 313 460 324 450 q 303 497 303 471 l 303 560 q 313 597 303 586 q 350 607 324 607 l 392 607 q 481 644 449 607 q 513 740 513 681 q 477 844 513 808 q 376 879 442 879 q 278 840 314 879 q 242 735 242 801 l 242 47 q 231 10 242 21 q 194 0 221 0 l 129 0 q 92 10 103 0 q 81 47 81 21 l 81 733 z "},"à":{"ha":721,"x_min":43,"x_max":653,"o":"m 235 1010 q 314 1011 263 1042 l 518 889 q 521 844 546 875 l 501 818 q 447 817 486 800 l 206 918 q 188 929 192 922 q 186 944 183 936 q 200 965 189 953 l 235 1010 m 68 596 q 356 740 143 740 q 653 454 653 740 l 653 94 q 642 43 653 58 q 603 15 632 28 q 353 -21 519 -21 q 110 34 176 -21 q 43 204 43 89 q 116 378 43 328 q 358 428 189 428 q 492 421 374 428 l 492 460 q 460 563 492 528 q 353 597 428 597 q 207 531 250 597 q 181 505 192 508 q 147 510 171 501 l 92 533 q 68 596 46 554 m 492 289 q 340 296 346 296 q 236 274 265 296 q 207 206 207 251 q 234 135 207 158 q 338 113 261 113 q 476 124 426 113 q 492 143 492 129 l 492 289 z "},"á":{"ha":721,"x_min":43,"x_max":653,"o":"m 403 1011 q 481 1010 453 1043 l 517 965 q 531 936 532 947 q 510 918 531 925 l 268 817 q 215 818 228 800 l 196 844 q 197 889 171 875 l 403 1011 m 68 596 q 356 740 143 740 q 653 454 653 740 l 653 94 q 642 43 653 58 q 603 15 632 28 q 353 -21 519 -21 q 110 34 176 -21 q 43 204 43 89 q 116 378 43 328 q 358 428 189 428 q 492 421 374 428 l 492 460 q 460 563 492 528 q 353 597 428 597 q 207 531 250 597 q 181 505 192 508 q 147 510 171 501 l 92 533 q 68 596 46 554 m 492 289 q 340 296 346 296 q 236 274 265 296 q 207 206 207 251 q 234 135 207 158 q 338 113 261 113 q 476 124 426 113 q 492 143 492 129 l 492 289 z "},"â":{"ha":721,"x_min":43,"x_max":653,"o":"m 368 1017 q 407 1011 394 1017 q 444 981 419 1006 l 586 844 q 595 820 600 831 q 565 810 590 810 l 503 810 q 435 833 457 810 l 356 913 l 271 833 q 244 813 256 817 q 206 810 233 810 l 149 810 q 119 820 124 810 q 128 844 114 831 l 269 981 q 306 1011 293 1006 q 351 1017 319 1017 l 368 1017 m 68 596 q 356 740 143 740 q 653 454 653 740 l 653 94 q 642 43 653 58 q 603 15 632 28 q 353 -21 519 -21 q 110 34 176 -21 q 43 204 43 89 q 116 378 43 328 q 358 428 189 428 q 492 421 374 428 l 492 460 q 460 563 492 528 q 353 597 428 597 q 207 531 250 597 q 181 505 192 508 q 147 510 171 501 l 92 533 q 68 596 46 554 m 492 289 q 340 296 346 296 q 236 274 265 296 q 207 206 207 251 q 234 135 207 158 q 338 113 261 113 q 476 124 426 113 q 492 143 492 129 l 492 289 z "},"ã":{"ha":721,"x_min":43,"x_max":653,"o":"m 536 1006 q 563 979 563 1006 q 534 860 563 896 q 444 824 506 824 q 344 863 396 824 q 265 903 292 903 q 232 850 232 903 q 207 824 232 824 l 161 824 q 135 850 135 824 q 164 969 135 933 q 250 1006 193 1006 q 356 966 303 1006 q 433 926 408 926 q 465 979 465 926 q 492 1006 465 1006 l 536 1006 m 68 596 q 356 740 143 740 q 653 454 653 740 l 653 94 q 642 43 653 58 q 603 15 632 28 q 353 -21 519 -21 q 110 34 176 -21 q 43 204 43 89 q 116 378 43 328 q 358 428 189 428 q 492 421 374 428 l 492 460 q 460 563 492 528 q 353 597 428 597 q 207 531 250 597 q 181 505 192 508 q 147 510 171 501 l 92 533 q 68 596 46 554 m 492 289 q 340 296 346 296 q 236 274 265 296 q 207 206 207 251 q 234 135 207 158 q 338 113 261 113 q 476 124 426 113 q 492 143 492 129 l 492 289 z "},"ä":{"ha":721,"x_min":43,"x_max":653,"o":"m 221 985 q 278 969 263 985 q 294 913 294 953 l 294 900 q 278 844 294 860 q 221 828 263 828 l 211 828 q 154 844 169 828 q 139 900 139 860 l 139 913 q 154 969 139 953 q 211 985 169 985 l 221 985 m 499 985 q 556 969 540 985 q 571 913 571 953 l 571 900 q 556 844 571 860 q 499 828 540 828 l 490 828 q 432 843 447 828 q 417 900 417 858 l 417 913 q 432 969 417 953 q 490 985 447 985 l 499 985 m 68 596 q 356 740 143 740 q 653 454 653 740 l 653 94 q 642 43 653 58 q 603 15 632 28 q 353 -21 519 -21 q 110 34 176 -21 q 43 204 43 89 q 116 378 43 328 q 358 428 189 428 q 492 421 374 428 l 492 460 q 460 563 492 528 q 353 597 428 597 q 207 531 250 597 q 181 505 192 508 q 147 510 171 501 l 92 533 q 68 596 46 554 m 492 289 q 340 296 346 296 q 236 274 265 296 q 207 206 207 251 q 234 135 207 158 q 338 113 261 113 q 476 124 426 113 q 492 143 492 129 l 492 289 z "},"å":{"ha":721,"x_min":43,"x_max":653,"o":"m 208 943 q 251 1050 208 1008 q 361 1092 294 1092 q 468 1050 426 1092 q 510 943 510 1008 q 468 838 510 879 q 361 797 426 797 q 251 838 294 797 q 208 943 208 879 m 429 943 q 410 993 429 974 q 361 1013 392 1013 q 309 993 329 1013 q 289 943 289 974 q 309 895 289 914 q 361 876 329 876 q 410 895 392 876 q 429 943 429 914 m 68 596 q 356 740 143 740 q 653 454 653 740 l 653 94 q 642 43 653 58 q 603 15 632 28 q 353 -21 519 -21 q 110 34 176 -21 q 43 204 43 89 q 116 378 43 328 q 358 428 189 428 q 492 421 374 428 l 492 460 q 460 563 492 528 q 353 597 428 597 q 207 531 250 597 q 181 505 192 508 q 147 510 171 501 l 92 533 q 68 596 46 554 m 492 289 q 340 296 346 296 q 236 274 265 296 q 207 206 207 251 q 234 135 207 158 q 338 113 261 113 q 476 124 426 113 q 492 143 492 129 l 492 289 z "},"æ":{"ha":1110,"x_min":44,"x_max":1063,"o":"m 68 596 q 339 740 146 740 q 544 664 478 740 q 760 740 618 740 q 988 661 913 740 q 1063 454 1063 582 l 1063 368 q 1001 308 1063 308 l 619 308 l 619 257 q 760 118 619 118 q 903 192 856 118 q 934 217 919 214 q 974 208 949 221 l 1022 182 q 1039 113 1068 158 q 758 -21 957 -21 q 569 32 643 -21 q 336 -21 475 -21 q 107 33 169 -21 q 44 203 44 88 q 112 378 44 328 q 342 428 179 428 q 384 426 361 428 q 428 423 407 425 q 457 421 450 421 l 457 478 q 430 567 457 536 q 335 597 403 597 q 207 531 251 597 q 182 505 192 508 q 149 511 172 501 l 93 535 q 68 596 46 553 m 901 463 q 760 604 901 604 q 619 463 619 604 l 619 432 l 901 432 l 901 463 m 457 289 q 422 291 449 289 q 369 294 396 293 q 324 296 343 296 q 231 274 256 296 q 207 204 207 251 q 230 135 207 157 q 321 113 253 113 q 401 119 367 113 q 446 133 435 126 q 460 143 457 139 q 457 211 457 165 l 457 289 z "},"ç":{"ha":718,"x_min":57,"x_max":675,"o":"m 644 226 q 674 164 692 208 q 424 -17 613 3 l 400 -81 q 418 -79 406 -79 q 506 -115 472 -79 q 535 -204 540 -151 q 349 -340 521 -340 q 247 -322 282 -340 q 224 -283 224 -312 l 222 -242 q 244 -225 222 -214 q 328 -247 286 -247 q 396 -197 396 -247 q 336 -157 396 -158 q 301 -158 313 -157 q 279 -151 283 -160 q 282 -125 275 -143 l 328 -19 q 124 63 192 -10 q 57 264 57 136 l 57 456 q 137 666 57 592 q 376 740 217 740 q 570 690 494 740 q 674 558 646 640 q 675 519 682 532 q 643 496 668 506 l 582 476 q 544 474 557 467 q 521 506 531 481 q 369 599 485 599 q 218 463 218 599 l 218 257 q 257 156 218 192 q 369 121 296 121 q 521 217 485 121 q 544 247 531 242 q 582 244 557 253 l 644 226 z "},"è":{"ha":746,"x_min":56,"x_max":699,"o":"m 257 1010 q 336 1013 285 1040 l 540 889 q 543 844 568 875 l 524 819 q 469 817 510 801 l 228 918 q 210 930 214 924 q 208 944 206 936 q 222 965 211 953 l 257 1010 m 56 440 q 138 663 56 586 q 378 740 221 740 q 617 660 536 740 q 699 453 699 579 l 699 368 q 636 308 699 308 l 217 308 l 217 257 q 258 153 217 189 q 375 118 299 118 q 539 192 492 118 q 570 219 556 215 q 610 208 585 222 l 658 182 q 675 113 706 160 q 375 -21 593 -21 q 134 60 213 -21 q 56 276 56 140 l 56 440 m 538 463 q 497 567 538 531 q 378 604 457 604 q 258 567 300 604 q 217 463 217 531 l 217 432 l 538 432 l 538 463 z "},"é":{"ha":746,"x_min":56,"x_max":699,"o":"m 425 1013 q 503 1010 476 1042 l 539 965 q 553 937 554 947 q 532 918 553 926 l 290 817 q 238 819 250 801 l 218 844 q 219 889 193 875 l 425 1013 m 56 440 q 138 663 56 586 q 378 740 221 740 q 617 660 536 740 q 699 453 699 579 l 699 368 q 636 308 699 308 l 217 308 l 217 257 q 258 153 217 189 q 375 118 299 118 q 539 192 492 118 q 570 219 556 215 q 610 208 585 222 l 658 182 q 675 113 706 160 q 375 -21 593 -21 q 134 60 213 -21 q 56 276 56 140 l 56 440 m 538 463 q 497 567 538 531 q 378 604 457 604 q 258 567 300 604 q 217 463 217 531 l 217 432 l 538 432 l 538 463 z "},"ê":{"ha":746,"x_min":56,"x_max":699,"o":"m 390 1011 q 428 1006 415 1011 q 465 975 440 1000 l 603 842 q 583 808 633 808 l 522 808 q 481 812 494 808 q 456 831 468 815 l 376 908 l 296 831 q 268 812 279 815 q 231 808 257 808 l 175 808 q 154 842 124 808 l 293 975 q 330 1006 317 1000 q 374 1011 343 1011 l 390 1011 m 56 440 q 138 663 56 586 q 378 740 221 740 q 617 660 536 740 q 699 453 699 579 l 699 368 q 636 308 699 308 l 217 308 l 217 257 q 258 153 217 189 q 375 118 299 118 q 539 192 492 118 q 570 219 556 215 q 610 208 585 222 l 658 182 q 675 113 706 160 q 375 -21 593 -21 q 134 60 213 -21 q 56 276 56 140 l 56 440 m 538 463 q 497 567 538 531 q 378 604 457 604 q 258 567 300 604 q 217 463 217 531 l 217 432 l 538 432 l 538 463 z "},"ë":{"ha":746,"x_min":56,"x_max":699,"o":"m 243 985 q 301 969 285 985 q 317 913 317 953 l 317 900 q 301 844 317 860 q 243 828 285 828 l 233 828 q 176 844 192 828 q 161 900 161 860 l 161 913 q 176 969 161 953 q 233 985 192 985 l 243 985 m 521 985 q 578 969 563 985 q 593 913 593 953 l 593 900 q 578 844 593 860 q 521 828 563 828 l 513 828 q 454 843 469 828 q 439 900 439 858 l 439 913 q 454 969 439 953 q 513 985 469 985 l 521 985 m 56 440 q 138 663 56 586 q 378 740 221 740 q 617 660 536 740 q 699 453 699 579 l 699 368 q 636 308 699 308 l 217 308 l 217 257 q 258 153 217 189 q 375 118 299 118 q 539 192 492 118 q 570 219 556 215 q 610 208 585 222 l 658 182 q 675 113 706 160 q 375 -21 593 -21 q 134 60 213 -21 q 56 276 56 140 l 56 440 m 538 463 q 497 567 538 531 q 378 604 457 604 q 258 567 300 604 q 217 463 217 531 l 217 432 l 538 432 l 538 463 z "},"ì":{"ha":321,"x_min":8,"x_max":325,"o":"m 57 1008 q 136 1011 88 1042 l 308 889 q 324 870 324 879 q 311 843 325 861 l 292 818 q 238 817 276 800 l 28 917 q 10 928 14 922 q 8 943 6 935 q 22 964 11 951 l 57 1008 m 199 719 q 232 710 222 719 q 242 678 242 701 l 242 43 q 232 10 242 19 q 199 0 222 0 l 122 0 q 90 10 99 0 q 81 43 81 19 l 81 678 q 90 710 81 701 q 122 719 99 719 l 199 719 z "},"í":{"ha":321,"x_min":1,"x_max":319,"o":"m 190 1011 q 268 1008 239 1042 l 304 964 q 319 935 319 946 q 297 917 318 925 l 89 817 q 35 818 49 800 l 15 843 q 2 870 1 861 q 18 889 3 879 l 190 1011 m 199 719 q 231 710 222 719 q 240 678 240 701 l 240 43 q 231 10 240 19 q 199 0 222 0 l 122 0 q 89 10 99 0 q 79 43 79 19 l 79 678 q 89 710 79 701 q 122 719 99 719 l 199 719 z "},"î":{"ha":321,"x_min":-37,"x_max":358,"o":"m 358 844 q 338 810 388 810 l 282 810 q 238 813 251 810 q 215 833 225 817 l 160 910 l 100 833 q 77 813 89 817 q 36 810 65 810 l -18 810 q -37 844 -67 810 l 74 975 q 109 1006 94 1000 q 156 1011 124 1011 l 171 1011 q 212 1006 199 1011 q 246 975 225 1000 l 358 844 m 199 719 q 231 710 222 719 q 240 678 240 701 l 240 43 q 231 10 240 19 q 199 0 222 0 l 122 0 q 89 10 99 0 q 79 43 79 19 l 79 678 q 89 710 79 701 q 122 719 99 719 l 199 719 z "},"ï":{"ha":321,"x_min":-36,"x_max":357,"o":"m 46 989 q 103 973 88 989 q 119 917 119 957 l 119 904 q 103 848 119 864 q 46 832 88 832 l 36 832 q -21 848 -6 832 q -36 904 -36 864 l -36 917 q -21 973 -36 957 q 36 989 -6 989 l 46 989 m 285 989 q 342 973 326 989 q 357 917 357 957 l 357 904 q 342 848 357 864 q 285 832 326 832 l 275 832 q 217 848 233 832 q 201 904 201 864 l 201 917 q 217 973 201 957 q 275 989 233 989 l 285 989 m 199 719 q 231 710 222 719 q 240 678 240 701 l 240 43 q 231 10 240 19 q 199 0 222 0 l 122 0 q 89 10 99 0 q 79 43 79 19 l 79 678 q 89 710 79 701 q 122 719 99 719 l 199 719 z "},"ð":{"ha":769,"x_min":56,"x_max":696,"o":"m 544 1039 q 560 1049 554 1049 q 576 1040 565 1049 l 621 1007 q 622 976 639 993 l 578 926 q 696 551 696 814 l 696 261 q 614 53 696 128 q 376 -21 532 -21 q 138 53 221 -21 q 56 261 56 128 l 56 419 q 133 625 56 549 q 342 701 211 701 q 543 625 490 701 q 474 807 536 747 l 415 743 q 400 733 406 733 q 383 740 394 733 l 343 769 q 342 801 325 783 l 390 856 q 208 885 319 885 q 173 894 182 885 q 163 926 164 903 l 161 989 q 170 1022 161 1013 q 204 1032 179 1032 q 494 981 388 1032 l 544 1039 m 535 419 q 376 556 535 556 q 218 419 218 556 l 218 261 q 258 160 218 196 q 376 125 299 125 q 494 160 454 125 q 535 261 535 196 l 535 419 z "},"ñ":{"ha":768,"x_min":78,"x_max":694,"o":"m 567 1006 q 593 979 593 1006 q 565 859 593 894 q 476 824 538 824 q 375 864 428 824 q 297 904 322 904 q 264 851 264 904 q 239 824 264 824 l 193 824 q 167 851 167 824 q 195 970 167 935 q 282 1006 224 1006 q 388 966 335 1006 q 464 926 440 926 q 497 979 497 926 q 522 1006 497 1006 l 567 1006 m 132 693 q 406 740 250 740 q 623 668 551 740 q 694 461 694 596 l 694 43 q 685 10 694 19 q 651 0 675 0 l 575 0 q 542 10 551 0 q 533 43 533 19 l 533 457 q 382 593 533 593 q 249 575 315 593 q 239 561 239 571 l 239 43 q 230 10 239 19 q 197 0 221 0 l 121 0 q 88 10 97 0 q 78 43 78 19 l 78 614 q 88 663 78 647 q 132 693 99 679 z "},"ò":{"ha":754,"x_min":57,"x_max":697,"o":"m 257 1010 q 335 1011 283 1042 l 539 889 q 542 844 567 875 l 522 818 q 468 817 510 800 l 226 918 q 221 965 192 931 l 257 1010 m 57 463 q 140 667 57 593 q 376 740 224 740 q 614 667 531 740 q 697 463 697 593 l 697 257 q 614 53 697 126 q 376 -21 531 -21 q 140 53 224 -21 q 57 257 57 126 l 57 463 m 536 463 q 494 560 536 526 q 376 594 453 594 q 259 560 300 594 q 218 463 218 526 l 218 257 q 259 160 218 194 q 376 125 300 125 q 494 160 453 125 q 536 257 536 194 l 536 463 z "},"ó":{"ha":754,"x_min":57,"x_max":697,"o":"m 424 1011 q 503 1010 475 1042 l 538 965 q 551 944 549 953 q 550 929 554 936 q 532 918 546 922 l 290 817 q 236 818 251 800 l 217 844 q 219 889 192 875 l 424 1011 m 57 463 q 140 667 57 593 q 376 740 224 740 q 614 667 531 740 q 697 463 697 593 l 697 257 q 614 53 697 126 q 376 -21 531 -21 q 140 53 224 -21 q 57 257 57 126 l 57 463 m 536 463 q 494 560 536 526 q 376 594 453 594 q 259 560 300 594 q 218 463 218 526 l 218 257 q 259 160 218 194 q 376 125 300 125 q 494 160 453 125 q 536 257 536 194 l 536 463 z "},"ô":{"ha":754,"x_min":57,"x_max":697,"o":"m 389 1011 q 427 1006 414 1011 q 464 974 440 1000 l 601 842 q 611 817 615 828 q 582 807 607 807 l 521 807 q 454 831 476 807 l 376 908 l 294 831 q 268 811 279 815 q 231 807 257 807 l 174 807 q 144 817 149 807 q 154 842 140 828 l 292 974 q 330 1005 317 999 q 372 1011 343 1011 l 389 1011 m 57 463 q 140 667 57 593 q 376 740 224 740 q 614 667 531 740 q 697 463 697 593 l 697 257 q 614 53 697 126 q 376 -21 531 -21 q 140 53 224 -21 q 57 257 57 126 l 57 463 m 536 463 q 494 560 536 526 q 376 594 453 594 q 259 560 300 594 q 218 463 218 526 l 218 257 q 259 160 218 194 q 376 125 300 125 q 494 160 453 125 q 536 257 536 194 l 536 463 z "},"õ":{"ha":754,"x_min":57,"x_max":697,"o":"m 557 1006 q 583 979 583 1006 q 556 859 583 894 q 467 824 528 824 q 365 863 418 824 q 288 903 313 903 q 254 850 254 903 q 229 824 254 824 l 183 824 q 157 850 157 824 q 185 969 157 933 q 272 1006 214 1006 q 378 966 325 1006 q 454 926 431 926 q 488 979 488 926 q 513 1006 488 1006 l 557 1006 m 57 463 q 140 667 57 593 q 376 740 224 740 q 614 667 531 740 q 697 463 697 593 l 697 257 q 614 53 697 126 q 376 -21 531 -21 q 140 53 224 -21 q 57 257 57 126 l 57 463 m 536 463 q 494 560 536 526 q 376 594 453 594 q 259 560 300 594 q 218 463 218 526 l 218 257 q 259 160 218 194 q 376 125 300 125 q 494 160 453 125 q 536 257 536 194 l 536 463 z "},"ö":{"ha":754,"x_min":57,"x_max":697,"o":"m 242 985 q 299 969 283 985 q 315 913 315 953 l 315 900 q 299 844 315 860 q 242 828 283 828 l 232 828 q 176 844 192 828 q 161 900 161 860 l 161 913 q 176 969 161 953 q 232 985 192 985 l 242 985 m 521 985 q 577 969 561 985 q 593 913 593 953 l 593 900 q 577 844 593 860 q 521 828 561 828 l 511 828 q 453 844 469 828 q 438 900 438 860 l 438 913 q 453 969 438 953 q 511 985 469 985 l 521 985 m 57 463 q 140 667 57 593 q 376 740 224 740 q 614 667 531 740 q 697 463 697 593 l 697 257 q 614 53 697 126 q 376 -21 531 -21 q 140 53 224 -21 q 57 257 57 126 l 57 463 m 536 463 q 494 560 536 526 q 376 594 453 594 q 259 560 300 594 q 218 463 218 526 l 218 257 q 259 160 218 194 q 376 125 300 125 q 494 160 453 125 q 536 257 536 194 l 536 463 z "},"÷":{"ha":767,"x_min":56,"x_max":711,"o":"m 389 804 q 458 785 439 804 q 478 715 478 765 l 478 703 q 458 633 478 651 q 389 614 439 614 l 379 614 q 309 633 328 614 q 290 703 290 651 l 290 715 q 309 785 290 765 q 379 804 328 804 l 389 804 m 664 529 q 701 519 692 529 q 711 482 711 508 l 711 421 q 701 384 711 394 q 664 374 690 374 l 104 374 q 67 384 78 374 q 56 421 56 394 l 56 482 q 66 519 56 508 q 104 529 76 529 l 664 529 m 389 290 q 458 272 439 290 q 478 201 478 253 l 478 189 q 458 119 478 139 q 389 100 439 100 l 379 100 q 309 119 328 100 q 290 189 290 139 l 290 201 q 309 272 290 253 q 379 290 328 290 l 389 290 z "},"ø":{"ha":754,"x_min":57,"x_max":697,"o":"m 668 767 q 675 751 683 767 l 619 663 q 697 463 697 592 l 697 257 q 614 53 697 126 q 376 -21 531 -21 q 207 13 278 -21 l 178 -35 q 147 -49 167 -49 l 85 -49 q 78 -33 68 -49 l 136 58 q 57 257 57 131 l 57 463 q 140 667 57 593 q 376 740 224 740 q 547 708 476 740 l 576 753 q 604 767 586 767 l 668 767 m 465 578 q 376 594 428 594 q 259 560 300 594 q 218 463 218 526 l 218 257 q 233 211 218 231 l 465 578 m 289 143 q 376 125 328 125 q 494 160 453 125 q 536 257 536 194 l 536 463 q 522 510 536 489 l 289 143 z "},"ù":{"ha":768,"x_min":74,"x_max":690,"o":"m 263 1010 q 340 1011 289 1042 l 544 889 q 547 844 572 875 l 528 818 q 474 817 515 800 l 232 918 q 226 965 197 931 l 263 1010 m 647 719 q 681 710 671 719 q 690 678 690 701 l 690 106 q 680 57 690 72 q 636 28 669 42 q 364 -21 514 -21 q 146 51 218 -21 q 74 258 74 124 l 74 678 q 83 710 74 701 q 117 719 93 719 l 193 719 q 226 710 217 719 q 235 678 235 701 l 235 264 q 386 126 235 126 q 514 143 458 126 q 529 167 529 149 l 529 678 q 539 710 529 701 q 572 719 549 719 l 647 719 z "},"ú":{"ha":768,"x_min":74,"x_max":690,"o":"m 429 1011 q 508 1010 481 1042 l 543 965 q 557 944 554 953 q 556 929 560 936 q 538 918 551 922 l 296 817 q 242 818 257 800 l 222 844 q 225 889 197 875 l 429 1011 m 647 719 q 681 710 671 719 q 690 678 690 701 l 690 106 q 680 57 690 72 q 636 28 669 42 q 364 -21 514 -21 q 146 51 218 -21 q 74 258 74 124 l 74 678 q 83 710 74 701 q 117 719 93 719 l 193 719 q 226 710 217 719 q 235 678 235 701 l 235 264 q 386 126 235 126 q 514 143 458 126 q 529 167 529 149 l 529 678 q 539 710 529 701 q 572 719 549 719 l 647 719 z "},"û":{"ha":768,"x_min":74,"x_max":690,"o":"m 396 1017 q 435 1011 422 1017 q 472 981 447 1006 l 613 844 q 622 820 626 831 q 593 810 618 810 l 531 810 q 463 833 485 810 l 382 913 l 299 833 q 272 813 282 817 q 233 810 261 810 l 175 810 q 145 820 150 810 q 154 844 140 831 l 296 981 q 333 1011 319 1006 q 378 1017 346 1017 l 396 1017 m 647 719 q 681 710 671 719 q 690 678 690 701 l 690 106 q 680 57 690 72 q 636 28 669 42 q 364 -21 514 -21 q 146 51 218 -21 q 74 258 74 124 l 74 678 q 83 710 74 701 q 117 719 93 719 l 193 719 q 226 710 217 719 q 235 678 235 701 l 235 264 q 386 126 235 126 q 514 143 458 126 q 529 167 529 149 l 529 678 q 539 710 529 701 q 572 719 549 719 l 647 719 z "},"ü":{"ha":768,"x_min":74,"x_max":690,"o":"m 247 985 q 305 969 289 985 q 321 913 321 953 l 321 900 q 305 844 321 860 q 247 828 289 828 l 238 828 q 182 844 197 828 q 167 900 167 860 l 167 913 q 182 969 167 953 q 238 985 197 985 l 247 985 m 526 985 q 583 969 567 985 q 599 913 599 953 l 599 900 q 583 844 599 860 q 526 828 567 828 l 517 828 q 459 844 475 828 q 443 900 443 860 l 443 913 q 459 969 443 953 q 517 985 475 985 l 526 985 m 647 719 q 681 710 671 719 q 690 678 690 701 l 690 106 q 680 57 690 72 q 636 28 669 42 q 364 -21 514 -21 q 146 51 218 -21 q 74 258 74 124 l 74 678 q 83 710 74 701 q 117 719 93 719 l 193 719 q 226 710 217 719 q 235 678 235 701 l 235 264 q 386 126 235 126 q 514 143 458 126 q 529 167 529 149 l 529 678 q 539 710 529 701 q 572 719 549 719 l 647 719 z "},"ý":{"ha":771,"x_min":74,"x_max":690,"o":"m 429 1011 q 508 1010 481 1042 l 543 965 q 557 944 554 953 q 556 929 560 936 q 538 918 551 922 l 296 817 q 242 818 257 800 l 222 844 q 225 889 197 875 l 429 1011 m 647 719 q 681 710 671 719 q 690 678 690 701 l 690 -24 q 616 -247 690 -167 q 385 -326 542 -326 q 96 -193 178 -326 q 114 -124 67 -147 l 167 -94 q 206 -85 192 -82 q 236 -111 221 -89 q 382 -182 281 -182 q 529 -32 529 -182 l 529 33 q 364 14 443 14 q 146 86 218 14 q 74 293 74 158 l 74 678 q 83 710 74 701 q 117 719 93 719 l 193 719 q 226 710 217 719 q 235 678 235 701 l 235 299 q 386 161 235 161 q 529 181 454 161 l 529 678 q 539 710 529 701 q 572 719 549 719 l 647 719 z "},"þ":{"ha":756,"x_min":81,"x_max":697,"o":"m 81 983 q 90 1017 81 1007 q 124 1026 100 1026 l 200 1026 q 233 1017 224 1026 q 242 983 242 1007 l 242 721 q 404 739 326 739 q 624 667 551 739 q 697 458 697 594 l 697 269 q 388 -21 697 -21 q 242 4 338 -21 l 242 -262 q 233 -296 242 -286 q 200 -306 224 -306 l 124 -306 q 90 -296 100 -306 q 81 -262 81 -286 l 81 983 m 536 453 q 497 556 536 521 q 382 592 457 592 q 242 571 328 592 l 242 147 q 376 126 325 126 q 536 274 536 126 l 536 453 z "},"ÿ":{"ha":771,"x_min":74,"x_max":690,"o":"m 247 985 q 305 969 289 985 q 321 913 321 953 l 321 900 q 305 844 321 860 q 247 828 289 828 l 238 828 q 182 844 197 828 q 167 900 167 860 l 167 913 q 182 969 167 953 q 238 985 197 985 l 247 985 m 526 985 q 583 969 567 985 q 599 913 599 953 l 599 900 q 583 844 599 860 q 526 828 567 828 l 517 828 q 459 844 475 828 q 443 900 443 860 l 443 913 q 459 969 443 953 q 517 985 475 985 l 526 985 m 647 719 q 681 710 671 719 q 690 678 690 701 l 690 -24 q 616 -247 690 -167 q 385 -326 542 -326 q 96 -193 178 -326 q 114 -124 67 -147 l 167 -94 q 206 -85 192 -82 q 236 -111 221 -89 q 382 -182 281 -182 q 529 -32 529 -182 l 529 33 q 364 14 443 14 q 146 86 218 14 q 74 293 74 158 l 74 678 q 83 710 74 701 q 117 719 93 719 l 193 719 q 226 710 217 719 q 235 678 235 701 l 235 299 q 386 161 235 161 q 529 181 454 161 l 529 678 q 539 710 529 701 q 572 719 549 719 l 647 719 z "},"Ā":{"ha":914,"x_min":14,"x_max":899,"o":"m 617 1208 q 649 1200 640 1208 q 657 1168 657 1192 l 657 1133 q 649 1101 657 1110 q 617 1093 640 1093 l 296 1093 q 264 1101 272 1093 q 256 1133 256 1110 l 256 1168 q 265 1200 256 1192 q 296 1208 274 1208 l 617 1208 m 899 46 q 867 0 915 0 l 794 0 q 734 8 751 0 q 708 42 717 17 l 644 221 l 261 221 l 196 42 q 170 8 188 17 q 110 0 153 0 l 46 0 q 14 46 -3 0 l 361 949 q 383 980 371 972 q 419 988 394 988 l 493 988 q 531 980 518 988 q 551 950 543 972 l 899 46 m 490 657 q 469 737 478 694 q 458 803 461 779 l 457 826 l 447 826 q 417 658 447 747 l 310 364 l 596 364 l 490 657 z "},"ā":{"ha":721,"x_min":43,"x_max":653,"o":"m 517 965 q 549 957 540 965 q 557 925 557 949 l 557 890 q 549 858 557 867 q 517 850 540 850 l 194 850 q 163 858 171 850 q 154 890 154 867 l 154 925 q 163 957 154 949 q 194 965 172 965 l 517 965 m 68 596 q 356 740 143 740 q 653 454 653 740 l 653 94 q 642 43 653 58 q 603 15 632 28 q 353 -21 519 -21 q 110 34 176 -21 q 43 204 43 89 q 116 378 43 328 q 358 428 189 428 q 492 421 374 428 l 492 460 q 460 563 492 528 q 353 597 428 597 q 207 531 250 597 q 181 505 192 508 q 147 510 171 501 l 92 533 q 68 596 46 554 m 492 289 q 340 296 346 296 q 236 274 265 296 q 207 206 207 251 q 234 135 207 158 q 338 113 261 113 q 476 124 426 113 q 492 143 492 129 l 492 289 z "},"Ă":{"ha":914,"x_min":14,"x_max":899,"o":"m 672 1199 q 592 1093 649 1131 q 457 1056 536 1056 q 322 1093 378 1056 q 243 1199 267 1131 q 261 1238 233 1226 l 317 1258 q 360 1244 349 1269 q 457 1172 383 1172 q 554 1244 531 1172 q 590 1260 565 1269 l 653 1238 q 674 1222 669 1231 q 672 1199 678 1214 m 899 46 q 867 0 915 0 l 794 0 q 734 8 751 0 q 708 42 717 17 l 644 221 l 261 221 l 196 42 q 170 8 188 17 q 110 0 153 0 l 46 0 q 14 46 -3 0 l 361 949 q 383 980 371 972 q 419 988 394 988 l 493 988 q 531 980 518 988 q 551 950 543 972 l 899 46 m 490 657 q 469 737 478 694 q 458 803 461 779 l 457 826 l 447 826 q 417 658 447 747 l 310 364 l 596 364 l 490 657 z "},"ă":{"ha":721,"x_min":43,"x_max":653,"o":"m 571 953 q 492 848 549 885 q 356 811 435 811 q 220 848 276 811 q 142 953 164 885 q 161 993 132 982 l 215 1014 q 258 1000 247 1024 q 356 926 282 926 q 453 1000 429 926 q 489 1015 464 1022 l 553 993 q 572 978 568 986 q 571 953 576 969 m 68 596 q 356 740 143 740 q 653 454 653 740 l 653 94 q 642 43 653 58 q 603 15 632 28 q 353 -21 519 -21 q 110 34 176 -21 q 43 204 43 89 q 116 378 43 328 q 358 428 189 428 q 492 421 374 428 l 492 460 q 460 563 492 528 q 353 597 428 597 q 207 531 250 597 q 181 505 192 508 q 147 510 171 501 l 92 533 q 68 596 46 554 m 492 289 q 340 296 346 296 q 236 274 265 296 q 207 206 207 251 q 234 135 207 158 q 338 113 261 113 q 476 124 426 113 q 492 143 492 129 l 492 289 z "},"Ą":{"ha":914,"x_min":15,"x_max":915,"o":"m 494 988 q 532 980 519 988 q 553 950 544 972 l 900 43 q 896 3 910 17 q 815 -109 842 -51 q 796 -193 788 -167 q 832 -222 804 -222 q 869 -208 854 -222 q 896 -217 888 -197 l 915 -262 q 913 -292 924 -281 q 781 -340 861 -340 q 657 -257 674 -340 q 676 -133 646 -201 q 774 1 706 -64 q 728 12 740 3 q 710 43 717 21 l 644 224 l 264 224 l 197 42 q 171 8 188 17 q 111 0 154 0 l 47 0 q 15 46 -1 0 l 363 949 q 383 980 371 972 q 421 988 396 988 l 494 988 m 508 615 q 482 708 493 658 q 466 790 471 758 q 458 826 461 821 l 449 826 q 442 790 446 821 q 427 709 438 758 q 401 617 417 660 l 313 365 l 596 365 l 508 615 z "},"ą":{"ha":725,"x_min":43,"x_max":653,"o":"m 68 596 q 356 740 143 740 q 653 454 653 740 l 653 94 q 638 38 653 54 q 551 -104 575 -43 q 535 -193 526 -165 q 571 -222 543 -222 q 608 -208 590 -222 q 635 -217 626 -197 l 653 -261 q 651 -290 663 -281 q 519 -340 600 -340 q 396 -257 413 -340 q 413 -138 386 -204 q 500 -10 440 -72 q 353 -21 436 -21 q 110 34 176 -21 q 43 204 43 89 q 116 378 43 328 q 358 428 189 428 q 492 421 374 428 l 492 460 q 460 563 492 528 q 353 597 428 597 q 207 531 250 597 q 181 505 192 508 q 147 510 171 501 l 92 533 q 68 596 46 554 m 492 289 q 340 296 346 296 q 236 274 265 296 q 207 206 207 251 q 234 135 207 158 q 338 113 261 113 q 476 124 426 113 q 492 143 492 129 l 492 289 z "},"Ć":{"ha":889,"x_min":68,"x_max":844,"o":"m 519 1256 q 597 1253 571 1285 l 633 1208 q 648 1180 649 1190 q 626 1161 647 1169 l 385 1060 q 332 1061 344 1044 l 313 1088 q 314 1132 288 1118 l 519 1256 m 68 646 q 172 910 68 814 q 465 1007 275 1007 q 843 775 761 1007 q 814 714 860 731 l 738 688 q 700 685 713 679 q 678 717 688 692 q 465 844 632 844 q 301 794 358 844 q 243 647 243 743 l 243 340 q 301 193 243 244 q 465 142 358 142 q 678 271 631 142 q 701 303 689 297 q 739 300 714 310 l 814 274 q 844 213 860 257 q 465 -21 763 -21 q 172 76 275 -21 q 68 342 68 172 l 68 646 z "},"ć":{"ha":718,"x_min":57,"x_max":675,"o":"m 424 1011 q 501 1010 474 1043 l 538 965 q 552 936 553 947 q 531 918 551 925 l 289 817 q 236 818 249 800 l 217 844 q 218 889 192 875 l 424 1011 m 57 456 q 137 666 57 592 q 376 740 217 740 q 570 690 494 740 q 674 558 646 640 q 675 519 682 532 q 643 496 668 506 l 582 476 q 544 474 557 467 q 521 506 531 481 q 369 599 485 599 q 218 463 218 599 l 218 257 q 257 156 218 192 q 369 121 296 121 q 521 217 485 121 q 544 247 531 242 q 582 244 557 253 l 644 226 q 674 164 692 208 q 364 -21 601 -21 q 133 53 210 -21 q 57 264 57 128 l 57 456 z "},"Ĉ":{"ha":889,"x_min":68,"x_max":844,"o":"m 485 1263 q 523 1257 510 1263 q 561 1225 536 1251 l 703 1089 q 712 1065 717 1075 q 682 1054 707 1054 l 619 1054 q 551 1079 574 1054 l 472 1158 l 388 1079 q 361 1058 372 1063 q 322 1054 350 1054 l 265 1054 q 235 1065 240 1054 q 244 1089 231 1075 l 386 1225 q 424 1256 411 1250 q 468 1263 438 1263 l 485 1263 m 68 646 q 172 910 68 814 q 465 1007 275 1007 q 843 775 761 1007 q 814 714 860 731 l 738 688 q 700 685 713 679 q 678 717 688 692 q 465 844 632 844 q 301 794 358 844 q 243 647 243 743 l 243 340 q 301 193 243 244 q 465 142 358 142 q 678 271 631 142 q 701 303 689 297 q 739 300 714 310 l 814 274 q 844 213 860 257 q 465 -21 763 -21 q 172 76 275 -21 q 68 342 68 172 l 68 646 z "},"ĉ":{"ha":718,"x_min":57,"x_max":675,"o":"m 389 1011 q 426 1006 414 1011 q 464 974 439 1000 l 601 842 q 611 817 615 828 q 582 807 607 807 l 521 807 q 454 831 475 807 l 375 908 l 294 831 q 267 810 278 814 q 229 807 257 807 l 174 807 q 144 817 149 807 q 153 842 139 828 l 292 974 q 328 1005 315 999 q 372 1011 342 1011 l 389 1011 m 57 456 q 137 666 57 592 q 376 740 217 740 q 570 690 494 740 q 674 558 646 640 q 675 519 682 532 q 643 496 668 506 l 582 476 q 544 474 557 467 q 521 506 531 481 q 369 599 485 599 q 218 463 218 599 l 218 257 q 257 156 218 192 q 369 121 296 121 q 521 217 485 121 q 544 247 531 242 q 582 244 557 253 l 644 226 q 674 164 692 208 q 364 -21 601 -21 q 133 53 210 -21 q 57 264 57 128 l 57 456 z "},"Ċ":{"ha":889,"x_min":68,"x_max":844,"o":"m 476 1233 q 535 1217 519 1233 q 550 1158 550 1201 l 550 1147 q 535 1089 550 1104 q 476 1074 519 1074 l 468 1074 q 409 1089 425 1074 q 393 1147 393 1104 l 393 1158 q 409 1217 393 1201 q 468 1233 425 1233 l 476 1233 m 68 646 q 172 910 68 814 q 465 1007 275 1007 q 843 775 761 1007 q 814 714 860 731 l 738 688 q 700 685 713 679 q 678 717 688 692 q 465 844 632 844 q 301 794 358 844 q 243 647 243 743 l 243 340 q 301 193 243 244 q 465 142 358 142 q 678 271 631 142 q 701 303 689 297 q 739 300 714 310 l 814 274 q 844 213 860 257 q 465 -21 763 -21 q 172 76 275 -21 q 68 342 68 172 l 68 646 z "},"ċ":{"ha":718,"x_min":57,"x_max":675,"o":"m 381 988 q 439 972 424 988 q 454 913 454 956 l 454 903 q 439 844 454 860 q 381 828 424 828 l 372 828 q 313 843 328 828 q 297 903 297 858 l 297 913 q 313 972 297 956 q 372 988 328 988 l 381 988 m 57 456 q 137 666 57 592 q 376 740 217 740 q 570 690 494 740 q 674 558 646 640 q 675 519 682 532 q 643 496 668 506 l 582 476 q 544 474 557 467 q 521 506 531 481 q 369 599 485 599 q 218 463 218 599 l 218 257 q 257 156 218 192 q 369 121 296 121 q 521 217 485 121 q 544 247 531 242 q 582 244 557 253 l 644 226 q 674 164 692 208 q 364 -21 601 -21 q 133 53 210 -21 q 57 264 57 128 l 57 456 z "},"Č":{"ha":889,"x_min":68,"x_max":844,"o":"m 678 1260 q 707 1249 703 1260 q 697 1225 711 1239 l 557 1090 q 519 1058 532 1064 q 481 1053 506 1053 l 464 1053 q 419 1058 432 1053 q 381 1090 406 1064 l 240 1225 q 231 1249 226 1239 q 260 1260 235 1260 l 318 1260 q 357 1256 346 1260 q 383 1236 368 1253 l 467 1157 l 547 1236 q 574 1256 561 1251 q 615 1260 588 1260 l 678 1260 m 68 646 q 172 910 68 814 q 465 1007 275 1007 q 843 775 761 1007 q 814 714 860 731 l 738 688 q 700 685 713 679 q 678 717 688 692 q 465 844 632 844 q 301 794 358 844 q 243 647 243 743 l 243 340 q 301 193 243 244 q 465 142 358 142 q 678 271 631 142 q 701 303 689 297 q 739 300 714 310 l 814 274 q 844 213 860 257 q 465 -21 763 -21 q 172 76 275 -21 q 68 342 68 172 l 68 646 z "},"č":{"ha":718,"x_min":57,"x_max":675,"o":"m 564 993 q 592 983 588 993 q 583 961 596 974 l 454 835 q 419 806 431 811 q 383 800 407 800 l 368 800 q 328 806 340 800 q 293 835 315 811 l 164 961 q 182 993 135 993 l 235 993 q 270 990 260 993 q 296 971 281 986 l 372 897 l 444 971 q 507 993 465 993 l 564 993 m 57 456 q 137 666 57 592 q 376 740 217 740 q 570 690 494 740 q 674 558 646 640 q 675 519 682 532 q 643 496 668 506 l 582 476 q 544 474 557 467 q 521 506 531 481 q 369 599 485 599 q 218 463 218 599 l 218 257 q 257 156 218 192 q 369 121 296 121 q 521 217 485 121 q 544 247 531 242 q 582 244 557 253 l 644 226 q 674 164 692 208 q 364 -21 601 -21 q 133 53 210 -21 q 57 264 57 128 l 57 456 z "},"Ď":{"ha":925,"x_min":96,"x_max":858,"o":"m 643 1260 q 672 1249 668 1260 q 663 1225 676 1239 l 522 1090 q 483 1058 496 1064 q 444 1053 471 1053 l 428 1053 q 383 1058 396 1053 q 346 1090 369 1064 l 204 1225 q 195 1249 190 1239 q 225 1260 200 1260 l 282 1260 q 321 1256 310 1260 q 349 1236 332 1253 l 432 1157 l 513 1236 q 538 1256 525 1251 q 581 1260 551 1260 l 643 1260 m 456 986 q 753 888 647 986 q 858 619 858 790 l 858 367 q 753 98 858 196 q 456 0 647 0 l 144 0 q 107 10 118 0 q 96 47 96 21 l 96 939 q 107 976 96 965 q 144 986 118 986 l 456 986 m 685 621 q 626 772 685 719 q 457 824 567 824 l 271 824 l 271 163 l 457 163 q 626 215 567 163 q 685 365 685 267 l 685 621 z "},"ď":{"ha":842,"x_min":58,"x_max":936,"o":"m 58 450 q 131 666 58 592 q 349 740 204 740 q 514 722 413 740 l 514 985 q 523 1018 514 1008 q 556 1028 532 1028 l 632 1028 q 665 1018 656 1028 q 675 985 675 1008 l 675 100 q 664 52 675 67 q 619 24 653 38 q 360 -21 501 -21 q 58 260 58 -21 l 58 450 m 865 746 q 850 715 858 724 q 822 707 842 707 l 779 707 q 756 713 761 707 q 753 736 750 718 l 786 983 q 800 1019 790 1010 q 836 1028 810 1028 l 899 1028 q 936 983 950 1028 l 865 746 m 514 575 q 379 593 431 593 q 219 446 219 593 l 219 265 q 375 126 219 126 q 503 142 449 126 q 514 157 514 146 l 514 575 z "},"Đ":{"ha":947,"x_min":8,"x_max":881,"o":"m 478 986 q 775 888 669 986 q 881 619 881 790 l 881 367 q 775 98 881 196 q 478 0 669 0 l 165 0 q 128 10 139 0 q 118 47 118 21 l 118 453 l 36 453 q 14 459 19 453 q 8 483 8 465 l 8 535 q 36 565 8 565 l 118 565 l 118 939 q 128 976 118 965 q 165 986 139 986 l 478 986 m 706 621 q 647 772 706 719 q 478 824 589 824 l 292 824 l 292 565 l 476 565 q 499 559 493 565 q 504 535 504 553 l 504 483 q 499 459 504 465 q 476 453 493 453 l 292 453 l 292 163 l 478 163 q 647 215 588 163 q 706 365 706 267 l 706 621 z "},"đ":{"ha":753,"x_min":58,"x_max":778,"o":"m 749 926 q 772 920 765 926 q 778 897 778 914 l 778 857 q 772 833 778 839 q 749 826 765 826 l 675 826 l 675 100 q 665 51 675 65 q 621 24 654 38 q 360 -21 503 -21 q 133 51 208 -21 q 58 260 58 124 l 58 450 q 132 666 58 592 q 349 740 206 740 q 514 722 417 740 l 514 826 l 346 826 q 324 833 329 826 q 318 857 318 839 l 318 897 q 346 926 318 926 l 514 926 l 514 985 q 524 1018 514 1008 q 557 1028 533 1028 l 632 1028 q 665 1018 656 1028 q 675 985 675 1008 l 675 926 l 749 926 m 514 575 q 381 593 431 593 q 219 446 219 593 l 219 265 q 260 162 219 197 q 375 126 300 126 q 503 142 449 126 q 514 157 514 146 l 514 575 z "},"Ē":{"ha":804,"x_min":96,"x_max":758,"o":"m 582 1208 q 614 1200 606 1208 q 622 1168 622 1192 l 622 1133 q 614 1101 622 1110 q 582 1093 606 1093 l 260 1093 q 228 1101 236 1093 q 219 1133 219 1110 l 219 1168 q 228 1200 219 1192 q 260 1208 238 1208 l 582 1208 m 696 986 q 733 976 722 986 q 744 939 744 965 l 744 871 q 733 834 744 844 q 696 824 722 824 l 271 824 l 271 581 l 631 581 q 667 570 657 581 q 678 533 678 560 l 678 465 q 667 428 678 439 q 631 418 657 418 l 271 418 l 271 163 l 711 163 q 748 152 738 163 q 758 115 758 142 l 758 47 q 748 10 758 21 q 711 0 738 0 l 144 0 q 107 10 118 0 q 96 47 96 21 l 96 939 q 107 976 96 965 q 144 986 118 986 l 696 986 z "},"ē":{"ha":746,"x_min":56,"x_max":699,"o":"m 525 956 q 555 947 547 956 q 563 917 563 939 l 563 883 q 555 853 563 861 q 525 844 547 844 l 231 844 q 201 852 208 844 q 193 883 193 860 l 193 917 q 201 947 193 939 q 231 956 210 956 l 525 956 m 56 440 q 138 663 56 586 q 378 740 221 740 q 617 660 536 740 q 699 453 699 579 l 699 368 q 636 308 699 308 l 217 308 l 217 257 q 258 153 217 189 q 375 118 299 118 q 539 192 492 118 q 570 219 556 215 q 610 208 585 222 l 658 182 q 675 113 706 160 q 375 -21 593 -21 q 134 60 213 -21 q 56 276 56 140 l 56 440 m 538 463 q 497 567 538 531 q 378 604 457 604 q 258 567 300 604 q 217 463 217 531 l 217 432 l 538 432 l 538 463 z "},"Ĕ":{"ha":804,"x_min":96,"x_max":758,"o":"m 638 1199 q 557 1093 614 1131 q 421 1056 500 1056 q 286 1093 343 1056 q 207 1199 229 1131 q 226 1238 197 1226 l 281 1258 q 324 1244 313 1269 q 421 1172 347 1172 q 518 1244 494 1172 q 554 1260 529 1269 l 618 1238 q 638 1199 646 1225 m 696 986 q 733 976 722 986 q 744 939 744 965 l 744 871 q 733 834 744 844 q 696 824 722 824 l 271 824 l 271 581 l 631 581 q 667 570 657 581 q 678 533 678 560 l 678 465 q 667 428 678 439 q 631 418 657 418 l 271 418 l 271 163 l 711 163 q 748 152 738 163 q 758 115 758 142 l 758 47 q 748 10 758 21 q 711 0 738 0 l 144 0 q 107 10 118 0 q 96 47 96 21 l 96 939 q 107 976 96 965 q 144 986 118 986 l 696 986 z "},"ĕ":{"ha":746,"x_min":56,"x_max":699,"o":"m 593 953 q 513 849 569 886 q 378 811 457 811 q 243 849 299 811 q 164 953 188 886 q 183 993 154 982 l 238 1014 q 281 1000 271 1024 q 378 926 304 926 q 475 1000 451 926 q 489 1017 481 1014 q 511 1015 497 1019 l 575 993 q 594 978 590 986 q 593 953 599 969 m 56 440 q 138 663 56 586 q 378 740 221 740 q 617 660 536 740 q 699 453 699 579 l 699 368 q 636 308 699 308 l 217 308 l 217 257 q 258 153 217 189 q 375 118 299 118 q 539 192 492 118 q 570 219 556 215 q 610 208 585 222 l 658 182 q 675 113 706 160 q 375 -21 593 -21 q 134 60 213 -21 q 56 276 56 140 l 56 440 m 538 463 q 497 567 538 531 q 378 604 457 604 q 258 567 300 604 q 217 463 217 531 l 217 432 l 538 432 l 538 463 z "},"Ė":{"ha":804,"x_min":96,"x_max":758,"o":"m 425 1233 q 484 1217 468 1233 q 500 1158 500 1201 l 500 1147 q 484 1089 500 1104 q 425 1074 468 1074 l 417 1074 q 358 1089 374 1074 q 342 1147 342 1104 l 342 1158 q 358 1217 342 1201 q 417 1233 374 1233 l 425 1233 m 696 986 q 733 976 722 986 q 744 939 744 965 l 744 871 q 733 834 744 844 q 696 824 722 824 l 271 824 l 271 581 l 631 581 q 667 570 657 581 q 678 533 678 560 l 678 465 q 667 428 678 439 q 631 418 657 418 l 271 418 l 271 163 l 711 163 q 748 152 738 163 q 758 115 758 142 l 758 47 q 748 10 758 21 q 711 0 738 0 l 144 0 q 107 10 118 0 q 96 47 96 21 l 96 939 q 107 976 96 965 q 144 986 118 986 l 696 986 z "},"ė":{"ha":746,"x_min":56,"x_max":699,"o":"m 382 988 q 440 972 425 988 q 456 913 456 956 l 456 903 q 440 844 456 860 q 382 828 425 828 l 374 828 q 315 843 331 828 q 299 903 299 858 l 299 913 q 315 972 299 956 q 374 988 331 988 l 382 988 m 56 440 q 138 663 56 586 q 378 740 221 740 q 617 660 536 740 q 699 453 699 579 l 699 368 q 636 308 699 308 l 217 308 l 217 257 q 258 153 217 189 q 375 118 299 118 q 539 192 492 118 q 570 219 556 215 q 610 208 585 222 l 658 182 q 675 113 706 160 q 375 -21 593 -21 q 134 60 213 -21 q 56 276 56 140 l 56 440 m 538 463 q 497 567 538 531 q 378 604 457 604 q 258 567 300 604 q 217 463 217 531 l 217 432 l 538 432 l 538 463 z "},"Ę":{"ha":804,"x_min":96,"x_max":758,"o":"m 696 986 q 733 976 722 986 q 744 939 744 965 l 744 871 q 733 834 744 844 q 696 824 722 824 l 271 824 l 271 581 l 631 581 q 667 570 657 581 q 678 533 678 560 l 678 465 q 667 428 678 439 q 631 418 657 418 l 271 418 l 271 163 l 711 163 q 748 152 738 163 q 758 115 758 142 l 758 47 q 743 6 758 24 q 655 -108 679 -54 q 640 -190 631 -162 q 676 -218 650 -218 q 708 -206 694 -218 q 736 -212 726 -192 l 754 -258 q 753 -287 764 -276 q 622 -337 701 -337 q 541 -315 574 -337 q 500 -254 508 -292 q 520 -129 486 -200 q 624 0 554 -58 l 144 0 q 107 10 118 0 q 96 47 96 21 l 96 939 q 107 976 96 965 q 144 986 118 986 l 696 986 z "},"ę":{"ha":746,"x_min":56,"x_max":699,"o":"m 56 440 q 138 663 56 586 q 378 740 221 740 q 617 660 536 740 q 699 453 699 579 l 699 368 q 636 308 699 308 l 217 308 l 217 257 q 258 153 217 189 q 375 118 299 118 q 539 192 492 118 q 570 219 556 215 q 610 208 585 222 l 658 182 q 675 113 706 160 q 639 65 660 86 q 542 -88 574 -12 q 519 -193 511 -164 q 556 -222 528 -222 q 593 -208 578 -222 q 619 -217 613 -196 l 639 -261 q 638 -290 647 -281 q 506 -340 586 -340 q 382 -257 396 -340 q 489 -8 358 -149 q 375 -21 442 -21 q 134 60 213 -21 q 56 276 56 140 l 56 440 m 538 463 q 497 567 538 531 q 378 604 457 604 q 258 567 300 604 q 217 463 217 531 l 217 432 l 538 432 l 538 463 z "},"Ě":{"ha":804,"x_min":96,"x_max":758,"o":"m 626 1260 q 656 1249 651 1260 q 647 1225 661 1239 l 506 1090 q 467 1058 481 1064 q 429 1053 454 1053 l 413 1053 q 367 1058 381 1053 q 329 1090 354 1064 l 189 1225 q 180 1249 175 1239 q 210 1260 185 1260 l 267 1260 q 306 1256 294 1260 q 332 1236 317 1253 l 417 1157 l 496 1236 q 523 1256 510 1251 q 564 1260 536 1260 l 626 1260 m 696 986 q 733 976 722 986 q 744 939 744 965 l 744 871 q 733 834 744 844 q 696 824 722 824 l 271 824 l 271 581 l 631 581 q 667 570 657 581 q 678 533 678 560 l 678 465 q 667 428 678 439 q 631 418 657 418 l 271 418 l 271 163 l 711 163 q 748 152 738 163 q 758 115 758 142 l 758 47 q 748 10 758 21 q 711 0 738 0 l 144 0 q 107 10 118 0 q 96 47 96 21 l 96 939 q 107 976 96 965 q 144 986 118 986 l 696 986 z "},"ě":{"ha":746,"x_min":56,"x_max":699,"o":"m 565 993 q 593 983 589 993 q 585 961 597 974 l 456 835 q 422 806 433 811 q 385 801 410 801 l 369 801 q 328 806 340 801 q 294 835 317 811 l 165 961 q 183 993 136 993 l 236 993 q 272 990 261 993 q 297 971 282 986 l 374 897 l 446 971 q 508 993 467 993 l 565 993 m 56 440 q 138 663 56 586 q 378 740 221 740 q 617 660 536 740 q 699 453 699 579 l 699 368 q 636 308 699 308 l 217 308 l 217 257 q 258 153 217 189 q 375 118 299 118 q 539 192 492 118 q 570 219 556 215 q 610 208 585 222 l 658 182 q 675 113 706 160 q 375 -21 593 -21 q 134 60 213 -21 q 56 276 56 140 l 56 440 m 538 463 q 497 567 538 531 q 378 604 457 604 q 258 567 300 604 q 217 463 217 531 l 217 432 l 538 432 l 538 463 z "},"Ĝ":{"ha":919,"x_min":68,"x_max":861,"o":"m 478 1276 q 516 1271 503 1276 q 554 1239 529 1265 l 696 1103 q 705 1078 710 1089 q 675 1068 700 1068 l 613 1068 q 544 1093 567 1068 l 465 1172 l 381 1093 q 354 1072 365 1076 q 315 1068 343 1068 l 258 1068 q 228 1078 233 1068 q 238 1103 224 1089 l 379 1239 q 417 1270 404 1264 q 461 1276 431 1276 l 478 1276 m 814 540 q 851 530 842 540 q 861 493 861 519 l 861 307 q 756 70 861 161 q 465 -21 651 -21 q 172 76 275 -21 q 68 342 68 172 l 68 646 q 172 910 68 814 q 465 1007 275 1007 q 843 775 761 1007 q 814 714 860 731 l 738 688 q 700 684 713 678 q 678 717 688 690 q 465 844 632 844 q 300 794 357 844 q 243 647 243 743 l 243 340 q 301 192 243 243 q 465 142 358 142 q 630 188 569 142 q 690 306 690 233 l 690 378 l 481 378 q 444 389 454 378 q 433 426 433 400 l 433 493 q 444 530 433 519 q 481 540 454 540 l 814 540 z "},"ĝ":{"ha":751,"x_min":57,"x_max":674,"o":"m 397 1011 q 435 1006 422 1011 q 472 974 447 1000 l 610 842 q 619 817 624 828 q 590 807 615 807 l 529 807 q 463 831 485 807 l 385 908 l 303 831 q 276 811 288 815 q 239 807 265 807 l 182 807 q 153 817 157 807 q 163 842 149 828 l 300 974 q 338 1005 325 999 q 381 1011 351 1011 l 397 1011 m 57 449 q 371 740 57 740 q 622 697 528 740 q 665 668 656 682 q 674 621 674 654 l 674 -24 q 599 -247 674 -167 q 368 -326 525 -326 q 81 -193 160 -326 q 97 -124 50 -149 l 150 -94 q 190 -85 175 -82 q 221 -111 204 -89 q 365 -182 265 -182 q 513 -32 513 -182 l 513 38 q 346 13 419 13 q 128 85 200 13 q 57 292 57 157 l 57 449 m 500 578 q 382 593 444 593 q 218 443 218 593 l 218 296 q 257 195 218 231 q 369 160 296 160 q 513 179 432 160 l 513 561 q 500 578 513 572 z "},"Ğ":{"ha":919,"x_min":68,"x_max":861,"o":"m 681 1213 q 601 1107 657 1144 q 465 1069 544 1069 q 331 1107 386 1069 q 251 1213 275 1144 q 271 1251 242 1240 l 325 1272 q 368 1258 357 1283 q 465 1186 392 1186 q 563 1258 539 1186 q 599 1274 574 1283 l 663 1251 q 682 1236 678 1244 q 681 1213 686 1228 m 814 540 q 851 530 842 540 q 861 493 861 519 l 861 307 q 756 70 861 161 q 465 -21 651 -21 q 172 76 275 -21 q 68 342 68 172 l 68 646 q 172 910 68 814 q 465 1007 275 1007 q 843 775 761 1007 q 814 714 860 731 l 738 688 q 700 684 713 678 q 678 717 688 690 q 465 844 632 844 q 300 794 357 844 q 243 647 243 743 l 243 340 q 301 192 243 243 q 465 142 358 142 q 630 188 569 142 q 690 306 690 233 l 690 378 l 481 378 q 444 389 454 378 q 433 426 433 400 l 433 493 q 444 530 433 519 q 481 540 454 540 l 814 540 z "},"ğ":{"ha":751,"x_min":57,"x_max":674,"o":"m 601 953 q 521 848 578 885 q 385 811 464 811 q 250 848 307 811 q 171 953 193 885 q 190 993 161 982 l 244 1014 q 272 1017 263 1019 q 288 1000 282 1014 q 385 926 311 926 q 482 1000 458 926 q 518 1015 493 1022 l 582 993 q 601 953 610 981 m 57 449 q 371 740 57 740 q 622 697 528 740 q 665 668 656 682 q 674 621 674 654 l 674 -24 q 599 -247 674 -167 q 368 -326 525 -326 q 81 -193 160 -326 q 97 -124 50 -149 l 150 -94 q 190 -85 175 -82 q 221 -111 204 -89 q 365 -182 265 -182 q 513 -32 513 -182 l 513 38 q 346 13 419 13 q 128 85 200 13 q 57 292 57 157 l 57 449 m 500 578 q 382 593 444 593 q 218 443 218 593 l 218 296 q 257 195 218 231 q 369 160 296 160 q 513 179 432 160 l 513 561 q 500 578 513 572 z "},"Ġ":{"ha":919,"x_min":68,"x_max":861,"o":"m 469 1247 q 528 1231 513 1247 q 543 1172 543 1215 l 543 1161 q 528 1103 543 1118 q 469 1088 513 1088 l 461 1088 q 402 1103 418 1088 q 386 1161 386 1118 l 386 1172 q 402 1231 386 1215 q 461 1247 418 1247 l 469 1247 m 814 540 q 851 530 842 540 q 861 493 861 519 l 861 307 q 756 70 861 161 q 465 -21 651 -21 q 172 76 275 -21 q 68 342 68 172 l 68 646 q 172 910 68 814 q 465 1007 275 1007 q 843 775 761 1007 q 814 714 860 731 l 738 688 q 700 684 713 678 q 678 717 688 690 q 465 844 632 844 q 300 794 357 844 q 243 647 243 743 l 243 340 q 301 192 243 243 q 465 142 358 142 q 630 188 569 142 q 690 306 690 233 l 690 378 l 481 378 q 444 389 454 378 q 433 426 433 400 l 433 493 q 444 530 433 519 q 481 540 454 540 l 814 540 z "},"ġ":{"ha":751,"x_min":57,"x_max":674,"o":"m 389 988 q 448 972 432 988 q 464 913 464 956 l 464 903 q 448 844 464 860 q 389 828 432 828 l 381 828 q 322 844 338 828 q 306 903 306 860 l 306 913 q 322 972 306 956 q 381 988 338 988 l 389 988 m 57 449 q 371 740 57 740 q 622 697 528 740 q 665 668 656 682 q 674 621 674 654 l 674 -24 q 599 -247 674 -167 q 368 -326 525 -326 q 81 -193 160 -326 q 97 -124 50 -149 l 150 -94 q 190 -85 175 -82 q 221 -111 204 -89 q 365 -182 265 -182 q 513 -32 513 -182 l 513 38 q 346 13 419 13 q 128 85 200 13 q 57 292 57 157 l 57 449 m 500 578 q 382 593 444 593 q 218 443 218 593 l 218 296 q 257 195 218 231 q 369 160 296 160 q 513 179 432 160 l 513 561 q 500 578 513 572 z "},"Ģ":{"ha":919,"x_min":68,"x_max":861,"o":"m 814 540 q 851 530 842 540 q 861 493 861 519 l 861 307 q 756 70 861 161 q 465 -21 651 -21 q 172 76 275 -21 q 68 342 68 172 l 68 646 q 172 910 68 814 q 465 1007 275 1007 q 843 775 761 1007 q 814 714 860 731 l 738 688 q 700 684 713 678 q 678 717 688 690 q 465 844 632 844 q 300 794 357 844 q 243 647 243 743 l 243 340 q 301 192 243 243 q 465 142 358 142 q 630 188 569 142 q 690 306 690 233 l 690 378 l 481 378 q 444 389 454 378 q 433 426 433 400 l 433 493 q 444 530 433 519 q 481 540 454 540 l 814 540 m 506 -317 q 488 -348 499 -339 q 456 -357 476 -357 l 404 -357 q 380 -351 386 -357 q 376 -326 374 -344 l 404 -129 q 418 -94 407 -103 q 456 -85 429 -85 l 529 -85 q 569 -129 586 -85 l 506 -317 z "},"ģ":{"ha":753,"x_min":57,"x_max":674,"o":"m 354 989 q 374 1020 363 1013 q 408 1028 385 1028 l 450 1028 q 476 1022 471 1028 q 479 996 482 1015 l 453 844 q 437 805 449 815 q 397 794 425 794 l 336 794 q 300 844 281 794 l 354 989 m 57 449 q 371 740 57 740 q 622 697 528 740 q 665 668 656 682 q 674 621 674 654 l 674 -24 q 599 -247 674 -167 q 368 -326 525 -326 q 81 -193 160 -326 q 97 -124 50 -149 l 150 -94 q 190 -85 175 -82 q 221 -111 204 -89 q 365 -182 265 -182 q 513 -32 513 -182 l 513 38 q 346 13 419 13 q 128 85 200 13 q 57 292 57 157 l 57 449 m 500 578 q 382 593 444 593 q 218 443 218 593 l 218 296 q 257 195 218 231 q 369 160 296 160 q 513 179 432 160 l 513 561 q 500 578 513 572 z "},"Ĥ":{"ha":953,"x_min":96,"x_max":857,"o":"m 489 1263 q 528 1257 515 1263 q 567 1225 540 1251 l 707 1089 q 717 1065 721 1075 q 688 1054 713 1054 l 625 1054 q 557 1079 578 1054 l 476 1158 l 393 1079 q 365 1058 376 1063 q 326 1054 354 1054 l 269 1054 q 240 1065 244 1054 q 249 1089 235 1075 l 390 1225 q 428 1256 415 1250 q 472 1263 442 1263 l 489 1263 m 808 986 q 846 976 835 986 q 857 939 857 965 l 857 47 q 846 10 857 21 q 808 0 835 0 l 729 0 q 692 10 703 0 q 682 47 682 21 l 682 418 l 271 418 l 271 47 q 260 10 271 21 q 224 0 250 0 l 144 0 q 107 10 118 0 q 96 47 96 21 l 96 939 q 107 976 96 965 q 144 986 118 986 l 224 986 q 260 976 250 986 q 271 939 271 965 l 271 581 l 682 581 l 682 939 q 692 976 682 965 q 729 986 703 986 l 808 986 z "},"ĥ":{"ha":771,"x_min":-67,"x_max":696,"o":"m 174 1294 q 211 1290 199 1294 q 247 1260 224 1285 l 382 1128 q 392 1105 396 1115 q 363 1094 388 1094 l 303 1094 q 238 1118 258 1094 l 161 1194 l 81 1118 q 54 1099 65 1103 q 17 1094 43 1094 l -37 1094 q -67 1105 -62 1094 q -58 1128 -71 1115 l 78 1260 q 114 1289 101 1283 q 157 1294 126 1294 l 174 1294 m 199 1028 q 232 1018 222 1028 q 242 985 242 1008 l 242 721 q 301 733 251 726 q 407 740 350 740 q 696 461 696 740 l 696 43 q 686 10 696 19 q 653 0 676 0 l 578 0 q 544 10 554 0 q 535 43 535 19 l 535 457 q 383 593 535 593 q 242 572 279 593 l 242 43 q 232 10 242 19 q 199 0 222 0 l 122 0 q 90 10 99 0 q 81 43 81 19 l 81 985 q 90 1018 81 1008 q 122 1028 99 1028 l 199 1028 z "},"Ħ":{"ha":969,"x_min":14,"x_max":958,"o":"m 931 844 q 952 838 946 844 q 958 815 958 832 l 958 775 q 953 751 958 757 q 931 744 947 744 l 865 744 l 865 47 q 855 10 865 21 q 818 0 844 0 l 738 0 q 701 10 711 0 q 690 47 690 21 l 690 418 l 279 418 l 279 47 q 269 10 279 21 q 232 0 258 0 l 153 0 q 116 10 126 0 q 106 47 106 21 l 106 744 l 42 744 q 19 751 25 744 q 14 775 14 757 l 14 815 q 42 844 14 844 l 106 844 l 106 939 q 116 976 106 965 q 153 986 126 986 l 232 986 q 269 976 258 986 q 279 939 279 965 l 279 844 l 690 844 l 690 939 q 701 976 690 965 q 738 986 711 986 l 818 986 q 855 976 844 986 q 865 939 865 965 l 865 844 l 931 844 m 279 744 l 279 581 l 690 581 l 690 744 l 279 744 z "},"ħ":{"ha":771,"x_min":7,"x_max":697,"o":"m 242 721 q 408 740 276 740 q 626 668 554 740 q 697 461 697 596 l 697 43 q 688 10 697 19 q 654 0 678 0 l 578 0 q 545 10 554 0 q 536 43 536 19 l 536 457 q 385 593 536 593 q 242 572 283 593 l 242 43 q 233 10 242 19 q 200 0 224 0 l 124 0 q 90 10 100 0 q 81 43 81 19 l 81 831 l 35 831 q 13 837 18 831 q 7 861 7 843 l 7 896 q 35 926 7 926 l 81 926 l 81 985 q 90 1018 81 1008 q 124 1028 100 1028 l 200 1028 q 233 1018 224 1028 q 242 985 242 1008 l 242 926 l 429 926 q 451 920 446 926 q 457 896 457 914 l 457 861 q 451 837 457 843 q 429 831 446 831 l 242 831 l 242 721 z "},"Ĩ":{"ha":367,"x_min":-36,"x_max":390,"o":"m 364 1243 q 390 1217 390 1243 q 363 1098 390 1133 q 274 1063 335 1063 q 172 1102 225 1063 q 94 1142 119 1142 q 61 1089 61 1142 q 36 1063 61 1063 l -10 1063 q -36 1089 -36 1063 q -8 1208 -36 1172 q 79 1243 21 1243 q 185 1203 132 1243 q 263 1164 238 1164 q 294 1217 294 1164 q 319 1243 294 1243 l 364 1243 m 96 939 q 107 976 96 965 q 144 986 118 986 l 224 986 q 260 976 250 986 q 271 939 271 965 l 271 47 q 260 10 271 21 q 224 0 250 0 l 144 0 q 107 10 118 0 q 96 47 96 21 l 96 939 z "},"ĩ":{"ha":321,"x_min":-19,"x_max":329,"o":"m 307 1014 q 329 988 329 1014 q 305 867 329 901 q 231 832 281 832 q 154 868 192 832 q 96 904 117 904 q 65 860 65 904 q 44 832 65 832 l 1 832 q -19 860 -19 832 q 5 979 -19 944 q 78 1014 29 1014 q 135 994 111 1014 q 178 956 160 975 q 217 938 197 938 q 246 988 246 938 q 267 1014 246 1014 l 307 1014 m 199 719 q 231 710 222 719 q 240 678 240 701 l 240 43 q 231 10 240 19 q 199 0 222 0 l 122 0 q 89 10 99 0 q 79 43 79 19 l 79 678 q 89 710 79 701 q 122 719 99 719 l 199 719 z "},"Ī":{"ha":367,"x_min":-17,"x_max":385,"o":"m 344 1208 q 376 1200 368 1208 q 385 1168 385 1192 l 385 1133 q 376 1101 385 1110 q 344 1093 368 1093 l 24 1093 q -8 1101 0 1093 q -17 1133 -17 1110 l -17 1168 q -8 1200 -17 1192 q 24 1208 1 1208 l 344 1208 m 96 939 q 107 976 96 965 q 144 986 118 986 l 224 986 q 260 976 250 986 q 271 939 271 965 l 271 47 q 260 10 271 21 q 224 0 250 0 l 144 0 q 107 10 118 0 q 96 47 96 21 l 96 939 z "},"ī":{"ha":321,"x_min":35,"x_max":285,"o":"m 260 957 q 280 950 275 957 q 285 919 285 943 l 285 885 q 280 853 285 861 q 260 846 275 846 l 60 846 q 40 854 44 846 q 35 885 35 863 l 35 919 q 40 949 35 942 q 60 957 46 957 l 260 957 m 199 719 q 231 710 222 719 q 240 678 240 701 l 240 43 q 231 10 240 19 q 199 0 222 0 l 122 0 q 89 10 99 0 q 79 43 79 19 l 79 678 q 89 710 79 701 q 122 719 99 719 l 199 719 z "},"Ĭ":{"ha":367,"x_min":-29,"x_max":401,"o":"m 400 1199 q 319 1093 376 1131 q 183 1056 263 1056 q 49 1093 106 1056 q -29 1199 -7 1131 q -11 1238 -40 1226 l 44 1258 q 88 1244 76 1269 q 183 1172 111 1172 q 282 1244 257 1172 q 318 1260 293 1269 l 381 1238 q 401 1222 397 1231 q 400 1199 406 1214 m 96 939 q 107 976 96 965 q 144 986 118 986 l 224 986 q 260 976 250 986 q 271 939 271 965 l 271 47 q 260 10 271 21 q 224 0 250 0 l 144 0 q 107 10 118 0 q 96 47 96 21 l 96 939 z "},"ĭ":{"ha":321,"x_min":-35,"x_max":358,"o":"m 339 992 q 358 977 354 985 q 357 953 363 969 q 160 811 311 811 q -35 953 10 811 q -15 992 -44 982 l 39 1014 q 82 999 71 1024 q 160 931 101 931 q 239 999 219 931 q 275 1014 250 1024 l 339 992 m 199 719 q 231 710 222 719 q 240 678 240 701 l 240 43 q 231 10 240 19 q 199 0 222 0 l 122 0 q 89 10 99 0 q 79 43 79 19 l 79 678 q 89 710 79 701 q 122 719 99 719 l 199 719 z "},"Į":{"ha":367,"x_min":44,"x_max":301,"o":"m 301 -261 q 300 -290 310 -281 q 168 -340 247 -340 q 44 -257 58 -340 q 149 0 19 -140 q 107 11 118 0 q 96 47 96 22 l 96 939 q 107 976 96 965 q 144 986 118 986 l 224 986 q 260 976 250 986 q 271 939 271 965 l 271 47 q 258 6 271 22 q 192 -109 210 -54 q 182 -193 175 -164 q 218 -222 190 -222 q 256 -208 240 -222 q 282 -217 275 -196 l 301 -261 z "},"į":{"ha":321,"x_min":38,"x_max":283,"o":"m 156 808 q 90 826 108 808 q 71 893 71 844 l 71 906 q 89 971 71 953 q 156 989 107 989 l 165 989 q 232 971 214 989 q 250 906 250 953 l 250 893 q 232 826 250 844 q 165 808 214 808 l 156 808 m 283 -261 q 282 -290 292 -279 q 161 -340 233 -340 q 38 -253 50 -340 q 119 0 19 -133 q 89 10 97 0 q 81 43 81 19 l 81 678 q 90 710 81 701 q 122 719 99 719 l 199 719 q 232 710 222 719 q 242 678 242 701 l 242 43 q 233 10 242 19 q 176 -192 161 -106 q 211 -222 181 -222 q 240 -210 229 -222 q 267 -217 258 -199 l 283 -261 z "},"İ":{"ha":367,"x_min":96,"x_max":271,"o":"m 188 1233 q 247 1217 231 1233 q 263 1158 263 1201 l 263 1147 q 247 1089 263 1104 q 188 1074 231 1074 l 181 1074 q 122 1089 138 1074 q 106 1147 106 1104 l 106 1158 q 122 1217 106 1201 q 181 1233 138 1233 l 188 1233 m 96 939 q 107 976 96 965 q 144 986 118 986 l 224 986 q 260 976 250 986 q 271 939 271 965 l 271 47 q 260 10 271 21 q 224 0 250 0 l 144 0 q 107 10 118 0 q 96 47 96 21 l 96 939 z "},"ı":{"ha":321,"x_min":81,"x_max":242,"o":"m 199 719 q 232 710 222 719 q 242 678 242 701 l 242 43 q 232 10 242 19 q 199 0 222 0 l 122 0 q 90 10 99 0 q 81 43 81 19 l 81 678 q 90 710 81 701 q 122 719 99 719 l 199 719 z "},"Ĳ":{"ha":1172,"x_min":96,"x_max":1082,"o":"m 96 939 q 107 976 96 965 q 144 986 118 986 l 224 986 q 260 976 250 986 q 271 939 271 965 l 271 47 q 260 10 271 21 q 224 0 250 0 l 144 0 q 107 10 118 0 q 96 47 96 21 l 96 939 m 1036 986 q 1072 976 1063 986 q 1082 940 1082 965 l 1082 325 q 991 71 1082 163 q 728 -21 900 -21 q 392 211 467 -21 q 421 272 376 256 l 497 299 q 535 302 522 308 q 558 269 547 296 q 620 173 581 204 q 728 142 660 142 q 908 324 908 142 l 908 940 q 918 976 908 965 q 954 986 928 986 l 1036 986 z "},"ĳ":{"ha":657,"x_min":71,"x_max":585,"o":"m 165 989 q 232 971 214 989 q 250 906 250 953 l 250 893 q 232 826 250 844 q 165 808 214 808 l 156 808 q 90 826 108 808 q 71 893 71 844 l 71 906 q 89 971 71 953 q 156 989 107 989 l 165 989 m 500 989 q 567 971 549 989 q 585 906 585 953 l 585 893 q 566 826 585 844 q 500 808 547 808 l 490 808 q 424 826 442 808 q 406 893 406 844 l 406 906 q 424 971 406 953 q 490 989 442 989 l 500 989 m 199 719 q 232 710 222 719 q 242 678 242 701 l 242 43 q 232 10 242 19 q 199 0 222 0 l 122 0 q 90 10 99 0 q 81 43 81 19 l 81 678 q 90 710 81 701 q 122 719 99 719 l 199 719 m 532 719 q 567 710 557 719 q 576 678 576 701 l 576 -10 q 258 -319 576 -319 q 224 -310 233 -319 q 215 -275 215 -300 l 215 -214 q 224 -179 215 -189 q 258 -169 233 -169 q 379 -128 343 -169 q 415 -6 415 -86 l 415 678 q 424 710 415 701 q 458 719 433 719 l 532 719 z "},"Ĵ":{"ha":801,"x_min":22,"x_max":867,"o":"m 639 1263 q 677 1257 664 1263 q 715 1225 690 1251 l 857 1089 q 866 1065 871 1075 q 836 1054 861 1054 l 774 1054 q 706 1079 728 1054 l 625 1158 l 542 1079 q 515 1058 526 1063 q 476 1054 504 1054 l 418 1054 q 389 1065 393 1054 q 399 1089 385 1075 l 539 1225 q 578 1257 565 1251 q 622 1263 590 1263 l 639 1263 m 667 986 q 702 976 692 986 q 713 940 713 965 l 713 325 q 622 71 713 163 q 358 -21 531 -21 q 22 211 97 -21 q 51 272 6 256 l 128 299 q 164 302 151 308 q 188 269 176 296 q 249 173 210 204 q 358 142 289 142 q 538 324 538 142 l 538 940 q 548 976 538 965 q 585 986 558 986 l 667 986 z "},"ĵ":{"ha":324,"x_min":-119,"x_max":381,"o":"m 174 1011 q 212 1006 199 1011 q 249 975 225 1000 l 381 842 q 360 808 411 808 l 300 808 q 259 812 272 808 q 233 831 246 815 l 161 908 l 86 831 q 60 812 71 815 q 22 808 49 808 l -35 808 q -54 842 -85 808 l 76 975 q 115 1006 101 1000 q 157 1011 128 1011 l 174 1011 m 199 719 q 233 710 224 719 q 242 678 242 701 l 242 -10 q -75 -319 242 -319 q -110 -310 -100 -319 q -119 -275 -119 -300 l -119 -214 q -110 -179 -119 -189 q -75 -169 -100 -169 q 44 -128 8 -169 q 81 -6 81 -86 l 81 678 q 90 710 81 701 q 125 719 100 719 l 199 719 z "},"Ķ":{"ha":871,"x_min":96,"x_max":846,"o":"m 846 47 q 822 0 871 0 l 742 0 q 678 8 696 0 q 647 42 660 15 l 507 324 q 445 401 478 381 q 342 421 413 421 l 271 421 l 271 47 q 260 10 271 21 q 224 0 250 0 l 144 0 q 107 10 118 0 q 96 47 96 21 l 96 939 q 107 976 96 965 q 144 986 118 986 l 224 986 q 260 976 250 986 q 271 939 271 965 l 271 579 l 326 579 l 344 579 l 624 947 q 659 979 642 972 q 718 986 676 986 l 807 986 q 837 972 831 986 q 829 940 843 958 l 519 544 q 669 386 608 506 l 846 47 m 474 -317 q 456 -348 467 -339 q 425 -357 446 -357 l 372 -357 q 349 -351 354 -357 q 346 -326 343 -344 l 374 -129 q 387 -94 375 -103 q 425 -85 399 -85 l 497 -85 q 539 -129 554 -85 l 474 -317 z "},"ķ":{"ha":726,"x_min":81,"x_max":703,"o":"m 693 51 q 703 12 708 24 q 667 0 697 0 l 596 0 q 547 7 560 0 q 522 39 533 14 l 436 224 q 325 292 406 292 l 242 292 l 242 44 q 233 10 242 19 q 197 0 224 0 l 126 0 q 90 10 100 0 q 81 44 81 19 l 81 983 q 90 1018 81 1008 q 126 1028 100 1028 l 197 1028 q 233 1018 224 1028 q 242 983 242 1008 l 242 442 l 304 442 l 314 442 l 503 688 q 533 715 518 710 q 586 719 547 719 l 654 719 q 682 669 721 719 l 472 410 q 572 294 531 381 l 693 51 m 418 -279 q 400 -311 411 -303 q 365 -319 389 -319 l 324 -319 q 297 -312 303 -319 q 293 -286 290 -306 l 317 -119 q 332 -80 319 -90 q 372 -69 344 -69 l 433 -69 q 469 -119 489 -69 l 418 -279 z "},"ĸ":{"ha":700,"x_min":81,"x_max":668,"o":"m 668 51 q 642 0 708 0 l 571 0 q 515 6 533 0 q 482 35 497 13 l 315 268 l 242 182 l 242 44 q 232 10 242 19 q 196 0 222 0 l 125 0 q 90 10 99 0 q 81 44 81 19 l 81 676 q 90 710 81 701 q 125 719 99 719 l 196 719 q 232 710 222 719 q 242 676 242 701 l 242 407 l 479 688 q 510 715 496 710 q 563 719 525 719 l 631 719 q 658 669 701 719 l 421 392 l 668 51 z "},"Ĺ":{"ha":733,"x_min":25,"x_max":717,"o":"m 231 1256 q 310 1253 283 1285 l 346 1208 q 360 1180 361 1190 q 339 1161 360 1169 l 97 1060 q 44 1061 57 1044 l 25 1088 q 26 1132 0 1118 l 231 1256 m 224 986 q 260 976 250 986 q 271 939 271 965 l 271 163 l 669 163 q 706 152 696 163 q 717 115 717 142 l 717 47 q 706 10 717 21 q 669 0 696 0 l 144 0 q 107 10 118 0 q 96 47 96 21 l 96 939 q 107 976 96 965 q 144 986 118 986 l 224 986 z "},"ĺ":{"ha":331,"x_min":0,"x_max":318,"o":"m 193 1254 q 264 1249 238 1281 l 304 1197 q 318 1176 315 1185 q 317 1161 321 1168 q 299 1150 313 1154 l 92 1071 q 38 1074 50 1056 l 14 1106 q 0 1133 0 1124 q 17 1151 0 1143 l 193 1254 m 244 43 q 235 10 244 19 q 201 0 225 0 l 126 0 q 93 10 103 0 q 83 43 83 19 l 83 985 q 93 1018 83 1008 q 126 1028 103 1028 l 201 1028 q 235 1018 225 1028 q 244 985 244 1008 l 244 43 z "},"Ļ":{"ha":733,"x_min":96,"x_max":717,"o":"m 224 986 q 260 976 250 986 q 271 939 271 965 l 271 163 l 669 163 q 706 152 696 163 q 717 115 717 142 l 717 47 q 706 10 717 21 q 669 0 696 0 l 144 0 q 107 10 118 0 q 96 47 96 21 l 96 939 q 107 976 96 965 q 144 986 118 986 l 224 986 m 419 -317 q 371 -357 408 -357 l 319 -357 q 295 -351 301 -357 q 292 -326 289 -344 l 319 -129 q 333 -94 322 -103 q 371 -85 344 -85 l 444 -85 q 485 -129 501 -85 l 419 -317 z "},"ļ":{"ha":331,"x_min":58,"x_max":246,"o":"m 246 43 q 236 10 246 19 q 203 0 226 0 l 128 0 q 94 10 103 0 q 85 43 85 19 l 85 985 q 94 1018 85 1008 q 128 1028 103 1028 l 203 1028 q 236 1018 226 1028 q 246 985 246 1008 l 246 43 m 183 -267 q 165 -298 176 -290 q 131 -306 154 -306 l 89 -306 q 63 -299 68 -306 q 58 -274 57 -293 l 82 -104 q 98 -65 86 -75 q 139 -54 110 -54 l 199 -54 q 236 -104 253 -54 l 183 -267 z "},"Ľ":{"ha":735,"x_min":96,"x_max":717,"o":"m 224 986 q 260 976 250 986 q 271 939 271 965 l 271 163 l 669 163 q 706 152 696 163 q 717 115 717 142 l 717 47 q 706 10 717 21 q 669 0 696 0 l 144 0 q 107 10 118 0 q 96 47 96 21 l 96 939 q 107 976 96 965 q 144 986 118 986 l 224 986 m 549 707 q 531 676 542 685 q 501 668 521 668 l 463 668 q 440 674 444 668 q 436 697 435 679 l 469 942 q 482 977 471 968 q 519 986 493 986 l 586 986 q 624 942 640 986 l 549 707 z "},"ľ":{"ha":340,"x_min":85,"x_max":513,"o":"m 246 43 q 236 10 246 19 q 203 0 226 0 l 128 0 q 94 10 103 0 q 85 43 85 19 l 85 985 q 94 1018 85 1008 q 128 1028 103 1028 l 203 1028 q 236 1018 226 1028 q 246 985 246 1008 l 246 43 m 442 782 q 425 752 435 760 q 394 744 415 744 l 357 744 q 333 750 339 744 q 329 774 328 756 l 357 983 q 371 1019 361 1010 q 407 1028 381 1028 l 474 1028 q 513 983 529 1028 l 442 782 z "},"Ŀ":{"ha":735,"x_min":96,"x_max":717,"o":"m 224 986 q 260 976 250 986 q 271 939 271 965 l 271 163 l 669 163 q 706 152 696 163 q 717 115 717 142 l 717 47 q 706 10 717 21 q 669 0 696 0 l 144 0 q 107 10 118 0 q 96 47 96 21 l 96 939 q 107 976 96 965 q 144 986 118 986 l 224 986 m 517 626 q 587 607 568 626 q 606 538 606 588 l 606 525 q 587 455 606 474 q 517 436 568 436 l 507 436 q 438 455 457 436 q 418 525 418 474 l 418 538 q 438 607 418 588 q 507 626 457 626 l 517 626 z "},"ŀ":{"ha":535,"x_min":85,"x_max":529,"o":"m 246 43 q 236 10 246 19 q 203 0 226 0 l 128 0 q 94 10 103 0 q 85 43 85 19 l 85 985 q 94 1018 85 1008 q 128 1028 103 1028 l 203 1028 q 236 1018 226 1028 q 246 985 246 1008 l 246 43 m 440 618 q 510 599 492 618 q 529 529 529 579 l 529 517 q 510 447 529 465 q 440 428 492 428 l 431 428 q 360 447 379 428 q 342 517 342 465 l 342 529 q 360 599 342 579 q 431 618 379 618 l 440 618 z "},"Ł":{"ha":781,"x_min":-6,"x_max":761,"o":"m 714 163 q 751 152 740 163 q 761 115 761 142 l 761 47 q 751 10 761 21 q 714 0 740 0 l 189 0 q 152 10 163 0 q 142 47 142 21 l 142 360 l 65 325 q 19 340 33 310 l -6 390 q 8 431 -21 418 l 142 492 l 142 939 q 152 976 142 965 q 189 986 163 986 l 268 986 q 305 976 294 986 q 315 939 315 965 l 315 571 l 528 669 q 575 654 560 683 l 600 603 q 585 563 614 572 l 315 439 l 315 163 l 714 163 z "},"ł":{"ha":463,"x_min":14,"x_max":450,"o":"m 450 608 q 439 567 465 582 l 310 496 l 310 43 q 300 10 310 19 q 267 0 290 0 l 192 0 q 158 10 168 0 q 149 43 149 19 l 149 408 l 89 375 q 42 386 57 360 l 14 433 q 26 475 0 461 l 149 543 l 149 985 q 158 1018 149 1008 q 192 1028 168 1028 l 267 1028 q 300 1018 290 1028 q 310 985 310 1008 l 310 629 l 376 667 q 424 656 406 682 l 450 608 z "},"Ń":{"ha":967,"x_min":96,"x_max":869,"o":"m 532 1256 q 610 1253 583 1283 l 646 1208 q 660 1188 657 1196 q 658 1173 663 1179 q 640 1161 654 1167 l 399 1060 q 344 1061 358 1044 l 325 1088 q 328 1132 300 1118 l 532 1256 m 822 986 q 859 976 849 986 q 869 939 869 965 l 869 47 q 859 10 869 21 q 822 0 849 0 l 743 0 q 697 24 711 0 l 357 526 q 301 626 328 569 q 258 720 274 682 q 243 760 243 758 l 235 760 q 242 716 235 758 q 258 608 250 674 q 265 483 265 542 l 265 47 q 255 10 265 21 q 218 0 244 0 l 144 0 q 107 10 118 0 q 96 47 96 21 l 96 939 q 107 976 96 965 q 144 986 118 986 l 224 986 q 269 964 254 986 l 607 464 q 666 361 639 417 q 708 267 693 306 q 724 228 722 229 l 732 228 q 724 272 732 231 q 709 380 717 314 q 701 508 701 446 l 701 939 q 712 976 701 965 q 749 986 722 986 l 822 986 z "},"ń":{"ha":768,"x_min":78,"x_max":694,"o":"m 433 1013 q 513 1010 485 1040 l 547 965 q 561 944 558 953 q 560 930 564 936 q 542 918 556 924 l 300 817 q 246 819 260 801 l 226 844 q 229 889 201 875 l 433 1013 m 132 693 q 406 740 250 740 q 623 668 551 740 q 694 461 694 596 l 694 43 q 685 10 694 19 q 651 0 675 0 l 575 0 q 542 10 551 0 q 533 43 533 19 l 533 457 q 382 593 533 593 q 249 575 315 593 q 239 561 239 571 l 239 43 q 230 10 239 19 q 197 0 221 0 l 121 0 q 88 10 97 0 q 78 43 78 19 l 78 614 q 88 663 78 647 q 132 693 99 679 z "},"Ņ":{"ha":967,"x_min":96,"x_max":869,"o":"m 822 986 q 859 976 849 986 q 869 939 869 965 l 869 47 q 859 10 869 21 q 822 0 849 0 l 743 0 q 697 24 711 0 l 357 526 q 301 626 328 569 q 258 720 274 682 q 243 760 243 758 l 235 760 q 242 716 235 758 q 258 608 250 674 q 265 483 265 542 l 265 47 q 255 10 265 21 q 218 0 244 0 l 144 0 q 107 10 118 0 q 96 47 96 21 l 96 939 q 107 976 96 965 q 144 986 118 986 l 224 986 q 269 964 254 986 l 607 464 q 666 361 639 417 q 708 267 693 306 q 724 228 722 229 l 732 228 q 724 272 732 231 q 709 380 717 314 q 701 508 701 446 l 701 939 q 712 976 701 965 q 749 986 722 986 l 822 986 m 515 -317 q 497 -348 508 -339 q 465 -357 486 -357 l 414 -357 q 390 -351 396 -357 q 386 -326 383 -344 l 414 -129 q 428 -94 417 -103 q 465 -85 439 -85 l 539 -85 q 579 -129 596 -85 l 515 -317 z "},"ņ":{"ha":768,"x_min":78,"x_max":694,"o":"m 132 693 q 406 740 250 740 q 623 668 551 740 q 694 461 694 596 l 694 43 q 685 10 694 19 q 651 0 675 0 l 575 0 q 542 10 551 0 q 533 43 533 19 l 533 457 q 382 593 533 593 q 249 575 315 593 q 239 561 239 571 l 239 43 q 230 10 239 19 q 197 0 221 0 l 121 0 q 88 10 97 0 q 78 43 78 19 l 78 614 q 88 663 78 647 q 132 693 99 679 m 418 -265 q 399 -297 410 -289 q 364 -304 388 -304 l 322 -304 q 296 -298 301 -304 q 293 -272 290 -292 l 315 -104 q 331 -65 319 -75 q 372 -54 343 -54 l 432 -54 q 469 -104 486 -54 l 418 -265 z "},"Ň":{"ha":967,"x_min":96,"x_max":869,"o":"m 690 1260 q 720 1249 715 1260 q 711 1225 725 1239 l 569 1090 q 531 1058 544 1064 q 493 1053 518 1053 l 476 1053 q 431 1058 444 1053 q 393 1090 418 1064 l 253 1225 q 243 1249 239 1239 q 272 1260 247 1260 l 331 1260 q 369 1256 358 1260 q 396 1236 381 1253 l 481 1157 l 560 1236 q 587 1256 574 1251 q 628 1260 600 1260 l 690 1260 m 822 986 q 859 976 849 986 q 869 939 869 965 l 869 47 q 859 10 869 21 q 822 0 849 0 l 743 0 q 697 24 711 0 l 357 526 q 301 626 328 569 q 258 720 274 682 q 243 760 243 758 l 235 760 q 242 716 235 758 q 258 608 250 674 q 265 483 265 542 l 265 47 q 255 10 265 21 q 218 0 244 0 l 144 0 q 107 10 118 0 q 96 47 96 21 l 96 939 q 107 976 96 965 q 144 986 118 986 l 224 986 q 269 964 254 986 l 607 464 q 666 361 639 417 q 708 267 693 306 q 724 228 722 229 l 732 228 q 724 272 732 231 q 709 380 717 314 q 701 508 701 446 l 701 939 q 712 976 701 965 q 749 986 722 986 l 822 986 z "},"ň":{"ha":768,"x_min":78,"x_max":694,"o":"m 575 993 q 593 961 622 993 l 464 835 q 430 806 442 811 q 394 801 418 801 l 379 801 q 338 806 350 801 q 303 835 326 811 l 174 961 q 165 983 161 974 q 192 993 169 993 l 246 993 q 281 990 271 993 q 306 971 292 986 l 382 897 l 456 971 q 518 993 476 993 l 575 993 m 132 693 q 406 740 250 740 q 623 668 551 740 q 694 461 694 596 l 694 43 q 685 10 694 19 q 651 0 675 0 l 575 0 q 542 10 551 0 q 533 43 533 19 l 533 457 q 382 593 533 593 q 249 575 315 593 q 239 561 239 571 l 239 43 q 230 10 239 19 q 197 0 221 0 l 121 0 q 88 10 97 0 q 78 43 78 19 l 78 614 q 88 663 78 647 q 132 693 99 679 z "},"ŉ":{"ha":768,"x_min":49,"x_max":694,"o":"m 160 778 q 139 754 147 760 q 110 749 131 749 l 71 749 q 49 755 53 749 q 50 778 44 761 l 126 990 q 144 1020 135 1013 q 176 1028 153 1028 l 254 1028 q 282 983 310 1028 l 160 778 m 132 693 q 406 740 250 740 q 623 668 551 740 q 694 461 694 596 l 694 43 q 685 10 694 19 q 651 0 675 0 l 575 0 q 542 10 551 0 q 533 43 533 19 l 533 457 q 382 593 533 593 q 249 575 315 593 q 239 561 239 571 l 239 43 q 230 10 239 19 q 197 0 221 0 l 121 0 q 88 10 97 0 q 78 43 78 19 l 78 614 q 88 663 78 647 q 132 693 99 679 z "},"Ŋ":{"ha":967,"x_min":96,"x_max":869,"o":"m 822 986 q 859 976 849 986 q 869 939 869 965 l 869 -11 q 788 -239 869 -158 q 546 -319 707 -319 q 511 -310 521 -319 q 501 -275 501 -300 l 501 -214 q 511 -179 501 -189 q 546 -169 521 -169 q 701 -7 701 -169 l 701 15 l 357 526 q 301 626 328 569 q 258 720 274 682 q 243 760 243 758 l 235 760 q 242 717 235 758 q 258 612 250 676 q 265 489 265 547 l 265 47 q 255 10 265 21 q 218 0 244 0 l 144 0 q 107 10 118 0 q 96 47 96 21 l 96 939 q 107 976 96 965 q 144 986 118 986 l 224 986 q 269 964 254 986 l 607 464 q 666 361 639 417 q 708 267 693 306 q 724 228 722 229 l 732 228 q 724 272 732 231 q 709 380 717 314 q 701 508 701 446 l 701 939 q 712 976 701 965 q 749 986 722 986 l 822 986 z "},"ŋ":{"ha":768,"x_min":78,"x_max":694,"o":"m 132 693 q 406 740 250 740 q 623 668 551 740 q 694 461 694 596 l 694 -24 q 616 -242 694 -165 q 382 -319 538 -319 q 349 -310 358 -319 q 340 -278 340 -301 l 340 -218 q 349 -185 340 -194 q 382 -176 358 -176 q 533 -18 533 -176 l 533 457 q 382 593 533 593 q 249 575 315 593 q 239 561 239 571 l 239 43 q 230 10 239 19 q 197 0 221 0 l 121 0 q 88 10 97 0 q 78 43 78 19 l 78 614 q 88 663 78 647 q 132 693 99 679 z "},"Ō":{"ha":929,"x_min":68,"x_max":861,"o":"m 626 1222 q 658 1214 650 1222 q 667 1182 667 1206 l 667 1147 q 658 1115 667 1124 q 626 1107 650 1107 l 304 1107 q 272 1115 281 1107 q 264 1147 264 1124 l 264 1182 q 273 1214 264 1206 q 304 1222 282 1222 l 626 1222 m 68 644 q 172 910 68 814 q 465 1007 275 1007 q 758 910 654 1007 q 861 644 861 814 l 861 342 q 758 76 861 172 q 465 -21 654 -21 q 172 76 275 -21 q 68 342 68 172 l 68 644 m 688 646 q 630 793 688 742 q 465 844 572 844 q 301 794 358 844 q 243 646 243 743 l 243 340 q 301 192 243 243 q 465 142 358 142 q 630 193 572 142 q 688 340 688 244 l 688 646 z "},"ō":{"ha":754,"x_min":57,"x_max":697,"o":"m 525 956 q 554 948 547 956 q 561 917 561 940 l 561 883 q 554 852 561 860 q 525 844 547 844 l 229 844 q 199 853 207 844 q 192 883 192 861 l 192 917 q 200 947 192 939 q 229 956 208 956 l 525 956 m 57 463 q 140 667 57 593 q 376 740 224 740 q 614 667 531 740 q 697 463 697 593 l 697 257 q 614 53 697 126 q 376 -21 531 -21 q 140 53 224 -21 q 57 257 57 126 l 57 463 m 536 463 q 494 560 536 526 q 376 594 453 594 q 259 560 300 594 q 218 463 218 526 l 218 257 q 259 160 218 194 q 376 125 300 125 q 494 160 453 125 q 536 257 536 194 l 536 463 z "},"Ŏ":{"ha":929,"x_min":68,"x_max":861,"o":"m 681 1213 q 601 1107 657 1144 q 465 1069 544 1069 q 331 1107 388 1069 q 251 1213 274 1144 q 271 1251 242 1240 l 325 1272 q 368 1258 357 1283 q 465 1186 392 1186 q 563 1258 539 1186 q 599 1274 574 1283 l 663 1251 q 683 1236 679 1244 q 681 1213 686 1228 m 68 644 q 172 910 68 814 q 465 1007 275 1007 q 758 910 654 1007 q 861 644 861 814 l 861 342 q 758 76 861 172 q 465 -21 654 -21 q 172 76 275 -21 q 68 342 68 172 l 68 644 m 688 646 q 630 793 688 742 q 465 844 572 844 q 301 794 358 844 q 243 646 243 743 l 243 340 q 301 192 243 243 q 465 142 358 142 q 630 193 572 142 q 688 340 688 244 l 688 646 z "},"ŏ":{"ha":754,"x_min":57,"x_max":697,"o":"m 593 953 q 513 848 569 885 q 376 811 456 811 q 242 848 299 811 q 163 953 185 885 q 182 993 153 982 l 238 1014 q 281 1000 269 1024 q 376 926 303 926 q 475 1000 449 926 q 511 1015 486 1022 l 574 993 q 593 953 601 981 m 57 463 q 140 667 57 593 q 376 740 224 740 q 614 667 531 740 q 697 463 697 593 l 697 257 q 614 53 697 126 q 376 -21 531 -21 q 140 53 224 -21 q 57 257 57 126 l 57 463 m 536 463 q 494 560 536 526 q 376 594 453 594 q 259 560 300 594 q 218 463 218 526 l 218 257 q 259 160 218 194 q 376 125 300 125 q 494 160 453 125 q 536 257 536 194 l 536 463 z "},"Ő":{"ha":929,"x_min":68,"x_max":861,"o":"m 357 1254 q 429 1282 386 1294 l 478 1265 q 490 1218 524 1251 l 349 1090 q 299 1072 319 1065 l 275 1081 q 261 1122 240 1090 l 357 1254 m 592 1254 q 665 1282 622 1294 l 717 1265 q 729 1218 767 1249 l 575 1085 q 525 1067 546 1060 l 501 1074 q 488 1117 464 1085 l 592 1254 m 68 644 q 172 910 68 814 q 465 1007 275 1007 q 758 910 654 1007 q 861 644 861 814 l 861 342 q 758 76 861 172 q 465 -21 654 -21 q 172 76 275 -21 q 68 342 68 172 l 68 644 m 688 646 q 630 793 688 742 q 465 844 572 844 q 301 794 358 844 q 243 646 243 743 l 243 340 q 301 192 243 243 q 465 142 358 142 q 630 193 572 142 q 688 340 688 244 l 688 646 z "},"ő":{"ha":754,"x_min":57,"x_max":697,"o":"m 276 965 q 344 990 303 1003 l 389 975 q 400 932 429 961 l 269 815 q 224 799 242 792 l 201 806 q 189 844 168 815 l 276 965 m 494 964 q 561 990 521 1001 l 608 975 q 621 932 654 958 l 478 810 q 432 793 451 786 l 410 800 q 397 840 375 811 l 494 964 m 57 463 q 140 667 57 593 q 376 740 224 740 q 614 667 531 740 q 697 463 697 593 l 697 257 q 614 53 697 126 q 376 -21 531 -21 q 140 53 224 -21 q 57 257 57 126 l 57 463 m 536 463 q 494 560 536 526 q 376 594 453 594 q 259 560 300 594 q 218 463 218 526 l 218 257 q 259 160 218 194 q 376 125 300 125 q 494 160 453 125 q 536 257 536 194 l 536 463 z "},"Œ":{"ha":1193,"x_min":68,"x_max":1147,"o":"m 1100 163 q 1137 152 1126 163 q 1147 115 1147 142 l 1147 47 q 1137 10 1147 21 q 1100 0 1126 0 l 621 0 q 465 -21 551 -21 q 172 76 275 -21 q 68 342 68 172 l 68 644 q 172 910 68 814 q 465 1007 275 1007 q 621 986 554 1007 l 1085 986 q 1122 976 1111 986 q 1132 939 1132 965 l 1132 871 q 1122 834 1132 844 q 1085 824 1111 824 l 747 824 l 747 581 l 1018 581 q 1055 570 1044 581 q 1065 533 1065 560 l 1065 465 q 1055 428 1065 439 q 1018 418 1044 418 l 747 418 l 747 163 l 1100 163 m 243 340 q 301 192 243 243 q 465 142 358 142 q 574 158 528 142 l 574 828 q 465 844 526 844 q 301 794 358 844 q 243 646 243 743 l 243 340 z "},"œ":{"ha":1151,"x_min":58,"x_max":1104,"o":"m 582 660 q 801 740 656 740 q 1028 661 953 740 q 1104 454 1104 582 l 1104 368 q 1042 308 1104 308 l 660 308 l 660 257 q 801 118 660 118 q 944 192 897 118 q 975 217 961 214 q 1014 208 989 221 l 1064 182 q 1079 113 1110 157 q 800 -21 1000 -21 q 581 60 653 -21 q 358 -21 507 -21 q 136 53 214 -21 q 58 256 58 126 l 58 463 q 136 667 58 593 q 358 740 214 740 q 582 660 508 740 m 943 463 q 801 604 943 604 q 660 463 660 604 l 660 432 l 943 432 l 943 463 m 499 463 q 358 594 499 594 q 255 560 290 594 q 219 463 219 526 l 219 257 q 256 160 219 194 q 358 125 292 125 q 463 159 428 125 q 499 257 499 193 l 499 463 z "},"Ŕ":{"ha":904,"x_min":96,"x_max":854,"o":"m 497 1256 q 576 1253 550 1285 l 613 1208 q 627 1180 628 1190 q 606 1161 626 1169 l 364 1060 q 311 1061 324 1044 l 290 1088 q 293 1132 265 1118 l 497 1256 m 528 986 q 757 905 674 986 q 840 681 840 824 q 792 501 840 574 q 657 400 744 429 q 701 340 682 379 l 854 47 q 831 0 879 0 l 750 0 q 686 8 704 0 q 656 42 668 15 l 539 278 q 478 356 511 336 q 374 375 444 375 l 271 375 l 271 47 q 260 10 271 21 q 224 0 250 0 l 144 0 q 107 10 118 0 q 96 47 96 21 l 96 939 q 107 976 96 965 q 144 986 118 986 l 528 986 m 619 574 q 638 593 619 574 q 657 681 657 611 q 619 787 657 750 q 511 824 582 824 l 271 824 l 271 538 l 511 538 q 619 574 581 538 z "},"ŕ":{"ha":489,"x_min":78,"x_max":478,"o":"m 336 1011 q 415 1010 388 1042 l 450 965 q 464 944 461 953 q 463 929 467 936 q 444 918 458 922 l 203 817 q 149 818 164 800 l 129 844 q 132 889 104 875 l 336 1011 m 390 740 l 435 740 q 468 731 458 740 q 478 697 478 722 l 478 636 q 468 603 478 613 q 435 593 458 593 l 385 593 q 253 576 307 593 q 239 560 239 574 l 239 43 q 230 10 239 19 q 197 0 221 0 l 121 0 q 88 10 97 0 q 78 43 78 19 l 78 619 q 88 669 78 653 q 132 699 99 685 q 390 740 233 736 z "},"Ŗ":{"ha":904,"x_min":96,"x_max":854,"o":"m 528 986 q 757 905 674 986 q 840 681 840 824 q 792 501 840 574 q 657 400 744 429 q 701 340 682 379 l 854 47 q 831 0 879 0 l 750 0 q 686 8 704 0 q 656 42 668 15 l 539 278 q 478 356 511 336 q 374 375 444 375 l 271 375 l 271 47 q 260 10 271 21 q 224 0 250 0 l 144 0 q 107 10 118 0 q 96 47 96 21 l 96 939 q 107 976 96 965 q 144 986 118 986 l 528 986 m 619 574 q 638 593 619 574 q 657 681 657 611 q 619 787 657 750 q 511 824 582 824 l 271 824 l 271 538 l 511 538 q 619 574 581 538 m 493 -317 q 476 -348 486 -339 q 444 -357 465 -357 l 392 -357 q 368 -351 374 -357 q 364 -326 363 -344 l 393 -129 q 406 -94 394 -103 q 444 -85 418 -85 l 517 -85 q 557 -129 574 -85 l 493 -317 z "},"ŗ":{"ha":489,"x_min":56,"x_max":478,"o":"m 390 740 l 435 740 q 468 731 458 740 q 478 697 478 722 l 478 636 q 468 603 478 613 q 435 593 458 593 l 385 593 q 253 576 307 593 q 239 560 239 574 l 239 43 q 230 10 239 19 q 197 0 221 0 l 121 0 q 88 10 97 0 q 78 43 78 19 l 78 619 q 88 669 78 653 q 132 699 99 685 q 390 740 233 736 m 181 -274 q 163 -305 174 -297 q 126 -312 151 -312 l 85 -312 q 58 -306 64 -312 q 56 -281 53 -300 l 78 -106 q 92 -66 81 -76 q 133 -56 104 -56 l 194 -56 q 231 -67 224 -56 q 232 -106 239 -79 l 181 -274 z "},"Ř":{"ha":904,"x_min":96,"x_max":854,"o":"m 657 1260 q 686 1249 682 1260 q 676 1225 690 1239 l 536 1090 q 498 1058 511 1064 q 460 1053 485 1053 l 442 1053 q 397 1058 410 1053 q 360 1090 383 1064 l 219 1225 q 208 1249 204 1239 q 239 1260 213 1260 l 297 1260 q 335 1256 325 1260 q 363 1236 346 1253 l 446 1157 l 526 1236 q 553 1256 540 1251 q 594 1260 567 1260 l 657 1260 m 528 986 q 757 905 674 986 q 840 681 840 824 q 792 501 840 574 q 657 400 744 429 q 701 340 682 379 l 854 47 q 831 0 879 0 l 750 0 q 686 8 704 0 q 656 42 668 15 l 539 278 q 478 356 511 336 q 374 375 444 375 l 271 375 l 271 47 q 260 10 271 21 q 224 0 250 0 l 144 0 q 107 10 118 0 q 96 47 96 21 l 96 939 q 107 976 96 965 q 144 986 118 986 l 528 986 m 619 574 q 638 593 619 574 q 657 681 657 611 q 619 787 657 750 q 511 824 582 824 l 271 824 l 271 538 l 511 538 q 619 574 581 538 z "},"ř":{"ha":489,"x_min":68,"x_max":496,"o":"m 478 993 q 496 961 525 993 l 367 835 q 333 806 344 811 q 297 800 321 800 l 281 800 q 240 806 253 800 q 206 835 228 811 l 76 961 q 68 983 64 974 q 94 993 72 993 l 149 993 q 184 990 174 993 q 208 971 194 986 l 285 897 l 358 971 q 421 993 378 993 l 478 993 m 390 740 l 435 740 q 468 731 458 740 q 478 697 478 722 l 478 636 q 468 603 478 613 q 435 593 458 593 l 385 593 q 253 576 307 593 q 239 560 239 574 l 239 43 q 230 10 239 19 q 197 0 221 0 l 121 0 q 88 10 97 0 q 78 43 78 19 l 78 619 q 88 669 78 653 q 132 699 99 685 q 390 740 233 736 z "},"Ś":{"ha":879,"x_min":51,"x_max":832,"o":"m 490 1268 q 568 1267 542 1299 l 604 1222 q 599 1175 633 1188 l 357 1072 q 303 1075 317 1057 l 283 1101 q 286 1146 258 1132 l 490 1268 m 60 703 q 159 923 60 839 q 440 1007 258 1007 q 669 956 585 1007 q 806 797 754 904 q 779 733 826 754 l 703 700 q 667 695 679 690 q 643 724 656 700 q 567 811 614 782 q 440 840 519 840 q 239 713 239 840 q 257 652 239 676 q 313 614 275 628 q 386 594 351 600 q 479 581 421 588 q 580 565 538 574 q 673 537 622 557 q 756 488 724 517 q 810 408 788 458 q 832 290 832 357 q 728 64 832 149 q 436 -21 624 -21 q 189 37 279 -21 q 54 211 99 94 q 51 251 44 238 q 83 272 58 264 l 160 300 q 196 302 183 308 q 219 271 208 296 q 436 142 274 142 q 657 286 657 142 q 624 360 657 332 q 549 398 590 388 q 438 415 507 408 q 362 424 390 421 q 289 438 333 428 q 217 460 244 447 q 156 494 189 472 q 104 543 122 515 q 73 612 86 571 q 60 703 60 653 z "},"ś":{"ha":700,"x_min":49,"x_max":658,"o":"m 397 1013 q 476 1010 450 1042 l 513 965 q 527 937 528 947 q 506 918 526 926 l 264 817 q 210 819 224 801 l 190 844 q 193 889 165 875 l 397 1013 m 53 517 q 126 680 53 619 q 339 740 199 740 q 636 592 563 740 q 614 529 658 550 l 551 504 q 517 498 528 494 q 493 524 507 501 q 343 596 453 596 q 213 521 213 596 q 249 459 213 475 q 375 435 285 443 q 588 374 517 421 q 658 211 658 328 q 581 42 658 106 q 358 -21 503 -21 q 49 147 114 -21 q 76 206 32 190 l 139 225 q 173 228 160 233 q 196 199 186 222 q 353 122 228 122 q 500 204 500 122 q 463 267 500 250 q 333 293 426 283 q 251 305 285 299 q 176 326 217 311 q 111 364 136 342 q 69 425 86 386 q 53 517 53 464 z "},"Ŝ":{"ha":879,"x_min":51,"x_max":832,"o":"m 456 1276 q 494 1271 482 1276 q 533 1239 507 1265 l 674 1103 q 683 1078 688 1089 q 653 1068 678 1068 l 592 1068 q 522 1092 544 1068 l 443 1172 l 360 1092 q 332 1072 343 1075 q 293 1068 321 1068 l 236 1068 q 206 1078 211 1068 q 215 1103 201 1089 l 357 1239 q 395 1270 382 1264 q 439 1276 408 1276 l 456 1276 m 60 703 q 159 923 60 839 q 440 1007 258 1007 q 669 956 585 1007 q 806 797 754 904 q 779 733 826 754 l 703 700 q 667 695 679 690 q 643 724 656 700 q 567 811 614 782 q 440 840 519 840 q 239 713 239 840 q 257 652 239 676 q 313 614 275 628 q 386 594 351 600 q 479 581 421 588 q 580 565 538 574 q 673 537 622 557 q 756 488 724 517 q 810 408 788 458 q 832 290 832 357 q 728 64 832 149 q 436 -21 624 -21 q 189 37 279 -21 q 54 211 99 94 q 51 251 44 238 q 83 272 58 264 l 160 300 q 196 302 183 308 q 219 271 208 296 q 436 142 274 142 q 657 286 657 142 q 624 360 657 332 q 549 398 590 388 q 438 415 507 408 q 362 424 390 421 q 289 438 333 428 q 217 460 244 447 q 156 494 189 472 q 104 543 122 515 q 73 612 86 571 q 60 703 60 653 z "},"ŝ":{"ha":700,"x_min":49,"x_max":658,"o":"m 363 1011 q 401 1006 388 1011 q 439 975 414 1000 l 576 842 q 556 808 607 808 l 496 808 q 455 812 468 808 q 429 831 442 815 l 350 908 l 268 831 q 242 812 253 815 q 204 808 231 808 l 147 808 q 128 842 97 808 l 265 975 q 303 1006 290 1000 q 346 1011 317 1011 l 363 1011 m 53 517 q 126 680 53 619 q 339 740 199 740 q 636 592 563 740 q 614 529 658 550 l 551 504 q 517 498 528 494 q 493 524 507 501 q 343 596 453 596 q 213 521 213 596 q 249 459 213 475 q 375 435 285 443 q 588 374 517 421 q 658 211 658 328 q 581 42 658 106 q 358 -21 503 -21 q 49 147 114 -21 q 76 206 32 190 l 139 225 q 173 228 160 233 q 196 199 186 222 q 353 122 228 122 q 500 204 500 122 q 463 267 500 250 q 333 293 426 283 q 251 305 285 299 q 176 326 217 311 q 111 364 136 342 q 69 425 86 386 q 53 517 53 464 z "},"Ş":{"ha":878,"x_min":50,"x_max":831,"o":"m 385 594 q 402 591 385 594 q 478 581 419 588 q 578 565 536 574 q 672 537 621 557 q 754 488 722 517 q 808 408 786 458 q 831 290 831 357 q 745 81 831 163 q 503 -17 660 -1 l 479 -81 q 488 -80 482 -81 q 497 -79 493 -79 q 585 -115 551 -79 q 613 -206 618 -151 q 553 -310 606 -278 q 426 -342 501 -342 q 326 -322 364 -342 q 303 -285 303 -312 l 301 -242 q 324 -225 301 -215 q 406 -247 365 -247 q 474 -197 474 -247 q 415 -158 474 -158 q 381 -160 392 -158 q 361 -126 347 -160 l 407 -21 q 178 42 263 -15 q 53 211 94 100 q 50 251 43 238 q 82 272 57 264 l 158 300 q 195 302 183 308 q 218 271 207 296 q 435 142 272 142 q 656 286 656 142 q 622 360 656 332 q 547 398 589 388 q 436 415 506 408 q 361 424 389 421 q 289 438 333 428 q 217 460 244 447 q 156 494 189 472 q 103 543 122 515 q 72 612 85 571 q 60 703 60 653 q 158 923 60 839 q 439 1007 257 1007 q 668 956 583 1007 q 804 797 753 904 q 778 733 825 754 l 701 700 q 666 695 678 690 q 642 724 654 700 q 565 811 613 782 q 439 840 518 840 q 238 713 238 840 q 256 652 238 676 q 312 614 274 628 q 385 594 350 600 z "},"ş":{"ha":700,"x_min":49,"x_max":658,"o":"m 53 517 q 126 680 53 619 q 339 740 199 740 q 636 592 563 740 q 614 529 658 550 l 551 504 q 517 498 528 494 q 493 524 507 501 q 343 596 453 596 q 213 521 213 596 q 249 459 213 475 q 375 435 285 443 q 588 374 517 421 q 658 211 658 328 q 594 56 658 117 q 410 -18 531 -6 l 382 -89 q 399 -87 388 -87 q 485 -122 453 -87 q 513 -208 518 -157 q 456 -308 506 -278 q 332 -339 406 -339 q 232 -321 269 -339 q 210 -283 210 -310 l 208 -243 q 229 -228 208 -217 q 311 -249 268 -249 q 378 -200 378 -249 q 319 -162 378 -162 q 285 -164 296 -162 q 268 -131 253 -164 l 317 -19 q 49 147 107 -4 q 76 206 32 190 l 139 225 q 173 228 160 233 q 196 199 186 222 q 353 122 228 122 q 500 204 500 122 q 463 267 500 250 q 333 293 426 283 q 251 305 285 299 q 176 326 217 311 q 111 364 136 342 q 69 425 86 386 q 53 517 53 464 z "},"Š":{"ha":879,"x_min":51,"x_max":832,"o":"m 649 1274 q 678 1263 674 1274 q 669 1239 683 1253 l 528 1103 q 490 1072 503 1078 q 451 1067 478 1067 l 435 1067 q 390 1072 403 1067 q 351 1103 376 1078 l 211 1239 q 201 1263 197 1253 q 231 1274 206 1274 l 289 1274 q 328 1270 317 1274 q 354 1250 339 1267 l 439 1171 l 518 1250 q 586 1274 540 1274 l 649 1274 m 60 703 q 159 923 60 839 q 440 1007 258 1007 q 669 956 585 1007 q 806 797 754 904 q 779 733 826 754 l 703 700 q 667 695 679 690 q 643 724 656 700 q 567 811 614 782 q 440 840 519 840 q 239 713 239 840 q 257 652 239 676 q 313 614 275 628 q 386 594 351 600 q 479 581 421 588 q 580 565 538 574 q 673 537 622 557 q 756 488 724 517 q 810 408 788 458 q 832 290 832 357 q 728 64 832 149 q 436 -21 624 -21 q 189 37 279 -21 q 54 211 99 94 q 51 251 44 238 q 83 272 58 264 l 160 300 q 196 302 183 308 q 219 271 208 296 q 436 142 274 142 q 657 286 657 142 q 624 360 657 332 q 549 398 590 388 q 438 415 507 408 q 362 424 390 421 q 289 438 333 428 q 217 460 244 447 q 156 494 189 472 q 104 543 122 515 q 73 612 86 571 q 60 703 60 653 z "},"š":{"ha":700,"x_min":49,"x_max":658,"o":"m 536 988 q 564 978 560 988 q 556 956 568 968 l 428 833 q 394 805 406 810 q 358 800 382 800 l 343 800 q 303 805 315 800 q 268 833 290 810 l 140 957 q 132 978 128 968 q 158 988 136 988 l 211 988 q 247 984 236 988 q 271 965 257 981 l 347 894 l 419 965 q 481 988 439 988 l 536 988 m 53 517 q 126 680 53 619 q 339 740 199 740 q 636 592 563 740 q 614 529 658 550 l 551 504 q 517 498 528 494 q 493 524 507 501 q 343 596 453 596 q 213 521 213 596 q 249 459 213 475 q 375 435 285 443 q 588 374 517 421 q 658 211 658 328 q 581 42 658 106 q 358 -21 503 -21 q 49 147 114 -21 q 76 206 32 190 l 139 225 q 173 228 160 233 q 196 199 186 222 q 353 122 228 122 q 500 204 500 122 q 463 267 500 250 q 333 293 426 283 q 251 305 285 299 q 176 326 217 311 q 111 364 136 342 q 69 425 86 386 q 53 517 53 464 z "},"Ť":{"ha":786,"x_min":19,"x_max":767,"o":"m 600 1260 q 629 1249 625 1260 q 619 1225 633 1239 l 479 1090 q 441 1058 454 1064 q 401 1053 428 1053 l 385 1053 q 340 1058 353 1053 q 303 1090 326 1064 l 161 1225 q 152 1249 147 1239 q 182 1260 157 1260 l 240 1260 q 278 1256 267 1260 q 306 1236 290 1253 l 389 1157 l 469 1236 q 495 1256 482 1251 q 538 1260 508 1260 l 600 1260 m 719 986 q 756 976 746 986 q 767 939 767 965 l 767 871 q 756 834 767 844 q 719 824 746 824 l 481 824 l 481 47 q 470 10 481 21 q 433 0 460 0 l 353 0 q 316 10 326 0 q 306 47 306 21 l 306 824 l 67 824 q 30 834 40 824 q 19 871 19 844 l 19 939 q 30 976 19 965 q 67 986 40 986 l 719 986 z "},"ť":{"ha":540,"x_min":13,"x_max":561,"o":"m 500 810 q 482 779 492 788 q 451 771 472 771 l 414 771 q 391 776 396 771 q 388 800 386 782 l 407 983 q 419 1018 408 1008 q 457 1028 431 1028 l 522 1028 q 560 1017 551 1028 q 561 983 568 1007 l 500 810 m 268 886 q 301 877 292 886 q 311 844 311 868 l 311 719 l 469 719 q 503 710 493 719 q 513 678 513 701 l 513 614 q 503 581 513 590 q 469 571 493 571 l 311 571 l 311 292 q 344 163 311 193 q 468 132 376 132 q 503 123 493 132 q 513 89 513 114 l 513 25 q 503 -9 513 0 q 468 -19 493 -18 q 222 42 293 -25 q 150 286 150 108 l 150 571 l 54 571 q 22 581 31 571 q 13 614 13 590 l 13 678 q 22 710 13 701 q 54 719 31 719 l 150 719 l 150 844 q 160 877 150 868 q 193 886 169 886 l 268 886 z "},"Ŧ":{"ha":810,"x_min":32,"x_max":779,"o":"m 732 986 q 769 976 758 986 q 779 939 779 965 l 779 871 q 769 834 779 844 q 732 824 758 824 l 492 824 l 492 517 l 657 517 q 679 510 674 517 q 685 486 685 503 l 685 422 q 679 398 685 404 q 657 392 674 392 l 492 392 l 492 47 q 481 10 492 21 q 444 0 471 0 l 365 0 q 328 10 339 0 q 318 47 318 21 l 318 392 l 153 392 q 131 398 136 392 q 125 422 125 404 l 125 486 q 153 517 125 517 l 318 517 l 318 824 l 79 824 q 42 834 53 824 q 32 871 32 844 l 32 939 q 42 976 32 965 q 79 986 53 986 l 732 986 z "},"ŧ":{"ha":544,"x_min":15,"x_max":517,"o":"m 272 888 q 306 878 296 888 q 315 844 315 869 l 315 721 l 474 721 q 507 712 497 721 q 517 678 517 703 l 517 614 q 507 581 517 590 q 474 572 497 572 l 315 572 l 315 426 l 439 426 q 461 420 456 426 q 467 397 467 414 l 467 344 q 461 321 467 326 q 439 315 456 315 l 315 315 l 315 289 q 348 163 315 193 q 472 133 381 133 q 506 124 497 133 q 515 90 515 114 l 515 25 q 506 -8 515 1 q 472 -18 497 -17 q 226 43 297 -24 q 154 288 154 110 l 154 315 l 68 315 q 46 321 51 315 q 40 344 40 326 l 40 397 q 68 426 40 426 l 154 426 l 154 572 l 58 572 q 25 581 35 572 q 15 614 15 590 l 15 678 q 25 712 15 703 q 58 721 35 721 l 154 721 l 154 844 q 163 878 154 869 q 196 888 172 888 l 272 888 z "},"Ũ":{"ha":956,"x_min":89,"x_max":865,"o":"m 658 1243 q 685 1217 685 1243 q 657 1098 685 1133 q 567 1063 629 1063 q 467 1102 519 1063 q 388 1142 414 1142 q 356 1089 356 1142 q 329 1063 356 1063 l 285 1063 q 258 1089 258 1063 q 287 1208 258 1172 q 372 1243 315 1243 q 478 1203 425 1243 q 556 1164 532 1164 q 589 1217 589 1164 q 614 1243 589 1243 l 658 1243 m 264 338 q 318 192 264 243 q 478 142 372 142 q 638 192 583 142 q 692 338 692 243 l 692 939 q 702 976 692 965 q 739 986 713 986 l 818 986 q 855 976 844 986 q 865 939 865 965 l 865 339 q 765 76 865 172 q 478 -21 665 -21 q 190 76 290 -21 q 89 339 89 172 l 89 939 q 99 976 89 965 q 136 986 110 986 l 217 986 q 253 976 243 986 q 264 939 264 965 l 264 338 z "},"ũ":{"ha":768,"x_min":74,"x_max":690,"o":"m 563 1006 q 589 979 589 1006 q 561 859 589 894 q 472 824 533 824 q 371 863 424 824 q 293 903 318 903 q 260 850 260 903 q 235 824 260 824 l 189 824 q 163 850 163 824 q 191 969 163 933 q 278 1006 219 1006 q 383 966 331 1006 q 460 926 436 926 q 493 979 493 926 q 518 1006 493 1006 l 563 1006 m 647 719 q 681 710 671 719 q 690 678 690 701 l 690 106 q 680 57 690 72 q 636 28 669 42 q 364 -21 514 -21 q 146 51 218 -21 q 74 258 74 124 l 74 678 q 83 710 74 701 q 117 719 93 719 l 193 719 q 226 710 217 719 q 235 678 235 701 l 235 264 q 386 126 235 126 q 514 143 458 126 q 529 167 529 149 l 529 678 q 539 710 529 701 q 572 719 549 719 l 647 719 z "},"Ū":{"ha":956,"x_min":89,"x_max":865,"o":"m 639 1208 q 671 1200 663 1208 q 679 1168 679 1192 l 679 1133 q 671 1101 679 1110 q 639 1093 663 1093 l 317 1093 q 285 1101 293 1093 q 276 1133 276 1110 l 276 1168 q 285 1200 276 1192 q 317 1208 294 1208 l 639 1208 m 264 338 q 318 192 264 243 q 478 142 372 142 q 638 192 583 142 q 692 338 692 243 l 692 939 q 702 976 692 965 q 739 986 713 986 l 818 986 q 855 976 844 986 q 865 939 865 965 l 865 339 q 765 76 865 172 q 478 -21 665 -21 q 190 76 290 -21 q 89 339 89 172 l 89 939 q 99 976 89 965 q 136 986 110 986 l 217 986 q 253 976 243 986 q 264 939 264 965 l 264 338 z "},"ū":{"ha":768,"x_min":74,"x_max":690,"o":"m 543 965 q 575 957 567 965 q 583 925 583 949 l 583 890 q 575 858 583 867 q 543 850 567 850 l 221 850 q 189 858 197 850 q 181 890 181 867 l 181 925 q 190 957 181 949 q 221 965 199 965 l 543 965 m 647 719 q 681 710 671 719 q 690 678 690 701 l 690 106 q 680 57 690 72 q 636 28 669 42 q 364 -21 514 -21 q 146 51 218 -21 q 74 258 74 124 l 74 678 q 83 710 74 701 q 117 719 93 719 l 193 719 q 226 710 217 719 q 235 678 235 701 l 235 264 q 386 126 235 126 q 514 143 458 126 q 529 167 529 149 l 529 678 q 539 710 529 701 q 572 719 549 719 l 647 719 z "},"Ŭ":{"ha":956,"x_min":89,"x_max":865,"o":"m 693 1199 q 613 1093 669 1131 q 478 1056 557 1056 q 343 1093 400 1056 q 264 1199 286 1131 q 283 1238 254 1226 l 338 1258 q 381 1244 369 1269 q 478 1172 404 1172 q 575 1244 551 1172 q 611 1260 586 1269 l 675 1238 q 695 1222 692 1231 q 693 1199 699 1214 m 264 338 q 318 192 264 243 q 478 142 372 142 q 638 192 583 142 q 692 338 692 243 l 692 939 q 702 976 692 965 q 739 986 713 986 l 818 986 q 855 976 844 986 q 865 939 865 965 l 865 339 q 765 76 865 172 q 478 -21 665 -21 q 190 76 290 -21 q 89 339 89 172 l 89 939 q 99 976 89 965 q 136 986 110 986 l 217 986 q 253 976 243 986 q 264 939 264 965 l 264 338 z "},"ŭ":{"ha":768,"x_min":74,"x_max":690,"o":"m 599 953 q 518 848 575 885 q 382 811 461 811 q 247 848 304 811 q 168 953 190 885 q 188 993 158 982 l 243 1014 q 286 1000 275 1024 q 382 926 308 926 q 481 1000 454 926 q 517 1015 492 1022 l 579 993 q 599 953 607 981 m 647 719 q 681 710 671 719 q 690 678 690 701 l 690 106 q 680 57 690 72 q 636 28 669 42 q 364 -21 514 -21 q 146 51 218 -21 q 74 258 74 124 l 74 678 q 83 710 74 701 q 117 719 93 719 l 193 719 q 226 710 217 719 q 235 678 235 701 l 235 264 q 386 126 235 126 q 514 143 458 126 q 529 167 529 149 l 529 678 q 539 710 529 701 q 572 719 549 719 l 647 719 z "},"Ů":{"ha":956,"x_min":89,"x_max":865,"o":"m 376 1072 q 355 1092 376 1072 q 333 1178 333 1113 q 376 1285 333 1243 q 486 1326 418 1326 q 593 1285 551 1326 q 635 1178 635 1243 q 593 1073 635 1114 q 486 1032 551 1032 q 376 1072 418 1032 m 535 1128 q 545 1138 535 1128 q 554 1178 554 1147 q 535 1228 554 1208 q 486 1247 517 1247 q 434 1228 454 1247 q 414 1178 414 1208 q 434 1128 414 1147 q 486 1110 454 1110 q 535 1128 517 1110 m 264 338 q 318 192 264 243 q 478 142 372 142 q 638 192 583 142 q 692 338 692 243 l 692 939 q 702 976 692 965 q 739 986 713 986 l 818 986 q 855 976 844 986 q 865 939 865 965 l 865 339 q 765 76 865 172 q 478 -21 665 -21 q 190 76 290 -21 q 89 339 89 172 l 89 939 q 99 976 89 965 q 136 986 110 986 l 217 986 q 253 976 243 986 q 264 939 264 965 l 264 338 z "},"ů":{"ha":768,"x_min":74,"x_max":690,"o":"m 232 900 q 274 1007 232 965 q 383 1049 317 1049 q 490 1007 449 1049 q 532 900 532 965 q 490 795 532 836 q 383 754 449 754 q 274 795 317 754 q 232 900 232 836 m 451 900 q 433 950 451 931 q 383 969 414 969 q 332 950 351 969 q 313 900 313 931 q 333 852 313 871 q 383 833 353 833 q 433 852 414 833 q 451 900 451 871 m 647 719 q 681 710 671 719 q 690 678 690 701 l 690 106 q 680 57 690 72 q 636 28 669 42 q 364 -21 514 -21 q 146 51 218 -21 q 74 258 74 124 l 74 678 q 83 710 74 701 q 117 719 93 719 l 193 719 q 226 710 217 719 q 235 678 235 701 l 235 264 q 386 126 235 126 q 514 143 458 126 q 529 167 529 149 l 529 678 q 539 710 529 701 q 572 719 549 719 l 647 719 z "},"Ű":{"ha":956,"x_min":89,"x_max":865,"o":"m 369 1240 q 442 1268 399 1281 l 490 1251 q 503 1204 536 1238 l 361 1076 q 311 1058 332 1051 l 288 1067 q 274 1108 253 1076 l 369 1240 m 604 1240 q 678 1268 635 1281 l 729 1251 q 742 1204 779 1235 l 588 1071 q 538 1053 558 1046 l 514 1060 q 500 1103 476 1071 l 604 1240 m 264 338 q 318 192 264 243 q 478 142 372 142 q 638 192 583 142 q 692 338 692 243 l 692 939 q 702 976 692 965 q 739 986 713 986 l 818 986 q 855 976 844 986 q 865 939 865 965 l 865 339 q 765 76 865 172 q 478 -21 665 -21 q 190 76 290 -21 q 89 339 89 172 l 89 939 q 99 976 89 965 q 136 986 110 986 l 217 986 q 253 976 243 986 q 264 939 264 965 l 264 338 z "},"ű":{"ha":768,"x_min":74,"x_max":690,"o":"m 274 986 q 346 1014 301 1026 l 394 999 q 408 950 438 983 l 267 822 q 217 806 236 797 l 193 813 q 178 856 158 822 l 274 986 m 510 986 q 582 1014 540 1026 l 635 997 q 647 950 683 981 l 492 818 q 467 799 475 803 q 442 800 458 794 l 418 807 q 404 850 382 818 l 510 986 m 647 719 q 681 710 671 719 q 690 678 690 701 l 690 106 q 680 57 690 72 q 636 28 669 42 q 364 -21 514 -21 q 146 51 218 -21 q 74 258 74 124 l 74 678 q 83 710 74 701 q 117 719 93 719 l 193 719 q 226 710 217 719 q 235 678 235 701 l 235 264 q 386 126 235 126 q 514 143 458 126 q 529 167 529 149 l 529 678 q 539 710 529 701 q 572 719 549 719 l 647 719 z "},"Ų":{"ha":956,"x_min":89,"x_max":865,"o":"m 818 986 q 855 976 844 986 q 865 939 865 965 l 865 339 q 750 63 865 154 q 624 -94 663 -24 q 593 -193 585 -164 q 629 -222 601 -222 q 667 -208 651 -222 q 693 -217 686 -196 l 713 -261 q 711 -290 721 -281 q 579 -340 660 -340 q 456 -257 469 -340 q 474 -141 446 -206 q 564 -12 503 -76 q 478 -21 526 -21 q 190 76 290 -21 q 89 339 89 172 l 89 939 q 99 976 89 965 q 136 986 110 986 l 217 986 q 253 976 243 986 q 264 939 264 965 l 264 338 q 318 192 264 243 q 478 142 372 142 q 638 192 583 142 q 692 338 692 243 l 692 939 q 702 976 692 965 q 739 986 713 986 l 818 986 z "},"ų":{"ha":768,"x_min":74,"x_max":690,"o":"m 647 719 q 681 710 671 719 q 690 678 690 701 l 690 106 q 675 51 690 68 q 588 -94 615 -24 q 568 -193 561 -164 q 606 -222 576 -222 q 642 -208 626 -222 q 668 -217 661 -196 l 688 -261 q 686 -290 696 -281 q 554 -340 633 -340 q 431 -257 444 -340 q 448 -135 419 -206 q 535 -3 476 -65 q 364 -21 460 -21 q 146 51 218 -21 q 74 258 74 124 l 74 678 q 83 710 74 701 q 117 719 93 719 l 193 719 q 226 710 217 719 q 235 678 235 701 l 235 264 q 386 126 235 126 q 514 143 458 126 q 529 167 529 149 l 529 678 q 539 710 529 701 q 572 719 549 719 l 647 719 z "},"Ŵ":{"ha":1251,"x_min":29,"x_max":1222,"o":"m 647 1263 q 686 1257 674 1263 q 724 1225 699 1251 l 865 1089 q 874 1065 879 1075 q 844 1054 869 1054 l 782 1054 q 714 1079 736 1054 l 635 1158 l 551 1079 q 524 1058 535 1063 q 485 1054 513 1054 l 428 1054 q 398 1065 403 1054 q 407 1089 393 1075 l 549 1225 q 587 1256 574 1250 q 631 1263 600 1263 l 647 1263 m 1192 986 q 1222 975 1215 986 q 1222 940 1229 964 l 993 39 q 974 8 988 15 q 935 0 961 0 l 858 0 q 800 38 808 0 l 654 589 q 632 746 633 669 l 622 746 q 599 590 621 672 l 451 39 q 433 8 446 15 q 393 0 419 0 l 318 0 q 278 8 292 0 q 258 38 264 15 l 31 940 q 30 975 24 964 q 61 986 36 986 l 158 986 q 202 978 189 986 q 221 944 215 969 l 335 426 q 357 240 339 408 l 365 240 q 393 426 369 336 l 533 940 q 554 974 540 965 q 596 982 568 982 l 671 982 q 714 974 700 982 q 733 940 728 965 l 871 426 q 900 240 896 331 l 908 240 q 933 425 914 331 l 1044 944 q 1063 978 1050 969 q 1107 986 1076 986 l 1192 986 z "},"ŵ":{"ha":1021,"x_min":28,"x_max":992,"o":"m 526 1011 q 564 1006 551 1011 q 601 974 576 1000 l 739 842 q 749 817 753 828 q 719 807 744 807 l 658 807 q 592 831 613 807 l 514 908 l 432 831 q 406 810 417 814 q 367 807 394 807 l 311 807 q 290 842 261 807 l 429 974 q 467 1006 454 1000 q 510 1011 479 1011 l 526 1011 m 954 719 q 992 710 985 719 q 990 669 999 700 l 804 38 q 746 -1 793 -1 l 699 -1 q 639 38 651 -1 l 538 393 q 524 456 529 422 q 515 514 518 490 l 513 536 l 506 536 l 503 514 q 494 456 500 490 q 479 393 488 422 l 378 38 q 319 -1 367 -1 l 274 -1 q 215 38 226 -1 l 31 669 q 28 710 21 700 q 65 719 35 719 l 119 719 q 175 711 160 719 q 196 676 190 703 l 275 365 q 286 298 281 339 q 294 228 292 257 q 299 196 297 199 l 306 196 q 308 217 306 197 q 314 260 311 236 q 323 314 317 283 q 335 367 329 344 l 426 671 q 447 708 435 700 q 497 715 460 715 l 529 715 q 579 708 567 715 q 600 672 592 700 l 693 367 q 706 311 700 342 q 715 258 713 281 q 720 216 718 235 q 722 196 722 197 l 731 196 l 733 222 q 740 291 735 250 q 754 367 746 332 l 831 676 q 852 711 836 703 q 908 719 868 719 l 954 719 z "},"Ŷ":{"ha":893,"x_min":13,"x_max":879,"o":"m 464 1263 q 502 1257 489 1263 q 540 1225 515 1251 l 681 1089 q 690 1065 694 1075 q 661 1054 686 1054 l 599 1054 q 531 1079 553 1054 l 450 1158 l 367 1079 q 340 1058 350 1063 q 301 1054 329 1054 l 243 1054 q 213 1065 218 1054 q 222 1089 208 1075 l 364 1225 q 402 1256 389 1250 q 446 1263 415 1263 l 464 1263 m 849 986 q 879 972 874 986 q 872 939 885 958 l 533 389 l 533 47 q 523 10 533 21 q 486 0 513 0 l 407 0 q 370 10 381 0 q 360 47 360 21 l 360 392 l 19 939 q 13 972 7 958 q 44 986 19 986 l 142 986 q 202 980 186 986 q 233 944 218 974 l 449 569 l 665 944 q 697 980 681 974 q 758 986 714 986 l 849 986 z "},"ŷ":{"ha":771,"x_min":74,"x_max":690,"o":"m 394 1011 q 433 1006 419 1011 q 469 974 446 1000 l 607 842 q 617 817 621 828 q 588 807 613 807 l 526 807 q 460 831 482 807 l 382 908 l 300 831 q 274 811 285 815 q 236 807 263 807 l 179 807 q 150 817 154 807 q 160 842 146 828 l 297 974 q 335 1005 322 999 q 378 1011 349 1011 l 394 1011 m 647 719 q 681 710 671 719 q 690 678 690 701 l 690 -24 q 616 -247 690 -167 q 385 -326 542 -326 q 96 -193 178 -326 q 114 -124 67 -147 l 167 -94 q 206 -85 192 -82 q 236 -111 221 -89 q 382 -182 281 -182 q 529 -32 529 -182 l 529 33 q 364 14 443 14 q 146 86 218 14 q 74 293 74 158 l 74 678 q 83 710 74 701 q 117 719 93 719 l 193 719 q 226 710 217 719 q 235 678 235 701 l 235 299 q 386 161 235 161 q 529 181 454 161 l 529 678 q 539 710 529 701 q 572 719 549 719 l 647 719 z "},"Ÿ":{"ha":893,"x_min":13,"x_max":879,"o":"m 315 1233 q 373 1217 357 1233 q 389 1161 389 1201 l 389 1147 q 373 1091 389 1107 q 315 1075 357 1075 l 307 1075 q 250 1091 265 1075 q 235 1147 235 1107 l 235 1161 q 250 1217 235 1201 q 307 1233 265 1233 l 315 1233 m 594 1233 q 651 1217 636 1233 q 667 1161 667 1201 l 667 1147 q 651 1091 667 1107 q 594 1075 636 1075 l 585 1075 q 527 1091 543 1075 q 511 1147 511 1107 l 511 1161 q 527 1217 511 1201 q 585 1233 543 1233 l 594 1233 m 849 986 q 879 972 874 986 q 872 939 885 958 l 533 389 l 533 47 q 523 10 533 21 q 486 0 513 0 l 407 0 q 370 10 381 0 q 360 47 360 21 l 360 392 l 19 939 q 13 972 7 958 q 44 986 19 986 l 142 986 q 202 980 186 986 q 233 944 218 974 l 449 569 l 665 944 q 697 980 681 974 q 758 986 714 986 l 849 986 z "},"Ź":{"ha":817,"x_min":47,"x_max":769,"o":"m 464 1256 q 542 1253 515 1283 l 578 1208 q 592 1188 589 1196 q 590 1173 594 1179 q 572 1161 586 1167 l 331 1060 q 276 1061 290 1044 l 257 1088 q 260 1132 232 1118 l 464 1256 m 714 986 q 751 976 740 986 q 761 939 761 965 l 761 872 q 746 822 761 842 l 265 163 l 722 163 q 760 152 750 163 q 769 115 769 142 l 769 47 q 759 10 769 21 q 722 0 749 0 l 94 0 q 58 10 68 0 q 47 47 47 21 l 47 115 q 64 164 47 142 l 543 824 l 101 824 q 65 834 75 824 q 54 871 54 844 l 54 939 q 65 976 54 965 q 101 986 75 986 l 714 986 z "},"ź":{"ha":654,"x_min":42,"x_max":613,"o":"m 375 1011 q 453 1010 425 1043 l 489 965 q 482 918 518 931 l 240 817 q 188 818 200 800 l 168 844 q 169 889 143 875 l 375 1011 m 571 146 q 603 136 594 146 q 613 103 613 126 l 613 43 q 603 10 613 19 q 571 0 594 0 l 85 0 q 51 10 61 0 q 42 43 42 19 l 42 103 q 57 146 42 129 l 397 574 l 92 574 q 58 583 68 574 q 49 617 49 593 l 49 678 q 58 710 49 701 q 92 719 68 719 l 564 719 q 597 710 588 719 q 606 678 606 701 l 606 617 q 590 571 606 589 l 247 146 l 571 146 z "},"Ż":{"ha":817,"x_min":47,"x_max":769,"o":"m 421 1233 q 480 1217 464 1233 q 496 1158 496 1201 l 496 1147 q 480 1089 496 1104 q 421 1074 464 1074 l 413 1074 q 353 1089 369 1074 q 338 1147 338 1104 l 338 1158 q 353 1217 338 1201 q 413 1233 369 1233 l 421 1233 m 714 986 q 751 976 740 986 q 761 939 761 965 l 761 872 q 746 822 761 842 l 265 163 l 722 163 q 760 152 750 163 q 769 115 769 142 l 769 47 q 759 10 769 21 q 722 0 749 0 l 94 0 q 58 10 68 0 q 47 47 47 21 l 47 115 q 64 164 47 142 l 543 824 l 101 824 q 65 834 75 824 q 54 871 54 844 l 54 939 q 65 976 54 965 q 101 986 75 986 l 714 986 z "},"ż":{"ha":654,"x_min":42,"x_max":613,"o":"m 332 988 q 390 972 375 988 q 406 913 406 956 l 406 903 q 390 844 406 860 q 332 828 375 828 l 324 828 q 265 843 281 828 q 249 903 249 858 l 249 913 q 265 972 249 956 q 324 988 281 988 l 332 988 m 571 146 q 603 136 594 146 q 613 103 613 126 l 613 43 q 603 10 613 19 q 571 0 594 0 l 85 0 q 51 10 61 0 q 42 43 42 19 l 42 103 q 57 146 42 129 l 397 574 l 92 574 q 58 583 68 574 q 49 617 49 593 l 49 678 q 58 710 49 701 q 92 719 68 719 l 564 719 q 597 710 588 719 q 606 678 606 701 l 606 617 q 590 571 606 589 l 247 146 l 571 146 z "},"Ž":{"ha":817,"x_min":47,"x_max":769,"o":"m 622 1260 q 652 1249 647 1260 q 643 1225 657 1239 l 501 1090 q 463 1058 476 1064 q 425 1053 450 1053 l 408 1053 q 363 1058 376 1053 q 325 1090 350 1064 l 185 1225 q 175 1249 171 1239 q 204 1260 179 1260 l 263 1260 q 301 1256 290 1260 q 328 1236 313 1253 l 413 1157 l 492 1236 q 519 1256 506 1251 q 560 1260 532 1260 l 622 1260 m 714 986 q 751 976 740 986 q 761 939 761 965 l 761 872 q 746 822 761 842 l 265 163 l 722 163 q 760 152 750 163 q 769 115 769 142 l 769 47 q 759 10 769 21 q 722 0 749 0 l 94 0 q 58 10 68 0 q 47 47 47 21 l 47 115 q 64 164 47 142 l 543 824 l 101 824 q 65 834 75 824 q 54 871 54 844 l 54 939 q 65 976 54 965 q 101 986 75 986 l 714 986 z "},"ž":{"ha":654,"x_min":42,"x_max":613,"o":"m 513 988 q 539 978 535 988 q 531 956 543 968 l 404 832 q 370 804 382 810 q 335 799 358 799 l 319 799 q 279 803 292 799 q 244 832 267 808 l 118 956 q 110 978 106 968 q 136 988 114 988 l 189 988 q 223 984 213 988 q 247 965 233 981 l 322 893 l 394 965 q 457 988 415 988 l 513 988 m 571 146 q 603 136 594 146 q 613 103 613 126 l 613 43 q 603 10 613 19 q 571 0 594 0 l 85 0 q 51 10 61 0 q 42 43 42 19 l 42 103 q 57 146 42 129 l 397 574 l 92 574 q 58 583 68 574 q 49 617 49 593 l 49 678 q 58 710 49 701 q 92 719 68 719 l 564 719 q 597 710 588 719 q 606 678 606 701 l 606 617 q 590 571 606 589 l 247 146 l 571 146 z "},"ſ":{"ha":408,"x_min":17,"x_max":500,"o":"m 139 735 q 457 1028 139 1028 q 491 1018 482 1028 q 500 983 500 1008 l 500 922 q 491 888 500 897 q 457 878 482 878 q 336 840 372 878 q 300 721 300 801 l 300 43 q 290 10 300 19 q 256 0 281 0 l 182 0 q 148 10 157 0 q 139 43 139 19 l 139 571 l 60 571 q 26 581 36 571 q 17 614 17 590 l 17 678 q 26 710 17 701 q 60 719 36 719 l 139 719 l 139 735 z "},"ƒ":{"ha":640,"x_min":-25,"x_max":618,"o":"m 254 725 q 344 951 269 874 q 575 1028 418 1028 q 609 1018 600 1028 q 618 983 618 1008 l 618 922 q 609 888 618 897 q 575 878 600 878 q 458 838 493 878 q 415 721 424 799 l 400 571 l 543 571 q 576 561 567 571 q 586 528 586 551 l 586 464 q 576 431 586 440 q 543 421 567 421 l 383 421 l 340 -3 q 250 -228 325 -151 q 19 -306 175 -306 q -15 -296 -6 -306 q -25 -261 -25 -286 l -25 -200 q -15 -165 -25 -175 q 19 -156 -6 -156 q 135 -116 100 -156 q 178 3 169 -76 l 222 421 l 86 421 q 53 431 63 421 q 44 464 44 440 l 44 528 q 53 561 44 551 q 86 571 63 571 l 238 571 l 254 725 z "},"Ǻ":{"ha":913,"x_min":14,"x_max":897,"o":"m 510 1338 q 583 1336 558 1360 l 617 1301 q 631 1280 632 1288 q 611 1267 629 1272 l 383 1193 q 333 1194 347 1181 l 315 1214 q 328 1253 293 1236 l 510 1338 m 299 1022 q 343 1132 299 1089 q 457 1175 388 1175 q 569 1132 525 1175 q 613 1022 613 1089 q 557 919 613 953 l 897 46 q 865 0 914 0 l 794 0 q 733 8 750 0 q 707 42 715 17 l 642 224 l 261 224 l 194 42 q 169 8 186 17 q 108 0 153 0 l 44 0 q 14 46 -6 0 l 356 919 q 299 1022 299 954 m 525 1028 q 506 1076 525 1058 q 457 1094 488 1094 q 406 1076 425 1094 q 386 1028 386 1058 q 406 982 386 1000 q 457 964 426 964 q 506 982 488 964 q 525 1028 525 1000 m 500 631 q 475 718 485 672 q 461 794 465 764 q 457 825 457 824 l 446 825 q 442 794 446 824 q 429 719 439 765 q 406 632 419 674 l 310 365 l 593 365 l 500 631 z "},"ǻ":{"ha":721,"x_min":43,"x_max":653,"o":"m 401 1250 q 475 1249 451 1271 l 508 1215 q 523 1194 524 1201 q 503 1181 522 1186 l 276 1106 q 226 1107 240 1093 l 208 1125 q 197 1140 200 1135 q 197 1150 194 1146 q 211 1160 200 1154 l 401 1250 m 249 826 q 228 847 249 826 q 207 932 207 867 q 249 1039 207 997 q 360 1081 292 1081 q 467 1039 425 1081 q 508 932 508 997 q 467 827 508 868 q 360 786 425 786 q 249 826 292 786 m 409 883 q 418 892 409 883 q 428 932 428 901 q 409 982 428 963 q 360 1001 390 1001 q 308 982 328 1001 q 288 932 288 963 q 308 883 288 901 q 360 864 328 864 q 409 883 390 864 m 68 596 q 356 740 143 740 q 653 454 653 740 l 653 94 q 642 43 653 58 q 603 15 632 28 q 353 -21 519 -21 q 110 34 176 -21 q 43 204 43 89 q 116 378 43 328 q 358 428 189 428 q 492 421 374 428 l 492 460 q 460 563 492 528 q 353 597 428 597 q 207 531 250 597 q 181 505 192 508 q 147 510 171 501 l 92 533 q 68 596 46 554 m 492 289 q 340 296 346 296 q 236 274 265 296 q 207 206 207 251 q 234 135 207 158 q 338 113 261 113 q 476 124 426 113 q 492 143 492 129 l 492 289 z "},"Ǽ":{"ha":1192,"x_min":-1,"x_max":1147,"o":"m 901 1256 q 981 1253 953 1283 l 1015 1208 q 1029 1188 1026 1196 q 1028 1173 1032 1179 q 1010 1161 1024 1167 l 768 1060 q 714 1061 728 1044 l 694 1088 q 697 1132 669 1118 l 901 1256 m 1100 163 q 1137 152 1126 163 q 1147 115 1147 142 l 1147 47 q 1137 10 1147 21 q 1100 0 1126 0 l 631 0 q 594 10 604 0 q 583 47 583 21 l 583 207 l 292 207 l 192 42 q 162 9 178 18 q 104 0 146 0 l 31 0 q -1 46 -18 0 l 565 947 q 591 978 581 971 q 624 986 601 986 l 1085 986 q 1122 976 1111 986 q 1132 939 1132 965 l 1132 871 q 1122 834 1132 844 q 1085 824 1111 824 l 751 824 l 751 581 l 1018 581 q 1055 570 1044 581 q 1065 533 1065 560 l 1065 465 q 1055 428 1065 439 q 1018 418 1044 418 l 751 418 l 751 163 l 1100 163 m 583 693 l 376 350 l 583 350 l 583 693 z "},"ǽ":{"ha":1110,"x_min":44,"x_max":1063,"o":"m 590 1014 q 668 1011 643 1043 l 704 968 q 699 919 733 933 l 457 818 q 403 821 415 803 l 383 846 q 369 873 369 864 q 386 892 369 882 l 590 1014 m 68 596 q 339 740 146 740 q 544 664 478 740 q 760 740 618 740 q 988 661 913 740 q 1063 454 1063 582 l 1063 368 q 1001 308 1063 308 l 619 308 l 619 257 q 760 118 619 118 q 903 192 856 118 q 934 217 919 214 q 974 208 949 221 l 1022 182 q 1039 113 1068 158 q 758 -21 957 -21 q 569 32 643 -21 q 336 -21 475 -21 q 107 33 169 -21 q 44 203 44 88 q 112 378 44 328 q 342 428 179 428 q 384 426 361 428 q 428 423 407 425 q 457 421 450 421 l 457 478 q 430 567 457 536 q 335 597 403 597 q 207 531 251 597 q 182 505 192 508 q 149 511 172 501 l 93 535 q 68 596 46 553 m 901 463 q 760 604 901 604 q 619 463 619 604 l 619 432 l 901 432 l 901 463 m 457 289 q 422 291 449 289 q 369 294 396 293 q 324 296 343 296 q 231 274 256 296 q 207 204 207 251 q 230 135 207 157 q 321 113 253 113 q 401 119 367 113 q 446 133 435 126 q 460 143 457 139 q 457 211 457 165 l 457 289 z "},"Ǿ":{"ha":929,"x_min":64,"x_max":878,"o":"m 514 1269 q 593 1267 565 1297 l 628 1222 q 642 1201 639 1210 q 640 1187 644 1193 q 622 1175 636 1181 l 381 1074 q 326 1075 340 1058 l 307 1101 q 310 1146 282 1132 l 514 1269 m 869 1046 q 878 1031 885 1046 l 783 885 q 861 644 861 792 l 861 342 q 758 78 861 174 q 465 -21 656 -18 q 238 28 332 -22 l 194 -40 q 163 -54 183 -54 l 72 -54 q 64 -39 54 -54 l 150 96 q 68 342 68 189 l 68 644 q 172 910 68 814 q 465 1007 275 1007 q 697 953 601 1007 l 747 1032 q 776 1046 758 1046 l 869 1046 m 606 810 q 465 844 549 844 q 301 794 358 844 q 243 646 243 743 l 243 340 q 260 267 243 297 l 606 810 m 329 172 q 465 142 382 142 q 630 193 572 142 q 688 340 688 244 l 688 646 q 674 711 688 681 l 329 172 z "},"ǿ":{"ha":754,"x_min":57,"x_max":697,"o":"m 424 1011 q 503 1010 475 1042 l 538 965 q 551 944 549 953 q 550 929 554 936 q 532 918 546 922 l 290 817 q 236 818 251 800 l 217 844 q 219 889 192 875 l 424 1011 m 668 767 q 675 751 683 767 l 619 663 q 697 463 697 592 l 697 257 q 614 53 697 126 q 376 -21 531 -21 q 207 13 278 -21 l 178 -35 q 147 -49 167 -49 l 85 -49 q 78 -33 68 -49 l 136 58 q 57 257 57 131 l 57 463 q 140 667 57 593 q 376 740 224 740 q 547 708 476 740 l 576 753 q 604 767 586 767 l 668 767 m 465 578 q 376 594 428 594 q 259 560 300 594 q 218 463 218 526 l 218 257 q 233 211 218 231 l 465 578 m 289 143 q 376 125 328 125 q 494 160 453 125 q 536 257 536 194 l 536 463 q 522 510 536 489 l 289 143 z "},"Ș":{"ha":879,"x_min":51,"x_max":832,"o":"m 60 703 q 159 923 60 839 q 440 1007 258 1007 q 669 956 585 1007 q 806 797 754 904 q 779 733 826 754 l 703 700 q 667 695 679 690 q 643 724 656 700 q 567 811 614 782 q 440 840 519 840 q 239 713 239 840 q 257 652 239 676 q 313 614 275 628 q 386 594 351 600 q 479 581 421 588 q 580 565 538 574 q 673 537 622 557 q 756 488 724 517 q 810 408 788 458 q 832 290 832 357 q 728 64 832 149 q 436 -21 624 -21 q 189 37 279 -21 q 54 211 99 94 q 51 251 44 238 q 83 272 58 264 l 160 300 q 196 302 183 308 q 219 271 208 296 q 436 142 274 142 q 657 286 657 142 q 624 360 657 332 q 549 398 590 388 q 438 415 507 408 q 362 424 390 421 q 289 438 333 428 q 217 460 244 447 q 156 494 189 472 q 104 543 122 515 q 73 612 86 571 q 60 703 60 653 m 472 -319 q 455 -350 465 -342 q 424 -358 444 -358 l 372 -358 q 347 -352 353 -358 q 344 -329 342 -346 l 372 -132 q 386 -96 375 -106 q 424 -86 397 -86 l 497 -86 q 538 -132 553 -86 l 472 -319 z "},"ș":{"ha":700,"x_min":49,"x_max":658,"o":"m 53 517 q 126 680 53 619 q 339 740 199 740 q 636 592 563 740 q 614 529 658 550 l 551 504 q 517 498 528 494 q 493 524 507 501 q 343 596 453 596 q 213 521 213 596 q 249 459 213 475 q 375 435 285 443 q 588 374 517 421 q 658 211 658 328 q 581 42 658 106 q 358 -21 503 -21 q 49 147 114 -21 q 76 206 32 190 l 139 225 q 173 228 160 233 q 196 199 186 222 q 353 122 228 122 q 500 204 500 122 q 463 267 500 250 q 333 293 426 283 q 251 305 285 299 q 176 326 217 311 q 111 364 136 342 q 69 425 86 386 q 53 517 53 464 m 388 -269 q 368 -301 379 -293 q 333 -310 357 -310 l 292 -310 q 265 -303 271 -310 q 263 -276 260 -296 l 286 -111 q 301 -72 289 -82 q 342 -61 314 -61 l 401 -61 q 439 -111 458 -61 l 388 -269 z "},"Ț":{"ha":786,"x_min":19,"x_max":767,"o":"m 719 986 q 756 976 746 986 q 767 939 767 965 l 767 871 q 756 834 767 844 q 719 824 746 824 l 481 824 l 481 47 q 470 10 481 21 q 433 0 460 0 l 353 0 q 316 10 326 0 q 306 47 306 21 l 306 824 l 67 824 q 30 834 40 824 q 19 871 19 844 l 19 939 q 30 976 19 965 q 67 986 40 986 l 719 986 m 414 -317 q 396 -348 407 -339 q 364 -357 385 -357 l 313 -357 q 288 -351 294 -357 q 285 -326 282 -344 l 313 -129 q 326 -94 315 -103 q 364 -85 338 -85 l 438 -85 q 478 -129 494 -85 l 414 -317 z "},"ț":{"ha":540,"x_min":13,"x_max":513,"o":"m 268 886 q 301 877 292 886 q 311 844 311 868 l 311 719 l 469 719 q 503 710 493 719 q 513 678 513 701 l 513 614 q 503 581 513 590 q 469 571 493 571 l 311 571 l 311 292 q 344 163 311 193 q 468 132 376 132 q 503 123 493 132 q 513 89 513 114 l 513 25 q 503 -9 513 0 q 468 -19 493 -18 q 222 42 293 -25 q 150 286 150 108 l 150 571 l 54 571 q 22 581 31 571 q 13 614 13 590 l 13 678 q 22 710 13 701 q 54 719 31 719 l 150 719 l 150 844 q 160 877 150 868 q 193 886 169 886 l 268 886 m 338 -317 q 289 -357 326 -357 l 238 -357 q 213 -351 218 -357 q 210 -326 207 -344 l 238 -129 q 251 -94 240 -103 q 289 -85 263 -85 l 363 -85 q 403 -129 418 -85 l 338 -317 z "},"ȷ":{"ha":324,"x_min":-119,"x_max":242,"o":"m 199 719 q 233 710 224 719 q 242 678 242 701 l 242 -10 q -75 -319 242 -319 q -110 -310 -100 -319 q -119 -275 -119 -300 l -119 -214 q -110 -179 -119 -189 q -75 -169 -100 -169 q 44 -128 8 -169 q 81 -6 81 -86 l 81 678 q 90 710 81 701 q 125 719 100 719 l 199 719 z "},"ˆ":{"ha":547,"x_min":31,"x_max":510,"o":"m 282 1019 q 320 1014 307 1019 q 358 982 333 1008 l 500 846 q 509 822 514 833 q 479 811 504 811 l 417 811 q 349 836 371 811 l 268 915 l 185 836 q 158 815 169 819 q 119 811 147 811 l 61 811 q 31 822 36 811 q 42 846 26 833 l 182 982 q 221 1014 208 1008 q 265 1019 233 1019 l 282 1019 z "},"ˇ":{"ha":461,"x_min":-11,"x_max":467,"o":"m 436 1017 q 466 1006 461 1017 q 457 982 471 996 l 317 847 q 278 815 290 821 q 239 810 265 810 l 222 810 q 177 815 190 810 q 140 847 164 821 l -1 982 q -11 1006 -15 996 q 18 1017 -7 1017 l 76 1017 q 115 1013 104 1017 q 143 993 126 1010 l 226 914 l 306 993 q 333 1013 319 1008 q 375 1017 346 1017 l 436 1017 z "},"˘":{"ha":399,"x_min":-22,"x_max":408,"o":"m 408 956 q 328 850 385 888 q 192 813 271 813 q 57 850 114 813 q -22 956 0 888 q -3 994 -32 983 l 51 1017 q 94 1001 83 1026 q 192 929 118 929 q 289 1001 265 929 q 325 1018 299 1025 l 389 994 q 408 956 417 982 z "},"˙":{"ha":300,"x_min":71,"x_max":229,"o":"m 154 989 q 213 974 197 989 q 229 915 229 958 l 229 904 q 213 845 229 861 q 154 829 197 829 l 146 829 q 87 845 103 829 q 71 904 71 861 l 71 915 q 87 974 71 958 q 146 989 103 989 l 154 989 z "},"˚":{"ha":333,"x_min":17,"x_max":318,"o":"m 59 814 q 38 834 59 814 q 17 919 17 854 q 59 1026 17 985 q 169 1068 101 1068 q 276 1026 235 1068 q 318 919 318 985 q 276 815 318 856 q 169 774 235 774 q 59 814 101 774 m 219 870 q 228 880 219 870 q 238 919 238 889 q 219 969 238 950 q 169 988 200 988 q 117 969 138 988 q 97 919 97 950 q 117 870 97 889 q 169 851 138 851 q 219 870 200 851 z "},"˛":{"ha":350,"x_min":43,"x_max":300,"o":"m 271 0 q 197 -115 219 -64 q 181 -193 174 -167 q 218 -222 189 -222 q 254 -208 239 -222 q 281 -217 274 -196 l 300 -261 q 299 -290 310 -279 q 167 -340 247 -340 q 43 -257 60 -340 q 64 -135 32 -203 q 167 0 96 -67 l 271 0 z "},"˜":{"ha":424,"x_min":-1,"x_max":425,"o":"m 399 1007 q 425 981 425 1007 q 397 862 425 897 q 308 826 369 826 q 207 866 260 826 q 129 906 154 906 q 96 853 96 906 q 71 826 96 826 l 25 826 q -1 853 -1 826 q 27 972 -1 936 q 114 1007 56 1007 q 219 967 167 1007 q 296 928 272 928 q 329 981 329 928 q 354 1007 329 1007 l 399 1007 z "},"˝":{"ha":549,"x_min":74,"x_max":543,"o":"m 169 988 q 242 1017 199 1029 l 290 1000 q 304 953 333 985 l 163 825 q 111 807 132 800 l 89 814 q 74 857 54 825 l 169 988 m 406 988 q 478 1017 436 1029 l 529 1000 q 543 953 579 982 l 388 819 q 338 801 358 794 l 314 810 q 300 853 275 821 l 406 988 z "},"̦":{"ha":0,"x_min":83,"x_max":276,"o":"m 213 -317 q 195 -348 206 -339 q 164 -357 185 -357 l 111 -357 q 87 -351 93 -357 q 83 -326 81 -344 l 113 -129 q 125 -94 114 -103 q 163 -85 136 -85 l 236 -85 q 276 -129 293 -85 l 213 -317 z "},"π":{"ha":893,"x_min":11,"x_max":857,"o":"m 814 719 q 847 710 838 719 q 857 678 857 701 l 857 615 q 847 582 857 592 q 814 572 838 572 l 771 572 l 771 208 q 796 89 771 142 q 772 26 817 43 l 710 1 q 673 -5 686 -10 q 650 24 660 0 q 610 215 610 106 l 610 572 l 340 572 l 340 43 q 331 10 340 19 q 297 0 321 0 l 221 0 q 188 10 197 0 q 179 43 179 19 l 179 572 q 92 547 142 571 q 36 565 50 529 l 11 626 q 32 682 -7 664 q 232 719 113 719 l 814 719 z "},"Ё":{"ha":804,"x_min":96,"x_max":758,"o":"m 289 1224 q 347 1208 331 1224 q 363 1151 363 1192 l 363 1138 q 347 1081 363 1097 q 289 1065 331 1065 l 279 1065 q 222 1081 238 1065 q 207 1138 207 1097 l 207 1151 q 222 1208 207 1192 q 279 1224 238 1224 l 289 1224 m 567 1224 q 624 1208 608 1224 q 640 1151 640 1192 l 640 1138 q 624 1081 640 1097 q 567 1065 608 1065 l 558 1065 q 501 1081 517 1065 q 485 1138 485 1097 l 485 1151 q 501 1208 485 1192 q 558 1224 517 1224 l 567 1224 m 696 986 q 733 976 722 986 q 744 939 744 965 l 744 871 q 733 834 744 844 q 696 824 722 824 l 271 824 l 271 581 l 631 581 q 667 570 657 581 q 678 533 678 560 l 678 465 q 667 428 678 439 q 631 418 657 418 l 271 418 l 271 163 l 711 163 q 748 152 738 163 q 758 115 758 142 l 758 47 q 748 10 758 21 q 711 0 738 0 l 144 0 q 107 10 118 0 q 96 47 96 21 l 96 939 q 107 976 96 965 q 144 986 118 986 l 696 986 z "},"А":{"ha":914,"x_min":14,"x_max":899,"o":"m 899 46 q 867 0 915 0 l 794 0 q 734 8 751 0 q 708 42 717 17 l 644 221 l 261 221 l 196 42 q 170 8 188 17 q 110 0 153 0 l 46 0 q 14 46 -3 0 l 361 949 q 383 980 371 972 q 419 988 394 988 l 493 988 q 531 980 518 988 q 551 950 543 972 l 899 46 m 490 657 q 469 737 478 694 q 458 803 461 779 l 457 826 l 447 826 q 417 658 447 747 l 310 364 l 596 364 l 490 657 z "},"Б":{"ha":881,"x_min":96,"x_max":842,"o":"m 725 986 q 762 976 751 986 q 772 939 772 965 l 772 871 q 762 834 772 844 q 725 824 751 824 l 271 824 l 271 603 l 535 603 q 758 522 675 603 q 842 301 842 442 q 758 81 842 161 q 535 0 675 0 l 143 0 q 107 10 118 0 q 96 44 96 19 l 96 939 q 107 976 96 965 q 144 986 118 986 l 725 986 m 621 200 q 640 219 621 200 q 658 301 658 238 q 621 403 658 365 q 517 440 583 440 l 271 440 l 271 163 l 517 163 q 621 200 583 163 z "},"В":{"ha":903,"x_min":96,"x_max":850,"o":"m 529 986 q 739 919 664 986 q 814 726 814 851 q 708 517 814 579 l 708 511 q 850 271 850 461 q 764 72 850 143 q 538 0 678 0 l 144 0 q 107 10 118 0 q 96 47 96 21 l 96 939 q 107 976 96 965 q 144 986 118 986 l 529 986 m 508 579 q 636 701 636 579 q 508 824 636 824 l 271 824 l 271 579 l 508 579 m 665 290 q 533 421 665 421 l 271 421 l 271 163 l 533 163 q 665 290 665 163 z "},"Г":{"ha":721,"x_min":96,"x_max":701,"o":"m 654 986 q 691 976 681 986 q 701 939 701 965 l 701 871 q 691 834 701 844 q 654 824 681 824 l 271 824 l 271 47 q 260 10 271 21 q 224 0 250 0 l 144 0 q 107 10 118 0 q 96 47 96 21 l 96 939 q 107 976 96 965 q 144 986 118 986 l 654 986 z "},"Д":{"ha":1026,"x_min":26,"x_max":1001,"o":"m 833 986 q 871 976 860 986 q 882 939 882 965 l 882 163 l 954 163 q 991 152 981 163 q 1001 115 1001 142 l 1001 -165 q 991 -202 1001 -192 q 954 -212 981 -212 l 878 -212 q 841 -202 851 -212 q 831 -165 831 -192 l 831 0 l 196 0 l 196 -165 q 185 -202 196 -192 q 149 -212 175 -212 l 74 -212 q 37 -202 47 -212 q 26 -165 26 -192 l 26 115 q 37 152 26 142 q 74 163 47 163 l 106 163 q 151 207 132 181 q 191 286 171 233 q 222 431 211 339 q 233 651 233 524 l 233 939 q 244 976 233 965 q 281 986 254 986 l 833 986 m 401 824 l 401 653 q 308 163 401 308 l 707 163 l 707 824 l 401 824 z "},"Е":{"ha":804,"x_min":96,"x_max":758,"o":"m 696 986 q 733 976 722 986 q 744 939 744 965 l 744 871 q 733 834 744 844 q 696 824 722 824 l 271 824 l 271 581 l 631 581 q 667 570 657 581 q 678 533 678 560 l 678 465 q 667 428 678 439 q 631 418 657 418 l 271 418 l 271 163 l 711 163 q 748 152 738 163 q 758 115 758 142 l 758 47 q 748 10 758 21 q 711 0 738 0 l 144 0 q 107 10 118 0 q 96 47 96 21 l 96 939 q 107 976 96 965 q 144 986 118 986 l 696 986 z "},"Ж":{"ha":1307,"x_min":19,"x_max":1288,"o":"m 1242 986 q 1273 972 1267 986 q 1265 940 1279 958 l 988 526 q 1106 386 1054 485 l 1281 47 q 1288 14 1293 28 q 1257 0 1282 0 l 1176 0 q 1113 8 1132 0 q 1082 42 1094 17 l 943 324 q 881 401 914 381 q 776 421 847 421 l 740 421 l 740 47 q 730 10 740 21 q 693 0 719 0 l 614 0 q 577 10 588 0 q 567 47 567 21 l 567 421 l 531 421 q 426 401 460 421 q 364 324 393 381 l 225 42 q 194 8 213 17 q 131 0 175 0 l 50 0 q 19 14 25 0 q 26 47 14 28 l 203 386 q 319 526 251 483 l 42 940 q 35 972 29 958 q 65 986 42 986 l 154 986 q 215 979 197 986 q 249 947 232 972 l 483 578 q 531 579 501 579 l 567 579 l 567 939 q 577 976 567 965 q 614 986 588 986 l 693 986 q 730 976 719 986 q 740 939 740 965 l 740 579 l 776 579 q 824 578 808 579 l 1058 947 q 1092 979 1075 972 q 1154 986 1110 986 l 1242 986 z "},"З":{"ha":882,"x_min":47,"x_max":826,"o":"m 796 724 q 685 514 796 575 q 826 275 826 453 q 735 57 826 135 q 461 -21 644 -21 q 47 213 129 -21 q 76 274 31 257 l 153 300 q 190 302 178 308 q 213 271 203 296 q 293 173 236 204 q 461 142 350 142 q 643 283 643 142 q 608 385 643 349 q 507 422 574 422 l 313 422 q 276 433 286 422 q 265 469 265 443 l 265 532 q 276 569 265 558 q 313 579 286 579 l 486 579 q 584 614 550 579 q 618 710 618 649 q 450 844 618 844 q 297 814 349 844 q 221 717 244 783 q 199 685 211 692 q 161 688 186 679 l 85 714 q 56 775 39 731 q 461 1007 138 1007 q 710 933 624 1007 q 796 724 796 858 z "},"И":{"ha":972,"x_min":96,"x_max":875,"o":"m 828 986 q 865 976 854 986 q 875 939 875 965 l 875 47 q 865 10 875 21 q 828 0 854 0 l 749 0 q 712 10 722 0 q 701 47 701 21 l 701 454 q 708 616 701 560 q 735 772 714 672 l 729 772 q 590 508 682 651 l 272 24 q 225 0 258 0 l 144 0 q 107 10 118 0 q 96 47 96 21 l 96 939 q 107 976 96 965 q 144 986 118 986 l 224 986 q 260 976 250 986 q 271 939 271 965 l 271 536 q 265 372 271 431 q 238 214 258 314 l 243 214 q 388 489 294 346 l 700 964 q 746 986 715 986 l 828 986 z "},"Й":{"ha":972,"x_min":96,"x_max":875,"o":"m 732 1203 q 642 1094 704 1133 q 490 1056 579 1056 q 339 1094 401 1056 q 251 1203 276 1133 q 272 1244 240 1233 l 333 1267 q 382 1251 369 1276 q 490 1176 408 1176 q 599 1251 572 1176 q 639 1268 611 1275 l 710 1244 q 733 1229 728 1238 q 732 1203 738 1221 m 828 986 q 865 976 854 986 q 875 939 875 965 l 875 47 q 865 10 875 21 q 828 0 854 0 l 749 0 q 712 10 722 0 q 701 47 701 21 l 701 454 q 708 616 701 560 q 735 772 714 672 l 729 772 q 590 508 682 651 l 272 24 q 225 0 258 0 l 144 0 q 107 10 118 0 q 96 47 96 21 l 96 939 q 107 976 96 965 q 144 986 118 986 l 224 986 q 260 976 250 986 q 271 939 271 965 l 271 536 q 265 372 271 431 q 238 214 258 314 l 243 214 q 388 489 294 346 l 700 964 q 746 986 715 986 l 828 986 z "}}}
